M48
;GenerationSoftware,Autodesk,EAGLE,9.7.0*%
;CreationDate,2023-09-24T16:01:08Z*%
FMAT,2
ICI,OFF
METRIC,TZ,000.000
T4C0.350
T3C1.000
T2C1.016
T1C3.500
%
G90
M71
T1
X4000Y35000
X35000Y4000
X4000Y4000
X35000Y35000
T2
X35373Y15080
X5897Y17810
X5897Y10190
X3103Y10190
X5897Y12730
X3103Y12730
X5897Y15270
X3103Y15270
X3103Y17810
X3048Y20320
X3302Y22860
X3048Y25400
X19190Y38000
X21730Y37746
X24270Y38000
X26810Y37746
X35373Y10000
X35627Y12540
T3
X26929Y11500
X26929Y14040
X26929Y16580
X26929Y19120
X12070Y19120
X12070Y16580
X12070Y11500
X12070Y8960
X12070Y6420
X12070Y3880
X26929Y3880
X26929Y6420
X26929Y8960
X12070Y14040
T4
X14500Y28500
X6500Y31000
X20500Y40000
X28431Y38975
X17300Y38827
X7500Y24500
X29500Y28500
X27000Y34500
X12000Y28000
X27000Y32500
X27000Y31500
X13500Y34500
X13500Y33500
X13500Y32500
X13500Y31500
X22300Y14500
X20600Y12800
X16500Y23500
X30000Y23500
X27000Y33500
X6000Y21000
X10500Y21500
X13000Y23000
X18500Y20000
X27500Y21000
X36500Y21000
X36500Y32500
X32000Y36500
X10000Y28000
X11000Y28000
X10000Y27000
X11000Y27000
X12000Y27000
X23500Y28000
X24500Y28000
X25500Y28000
X25500Y27000
X24500Y27000
X23500Y27000
X21000Y29000
X21000Y26000
X20500Y16500
X21000Y27500
X28000Y27500
X14500Y27500
X7500Y29000
X7500Y27500
X7500Y26000
X17000Y34500
X29000Y36000
X19500Y29000
X34500Y18500
X28000Y28500
M30