G04 EAGLE Gerber RS-274X export*
G75*
%MOMM*%
%FSLAX34Y34*%
%LPD*%
%INBottom Copper*%
%IPPOS*%
%AMOC8*
5,1,8,0,0,1.08239X$1,22.5*%
G01*
G04 Define Apertures*
%ADD10C,1.828800*%
%ADD11C,1.879600*%
%ADD12C,0.508000*%
%ADD13C,0.812800*%
G36*
X350119Y13565D02*
X350000Y13556D01*
X40000Y13556D01*
X39881Y13565D01*
X31945Y14822D01*
X31718Y14896D01*
X24559Y18544D01*
X24366Y18684D01*
X18684Y24366D01*
X18544Y24559D01*
X14896Y31718D01*
X14822Y31945D01*
X13565Y39881D01*
X13556Y40000D01*
X13556Y111787D01*
X13603Y112050D01*
X13762Y112308D01*
X14010Y112484D01*
X14306Y112549D01*
X14604Y112493D01*
X14857Y112326D01*
X20627Y106555D01*
X20788Y106319D01*
X20850Y106023D01*
X20792Y105725D01*
X20108Y104073D01*
X20108Y99727D01*
X21771Y95713D01*
X24843Y92641D01*
X28857Y90978D01*
X33203Y90978D01*
X34855Y91662D01*
X35134Y91720D01*
X35433Y91665D01*
X35685Y91497D01*
X90354Y36829D01*
X90519Y36582D01*
X92103Y32757D01*
X95104Y29756D01*
X99025Y28132D01*
X121557Y28132D01*
X125478Y29756D01*
X128479Y32757D01*
X130103Y36678D01*
X130103Y40922D01*
X128479Y44843D01*
X125478Y47844D01*
X121557Y49468D01*
X99025Y49468D01*
X95104Y47844D01*
X93508Y46247D01*
X93277Y46089D01*
X92981Y46024D01*
X92683Y46080D01*
X92430Y46247D01*
X41433Y97245D01*
X41272Y97481D01*
X41210Y97777D01*
X41268Y98075D01*
X41952Y99728D01*
X41952Y104073D01*
X40289Y108087D01*
X37217Y111159D01*
X33203Y112822D01*
X28858Y112822D01*
X27205Y112138D01*
X26926Y112080D01*
X26628Y112135D01*
X26375Y112303D01*
X20383Y118294D01*
X20220Y118536D01*
X20160Y118833D01*
X20160Y171971D01*
X20205Y172229D01*
X20362Y172488D01*
X20608Y172665D01*
X20904Y172733D01*
X21202Y172680D01*
X21457Y172514D01*
X21626Y172263D01*
X21771Y171913D01*
X24843Y168841D01*
X28857Y167178D01*
X33203Y167178D01*
X37217Y168841D01*
X40289Y171913D01*
X41952Y175927D01*
X41952Y180273D01*
X40289Y184287D01*
X37217Y187359D01*
X36538Y187640D01*
X36300Y187797D01*
X36128Y188047D01*
X36068Y188344D01*
X36068Y193184D01*
X36121Y193464D01*
X36287Y193718D01*
X36538Y193888D01*
X36667Y193941D01*
X39739Y197013D01*
X41402Y201027D01*
X41402Y205373D01*
X39739Y209387D01*
X36667Y212459D01*
X32653Y214122D01*
X28307Y214122D01*
X24293Y212459D01*
X21461Y209627D01*
X21241Y209474D01*
X20946Y209404D01*
X20647Y209455D01*
X20392Y209618D01*
X20220Y209868D01*
X20160Y210166D01*
X20160Y237617D01*
X20216Y237903D01*
X20383Y238156D01*
X25825Y243597D01*
X26061Y243758D01*
X26357Y243820D01*
X26655Y243762D01*
X28308Y243078D01*
X32653Y243078D01*
X36667Y244741D01*
X39739Y247813D01*
X41402Y251827D01*
X41402Y256173D01*
X39739Y260187D01*
X36667Y263259D01*
X32653Y264922D01*
X28307Y264922D01*
X24293Y263259D01*
X21221Y260187D01*
X19558Y256173D01*
X19558Y251828D01*
X20242Y250175D01*
X20300Y249896D01*
X20245Y249598D01*
X20077Y249345D01*
X14857Y244124D01*
X14637Y243971D01*
X14342Y243901D01*
X14043Y243952D01*
X13788Y244116D01*
X13616Y244366D01*
X13556Y244663D01*
X13556Y350000D01*
X13565Y350119D01*
X14822Y358055D01*
X14896Y358282D01*
X18544Y365441D01*
X18684Y365634D01*
X24366Y371316D01*
X24559Y371456D01*
X31718Y375104D01*
X31945Y375178D01*
X39881Y376435D01*
X40000Y376444D01*
X350000Y376444D01*
X350119Y376435D01*
X358055Y375178D01*
X358282Y375104D01*
X365441Y371456D01*
X365634Y371316D01*
X371316Y365634D01*
X371456Y365441D01*
X375104Y358282D01*
X375178Y358055D01*
X376435Y350119D01*
X376444Y350000D01*
X376444Y40000D01*
X376435Y39881D01*
X375178Y31945D01*
X375104Y31718D01*
X371456Y24559D01*
X371316Y24366D01*
X365634Y18684D01*
X365441Y18544D01*
X358282Y14896D01*
X358055Y14822D01*
X350119Y13565D01*
G37*
%LPC*%
G36*
X345812Y328944D02*
X354188Y328944D01*
X361927Y332150D01*
X367850Y338073D01*
X371056Y345812D01*
X371056Y354188D01*
X367850Y361927D01*
X361927Y367850D01*
X354188Y371056D01*
X345812Y371056D01*
X338073Y367850D01*
X332150Y361927D01*
X328944Y354188D01*
X328944Y345812D01*
X332150Y338073D01*
X338073Y332150D01*
X345812Y328944D01*
G37*
G36*
X35812Y328944D02*
X44188Y328944D01*
X51927Y332150D01*
X57850Y338073D01*
X61056Y345812D01*
X61056Y354188D01*
X57850Y361927D01*
X51927Y367850D01*
X44188Y371056D01*
X35812Y371056D01*
X28073Y367850D01*
X22150Y361927D01*
X18944Y354188D01*
X18944Y345812D01*
X22150Y338073D01*
X28073Y332150D01*
X35812Y328944D01*
G37*
G36*
X30847Y217678D02*
X35193Y217678D01*
X39207Y219341D01*
X42279Y222413D01*
X43942Y226427D01*
X43942Y230773D01*
X42279Y234787D01*
X39207Y237859D01*
X35193Y239522D01*
X30847Y239522D01*
X26833Y237859D01*
X23761Y234787D01*
X22098Y230773D01*
X22098Y226427D01*
X23761Y222413D01*
X26833Y219341D01*
X30847Y217678D01*
G37*
G36*
X268443Y180532D02*
X290975Y180532D01*
X294896Y182156D01*
X297897Y185157D01*
X299521Y189078D01*
X299521Y193322D01*
X297897Y197243D01*
X294896Y200244D01*
X290975Y201868D01*
X268443Y201868D01*
X264522Y200244D01*
X261521Y197243D01*
X259897Y193322D01*
X259897Y189078D01*
X261521Y185157D01*
X264522Y182156D01*
X268443Y180532D01*
G37*
G36*
X99025Y180532D02*
X121557Y180532D01*
X125478Y182156D01*
X128479Y185157D01*
X130103Y189078D01*
X130103Y193322D01*
X128479Y197243D01*
X125478Y200244D01*
X121557Y201868D01*
X99025Y201868D01*
X95104Y200244D01*
X92103Y197243D01*
X90479Y193322D01*
X90479Y189078D01*
X92103Y185157D01*
X95104Y182156D01*
X99025Y180532D01*
G37*
G36*
X56797Y167178D02*
X61143Y167178D01*
X65157Y168841D01*
X68229Y171913D01*
X69892Y175927D01*
X69892Y180273D01*
X68229Y184287D01*
X65157Y187359D01*
X61143Y189022D01*
X56797Y189022D01*
X52783Y187359D01*
X49711Y184287D01*
X48048Y180273D01*
X48048Y175927D01*
X49711Y171913D01*
X52783Y168841D01*
X56797Y167178D01*
G37*
G36*
X268443Y155132D02*
X290975Y155132D01*
X294896Y156756D01*
X297897Y159757D01*
X299521Y163678D01*
X299521Y167922D01*
X297897Y171843D01*
X294896Y174844D01*
X290975Y176468D01*
X268443Y176468D01*
X264522Y174844D01*
X261521Y171843D01*
X259897Y167922D01*
X259897Y163678D01*
X261521Y159757D01*
X264522Y156756D01*
X268443Y155132D01*
G37*
G36*
X99025Y155132D02*
X121557Y155132D01*
X125478Y156756D01*
X128479Y159757D01*
X130103Y163678D01*
X130103Y167922D01*
X128479Y171843D01*
X125478Y174844D01*
X121557Y176468D01*
X99025Y176468D01*
X95104Y174844D01*
X92103Y171843D01*
X90479Y167922D01*
X90479Y163678D01*
X92103Y159757D01*
X95104Y156756D01*
X99025Y155132D01*
G37*
G36*
X56797Y141778D02*
X61143Y141778D01*
X65157Y143441D01*
X68229Y146513D01*
X69892Y150527D01*
X69892Y154873D01*
X68229Y158887D01*
X65157Y161959D01*
X61143Y163622D01*
X56797Y163622D01*
X52783Y161959D01*
X49711Y158887D01*
X48048Y154873D01*
X48048Y150527D01*
X49711Y146513D01*
X52783Y143441D01*
X56797Y141778D01*
G37*
G36*
X268443Y129732D02*
X290975Y129732D01*
X294896Y131356D01*
X297897Y134357D01*
X299521Y138278D01*
X299521Y142522D01*
X297897Y146443D01*
X294896Y149444D01*
X290975Y151068D01*
X268443Y151068D01*
X264522Y149444D01*
X261521Y146443D01*
X259897Y142522D01*
X259897Y138278D01*
X261521Y134357D01*
X264522Y131356D01*
X268443Y129732D01*
G37*
G36*
X99025Y129732D02*
X121557Y129732D01*
X125478Y131356D01*
X128479Y134357D01*
X130103Y138278D01*
X130103Y142522D01*
X128479Y146443D01*
X125478Y149444D01*
X121557Y151068D01*
X99025Y151068D01*
X95104Y149444D01*
X92103Y146443D01*
X90479Y142522D01*
X90479Y138278D01*
X92103Y134357D01*
X95104Y131356D01*
X99025Y129732D01*
G37*
G36*
X56797Y116378D02*
X61143Y116378D01*
X65157Y118041D01*
X68229Y121113D01*
X69892Y125127D01*
X69892Y129473D01*
X68229Y133487D01*
X65157Y136559D01*
X61143Y138222D01*
X56797Y138222D01*
X52783Y136559D01*
X49711Y133487D01*
X48048Y129473D01*
X48048Y125127D01*
X49711Y121113D01*
X52783Y118041D01*
X56797Y116378D01*
G37*
G36*
X268443Y104332D02*
X290975Y104332D01*
X294896Y105956D01*
X297897Y108957D01*
X299521Y112878D01*
X299521Y117122D01*
X297897Y121043D01*
X294896Y124044D01*
X290975Y125668D01*
X268443Y125668D01*
X264522Y124044D01*
X261521Y121043D01*
X259897Y117122D01*
X259897Y112878D01*
X261521Y108957D01*
X264522Y105956D01*
X268443Y104332D01*
G37*
G36*
X99025Y104332D02*
X121557Y104332D01*
X125478Y105956D01*
X128479Y108957D01*
X130103Y112878D01*
X130103Y117122D01*
X128479Y121043D01*
X125478Y124044D01*
X121557Y125668D01*
X99025Y125668D01*
X95104Y124044D01*
X92103Y121043D01*
X90479Y117122D01*
X90479Y112878D01*
X92103Y108957D01*
X95104Y105956D01*
X99025Y104332D01*
G37*
G36*
X56797Y90978D02*
X61143Y90978D01*
X65157Y92641D01*
X68229Y95713D01*
X69892Y99727D01*
X69892Y104073D01*
X68229Y108087D01*
X65157Y111159D01*
X61143Y112822D01*
X56797Y112822D01*
X52783Y111159D01*
X49711Y108087D01*
X48048Y104073D01*
X48048Y99727D01*
X49711Y95713D01*
X52783Y92641D01*
X56797Y90978D01*
G37*
G36*
X268443Y78932D02*
X290975Y78932D01*
X294896Y80556D01*
X297897Y83557D01*
X299521Y87478D01*
X299521Y91722D01*
X297897Y95643D01*
X294896Y98644D01*
X290975Y100268D01*
X268443Y100268D01*
X264522Y98644D01*
X261521Y95643D01*
X259897Y91722D01*
X259897Y87478D01*
X261521Y83557D01*
X264522Y80556D01*
X268443Y78932D01*
G37*
G36*
X99025Y78932D02*
X121557Y78932D01*
X125478Y80556D01*
X128479Y83557D01*
X130103Y87478D01*
X130103Y91722D01*
X128479Y95643D01*
X125478Y98644D01*
X121557Y100268D01*
X99025Y100268D01*
X95104Y98644D01*
X92103Y95643D01*
X90479Y91722D01*
X90479Y87478D01*
X92103Y83557D01*
X95104Y80556D01*
X99025Y78932D01*
G37*
G36*
X268443Y53532D02*
X290975Y53532D01*
X294896Y55156D01*
X297897Y58157D01*
X299521Y62078D01*
X299521Y66322D01*
X297897Y70243D01*
X294896Y73244D01*
X290975Y74868D01*
X268443Y74868D01*
X264522Y73244D01*
X261521Y70243D01*
X259897Y66322D01*
X259897Y62078D01*
X261521Y58157D01*
X264522Y55156D01*
X268443Y53532D01*
G37*
G36*
X345812Y18944D02*
X354188Y18944D01*
X361927Y22150D01*
X367850Y28073D01*
X371056Y35812D01*
X371056Y44188D01*
X367850Y51927D01*
X361927Y57850D01*
X354188Y61056D01*
X345812Y61056D01*
X338073Y57850D01*
X332150Y51927D01*
X328944Y44188D01*
X328944Y35812D01*
X332150Y28073D01*
X338073Y22150D01*
X345812Y18944D01*
G37*
G36*
X35812Y18944D02*
X44188Y18944D01*
X51927Y22150D01*
X57850Y28073D01*
X61056Y35812D01*
X61056Y44188D01*
X57850Y51927D01*
X51927Y57850D01*
X44188Y61056D01*
X35812Y61056D01*
X28073Y57850D01*
X22150Y51927D01*
X18944Y44188D01*
X18944Y35812D01*
X22150Y28073D01*
X28073Y22150D01*
X35812Y18944D01*
G37*
G36*
X268443Y28132D02*
X290975Y28132D01*
X294896Y29756D01*
X297897Y32757D01*
X299521Y36678D01*
X299521Y40922D01*
X297897Y44843D01*
X294896Y47844D01*
X290975Y49468D01*
X268443Y49468D01*
X264522Y47844D01*
X261521Y44843D01*
X259897Y40922D01*
X259897Y36678D01*
X261521Y32757D01*
X264522Y29756D01*
X268443Y28132D01*
G37*
%LPD*%
D10*
X270565Y38800D02*
X288853Y38800D01*
X288853Y64200D02*
X270565Y64200D01*
X270565Y89600D02*
X288853Y89600D01*
X288853Y115000D02*
X270565Y115000D01*
X270565Y140400D02*
X288853Y140400D01*
X288853Y165800D02*
X270565Y165800D01*
X270565Y191200D02*
X288853Y191200D01*
X119435Y191200D02*
X101147Y191200D01*
X101147Y165800D02*
X119435Y165800D01*
X119435Y140400D02*
X101147Y140400D01*
X101147Y115000D02*
X119435Y115000D01*
X119435Y89600D02*
X101147Y89600D01*
X101147Y64200D02*
X119435Y64200D01*
X119435Y38800D02*
X101147Y38800D01*
D11*
X58970Y101900D03*
X31030Y101900D03*
X58970Y127300D03*
X31030Y127300D03*
X58970Y152700D03*
X31030Y152700D03*
X58970Y178100D03*
X31030Y178100D03*
X30480Y203200D03*
X33020Y228600D03*
X30480Y254000D03*
D12*
X31030Y101900D02*
X94130Y38800D01*
X119435Y38800D01*
X16096Y116834D02*
X16096Y239616D01*
X16096Y116834D02*
X31030Y101900D01*
X16096Y239616D02*
X30480Y254000D01*
X30480Y178650D02*
X31030Y178100D01*
D13*
X30480Y178650D02*
X30480Y203200D01*
M02*
