G04 EAGLE Gerber RS-274X export*
G75*
%MOMM*%
%FSLAX34Y34*%
%LPD*%
%INTop Copper*%
%IPPOS*%
%AMOC8*
5,1,8,0,0,1.08239X$1,22.5*%
G01*
G04 Define Apertures*
%ADD10C,1.828800*%
%ADD11C,1.879600*%
%ADD12C,0.304800*%
D10*
X270565Y38800D02*
X288853Y38800D01*
X288853Y64200D02*
X270565Y64200D01*
X270565Y89600D02*
X288853Y89600D01*
X288853Y115000D02*
X270565Y115000D01*
X270565Y140400D02*
X288853Y140400D01*
X288853Y165800D02*
X270565Y165800D01*
X270565Y191200D02*
X288853Y191200D01*
X119435Y191200D02*
X101147Y191200D01*
X101147Y165800D02*
X119435Y165800D01*
X119435Y140400D02*
X101147Y140400D01*
X101147Y115000D02*
X119435Y115000D01*
X119435Y89600D02*
X101147Y89600D01*
X101147Y64200D02*
X119435Y64200D01*
X119435Y38800D02*
X101147Y38800D01*
D11*
X58970Y101900D03*
X31030Y101900D03*
X58970Y127300D03*
X31030Y127300D03*
X58970Y152700D03*
X31030Y152700D03*
X58970Y178100D03*
X31030Y178100D03*
X30480Y203200D03*
X33020Y228600D03*
X30480Y254000D03*
D12*
X72070Y115000D02*
X119435Y115000D01*
X72070Y115000D02*
X58970Y101900D01*
X58970Y127300D02*
X84670Y153000D01*
X232365Y153000D01*
X270565Y191200D01*
X119435Y165800D02*
X72070Y165800D01*
X58970Y152700D01*
X72070Y191200D02*
X119435Y191200D01*
X72070Y191200D02*
X58970Y178100D01*
M02*
