G04 EAGLE Gerber RS-274X export*
G75*
%MOMM*%
%FSLAX34Y34*%
%LPD*%
%INSilkscreen Top*%
%IPPOS*%
%AMOC8*
5,1,8,0,0,1.08239X$1,22.5*%
G01*
G04 Define Apertures*
%ADD10C,0.076200*%
%ADD11C,0.254000*%
%ADD12C,0.203200*%
D10*
X55317Y200548D02*
X62683Y203003D01*
X55317Y205459D01*
X62683Y209886D02*
X62683Y211523D01*
X62683Y209886D02*
X62681Y209808D01*
X62676Y209730D01*
X62666Y209653D01*
X62653Y209576D01*
X62637Y209500D01*
X62617Y209425D01*
X62593Y209351D01*
X62566Y209278D01*
X62535Y209206D01*
X62501Y209136D01*
X62464Y209068D01*
X62423Y209001D01*
X62379Y208936D01*
X62333Y208874D01*
X62283Y208814D01*
X62231Y208756D01*
X62176Y208701D01*
X62118Y208649D01*
X62058Y208599D01*
X61996Y208553D01*
X61931Y208509D01*
X61865Y208468D01*
X61796Y208431D01*
X61726Y208397D01*
X61654Y208366D01*
X61581Y208339D01*
X61507Y208315D01*
X61432Y208295D01*
X61356Y208279D01*
X61279Y208266D01*
X61202Y208256D01*
X61124Y208251D01*
X61046Y208249D01*
X56954Y208249D01*
X56874Y208251D01*
X56794Y208257D01*
X56714Y208267D01*
X56635Y208280D01*
X56556Y208298D01*
X56479Y208319D01*
X56403Y208345D01*
X56328Y208374D01*
X56254Y208406D01*
X56182Y208442D01*
X56112Y208482D01*
X56045Y208525D01*
X55979Y208571D01*
X55916Y208621D01*
X55855Y208673D01*
X55796Y208728D01*
X55741Y208787D01*
X55689Y208847D01*
X55639Y208911D01*
X55593Y208976D01*
X55550Y209044D01*
X55510Y209114D01*
X55474Y209186D01*
X55442Y209260D01*
X55413Y209334D01*
X55388Y209411D01*
X55366Y209488D01*
X55348Y209567D01*
X55335Y209646D01*
X55325Y209725D01*
X55319Y209806D01*
X55317Y209886D01*
X55317Y211523D01*
X62683Y215982D02*
X62683Y217619D01*
X62683Y215982D02*
X62681Y215904D01*
X62676Y215826D01*
X62666Y215749D01*
X62653Y215672D01*
X62637Y215596D01*
X62617Y215521D01*
X62593Y215447D01*
X62566Y215374D01*
X62535Y215302D01*
X62501Y215232D01*
X62464Y215164D01*
X62423Y215097D01*
X62379Y215032D01*
X62333Y214970D01*
X62283Y214910D01*
X62231Y214852D01*
X62176Y214797D01*
X62118Y214745D01*
X62058Y214695D01*
X61996Y214649D01*
X61931Y214605D01*
X61865Y214564D01*
X61796Y214527D01*
X61726Y214493D01*
X61654Y214462D01*
X61581Y214435D01*
X61507Y214411D01*
X61432Y214391D01*
X61356Y214375D01*
X61279Y214362D01*
X61202Y214352D01*
X61124Y214347D01*
X61046Y214345D01*
X56954Y214345D01*
X56874Y214347D01*
X56794Y214353D01*
X56714Y214363D01*
X56635Y214376D01*
X56556Y214394D01*
X56479Y214415D01*
X56403Y214441D01*
X56328Y214470D01*
X56254Y214502D01*
X56182Y214538D01*
X56112Y214578D01*
X56045Y214621D01*
X55979Y214667D01*
X55916Y214717D01*
X55855Y214769D01*
X55796Y214824D01*
X55741Y214883D01*
X55689Y214943D01*
X55639Y215007D01*
X55593Y215072D01*
X55550Y215140D01*
X55510Y215210D01*
X55474Y215282D01*
X55442Y215356D01*
X55413Y215430D01*
X55388Y215507D01*
X55366Y215584D01*
X55348Y215663D01*
X55335Y215742D01*
X55325Y215821D01*
X55319Y215902D01*
X55317Y215982D01*
X55317Y217619D01*
X54089Y228000D02*
X63911Y228000D01*
X62683Y240836D02*
X55317Y238381D01*
X55317Y243292D02*
X62683Y240836D01*
X60637Y246349D02*
X55317Y246349D01*
X60637Y246349D02*
X60726Y246351D01*
X60815Y246357D01*
X60904Y246367D01*
X60992Y246380D01*
X61080Y246397D01*
X61167Y246419D01*
X61252Y246444D01*
X61337Y246472D01*
X61420Y246505D01*
X61502Y246541D01*
X61582Y246580D01*
X61660Y246623D01*
X61736Y246669D01*
X61811Y246719D01*
X61883Y246772D01*
X61952Y246828D01*
X62019Y246887D01*
X62084Y246948D01*
X62145Y247013D01*
X62204Y247080D01*
X62260Y247149D01*
X62313Y247221D01*
X62363Y247296D01*
X62409Y247372D01*
X62452Y247450D01*
X62491Y247530D01*
X62527Y247612D01*
X62560Y247695D01*
X62588Y247780D01*
X62613Y247865D01*
X62635Y247952D01*
X62652Y248040D01*
X62665Y248128D01*
X62675Y248217D01*
X62681Y248306D01*
X62683Y248395D01*
X62681Y248484D01*
X62675Y248573D01*
X62665Y248662D01*
X62652Y248750D01*
X62635Y248838D01*
X62613Y248925D01*
X62588Y249010D01*
X62560Y249095D01*
X62527Y249178D01*
X62491Y249260D01*
X62452Y249340D01*
X62409Y249418D01*
X62363Y249494D01*
X62313Y249569D01*
X62260Y249641D01*
X62204Y249710D01*
X62145Y249777D01*
X62084Y249842D01*
X62019Y249903D01*
X61952Y249962D01*
X61883Y250018D01*
X61811Y250071D01*
X61736Y250121D01*
X61660Y250167D01*
X61582Y250210D01*
X61502Y250249D01*
X61420Y250285D01*
X61337Y250318D01*
X61252Y250346D01*
X61167Y250371D01*
X61080Y250393D01*
X60992Y250410D01*
X60904Y250423D01*
X60815Y250433D01*
X60726Y250439D01*
X60637Y250441D01*
X55317Y250441D01*
X61046Y257757D02*
X61124Y257755D01*
X61202Y257750D01*
X61279Y257740D01*
X61356Y257727D01*
X61432Y257711D01*
X61507Y257691D01*
X61581Y257667D01*
X61654Y257640D01*
X61726Y257609D01*
X61796Y257575D01*
X61865Y257538D01*
X61931Y257497D01*
X61996Y257453D01*
X62058Y257407D01*
X62118Y257357D01*
X62176Y257305D01*
X62231Y257250D01*
X62283Y257192D01*
X62333Y257132D01*
X62379Y257070D01*
X62423Y257005D01*
X62464Y256939D01*
X62501Y256870D01*
X62535Y256800D01*
X62566Y256728D01*
X62593Y256655D01*
X62617Y256581D01*
X62637Y256506D01*
X62653Y256430D01*
X62666Y256353D01*
X62676Y256276D01*
X62681Y256198D01*
X62683Y256120D01*
X62681Y256006D01*
X62676Y255893D01*
X62666Y255779D01*
X62653Y255666D01*
X62636Y255554D01*
X62616Y255442D01*
X62592Y255331D01*
X62564Y255220D01*
X62533Y255111D01*
X62498Y255003D01*
X62459Y254896D01*
X62417Y254790D01*
X62372Y254686D01*
X62323Y254583D01*
X62270Y254482D01*
X62215Y254383D01*
X62156Y254285D01*
X62094Y254190D01*
X62029Y254097D01*
X61961Y254005D01*
X61890Y253917D01*
X61816Y253830D01*
X61739Y253746D01*
X61660Y253665D01*
X56954Y253869D02*
X56876Y253871D01*
X56798Y253876D01*
X56721Y253886D01*
X56644Y253899D01*
X56568Y253915D01*
X56493Y253935D01*
X56419Y253959D01*
X56346Y253986D01*
X56274Y254017D01*
X56204Y254051D01*
X56136Y254088D01*
X56069Y254129D01*
X56004Y254173D01*
X55942Y254219D01*
X55882Y254269D01*
X55824Y254321D01*
X55769Y254376D01*
X55717Y254434D01*
X55667Y254494D01*
X55621Y254556D01*
X55577Y254621D01*
X55536Y254688D01*
X55499Y254756D01*
X55465Y254826D01*
X55434Y254898D01*
X55407Y254971D01*
X55383Y255045D01*
X55363Y255120D01*
X55347Y255196D01*
X55334Y255273D01*
X55324Y255350D01*
X55319Y255428D01*
X55317Y255506D01*
X55319Y255616D01*
X55325Y255725D01*
X55335Y255835D01*
X55348Y255943D01*
X55366Y256052D01*
X55387Y256159D01*
X55413Y256266D01*
X55442Y256372D01*
X55474Y256477D01*
X55511Y256580D01*
X55551Y256682D01*
X55595Y256783D01*
X55643Y256882D01*
X55693Y256979D01*
X55748Y257074D01*
X55806Y257167D01*
X55867Y257258D01*
X55931Y257347D01*
X58386Y254687D02*
X58344Y254621D01*
X58300Y254556D01*
X58252Y254494D01*
X58202Y254434D01*
X58149Y254376D01*
X58093Y254321D01*
X58035Y254268D01*
X57974Y254219D01*
X57911Y254172D01*
X57846Y254128D01*
X57779Y254088D01*
X57710Y254051D01*
X57639Y254017D01*
X57567Y253986D01*
X57493Y253959D01*
X57418Y253935D01*
X57343Y253915D01*
X57266Y253899D01*
X57189Y253886D01*
X57111Y253876D01*
X57032Y253871D01*
X56954Y253869D01*
X59613Y256938D02*
X59655Y257005D01*
X59699Y257070D01*
X59747Y257132D01*
X59797Y257192D01*
X59850Y257250D01*
X59906Y257305D01*
X59965Y257357D01*
X60025Y257407D01*
X60089Y257454D01*
X60154Y257497D01*
X60221Y257538D01*
X60290Y257575D01*
X60361Y257609D01*
X60433Y257640D01*
X60507Y257667D01*
X60581Y257691D01*
X60657Y257711D01*
X60734Y257727D01*
X60811Y257740D01*
X60889Y257750D01*
X60968Y257755D01*
X61046Y257757D01*
X59614Y256938D02*
X58386Y254687D01*
X58591Y261097D02*
X58591Y263143D01*
X58593Y263232D01*
X58599Y263321D01*
X58609Y263410D01*
X58622Y263498D01*
X58639Y263586D01*
X58661Y263673D01*
X58686Y263758D01*
X58714Y263843D01*
X58747Y263926D01*
X58783Y264008D01*
X58822Y264088D01*
X58865Y264166D01*
X58911Y264242D01*
X58961Y264317D01*
X59014Y264389D01*
X59070Y264458D01*
X59129Y264525D01*
X59190Y264590D01*
X59255Y264651D01*
X59322Y264710D01*
X59391Y264766D01*
X59463Y264819D01*
X59538Y264869D01*
X59614Y264915D01*
X59692Y264958D01*
X59772Y264997D01*
X59854Y265033D01*
X59937Y265066D01*
X60022Y265094D01*
X60107Y265119D01*
X60194Y265141D01*
X60282Y265158D01*
X60370Y265171D01*
X60459Y265181D01*
X60548Y265187D01*
X60637Y265189D01*
X60726Y265187D01*
X60815Y265181D01*
X60904Y265171D01*
X60992Y265158D01*
X61080Y265141D01*
X61167Y265119D01*
X61252Y265094D01*
X61337Y265066D01*
X61420Y265033D01*
X61502Y264997D01*
X61582Y264958D01*
X61660Y264915D01*
X61736Y264869D01*
X61811Y264819D01*
X61883Y264766D01*
X61952Y264710D01*
X62019Y264651D01*
X62084Y264590D01*
X62145Y264525D01*
X62204Y264458D01*
X62260Y264389D01*
X62313Y264317D01*
X62363Y264242D01*
X62409Y264166D01*
X62452Y264088D01*
X62491Y264008D01*
X62527Y263926D01*
X62560Y263843D01*
X62588Y263758D01*
X62613Y263673D01*
X62635Y263586D01*
X62652Y263498D01*
X62665Y263410D01*
X62675Y263321D01*
X62681Y263232D01*
X62683Y263143D01*
X62683Y261097D01*
X55317Y261097D01*
X55317Y263143D01*
X55319Y263222D01*
X55325Y263301D01*
X55334Y263380D01*
X55347Y263458D01*
X55365Y263535D01*
X55385Y263611D01*
X55410Y263686D01*
X55438Y263760D01*
X55469Y263833D01*
X55505Y263904D01*
X55543Y263973D01*
X55585Y264040D01*
X55630Y264105D01*
X55678Y264168D01*
X55729Y264229D01*
X55783Y264286D01*
X55839Y264342D01*
X55898Y264394D01*
X55960Y264444D01*
X56024Y264490D01*
X56090Y264534D01*
X56158Y264574D01*
X56228Y264610D01*
X56300Y264644D01*
X56374Y264674D01*
X56448Y264700D01*
X56524Y264723D01*
X56601Y264741D01*
X56678Y264757D01*
X56757Y264768D01*
X56835Y264776D01*
X56914Y264780D01*
X56994Y264780D01*
X57073Y264776D01*
X57151Y264768D01*
X57230Y264757D01*
X57307Y264741D01*
X57384Y264723D01*
X57460Y264700D01*
X57534Y264674D01*
X57608Y264644D01*
X57680Y264610D01*
X57750Y264574D01*
X57818Y264534D01*
X57884Y264490D01*
X57948Y264444D01*
X58010Y264394D01*
X58069Y264342D01*
X58125Y264286D01*
X58179Y264229D01*
X58230Y264168D01*
X58278Y264105D01*
X58323Y264040D01*
X58365Y263973D01*
X58403Y263904D01*
X58439Y263833D01*
X58470Y263760D01*
X58498Y263686D01*
X58523Y263611D01*
X58543Y263535D01*
X58561Y263458D01*
X58574Y263380D01*
X58583Y263301D01*
X58589Y263222D01*
X58591Y263143D01*
D11*
X49000Y254000D02*
X49000Y233000D01*
X49000Y224000D02*
X49000Y203000D01*
D10*
X33683Y270381D02*
X26317Y270381D01*
X26317Y272427D01*
X26319Y272516D01*
X26325Y272605D01*
X26335Y272694D01*
X26348Y272782D01*
X26365Y272870D01*
X26387Y272957D01*
X26412Y273042D01*
X26440Y273127D01*
X26473Y273210D01*
X26509Y273292D01*
X26548Y273372D01*
X26591Y273450D01*
X26637Y273526D01*
X26687Y273601D01*
X26740Y273673D01*
X26796Y273742D01*
X26855Y273809D01*
X26916Y273874D01*
X26981Y273935D01*
X27048Y273994D01*
X27117Y274050D01*
X27189Y274103D01*
X27264Y274153D01*
X27340Y274199D01*
X27418Y274242D01*
X27498Y274281D01*
X27580Y274317D01*
X27663Y274350D01*
X27748Y274378D01*
X27833Y274403D01*
X27920Y274425D01*
X28008Y274442D01*
X28096Y274455D01*
X28185Y274465D01*
X28274Y274471D01*
X28363Y274473D01*
X28452Y274471D01*
X28541Y274465D01*
X28630Y274455D01*
X28718Y274442D01*
X28806Y274425D01*
X28893Y274403D01*
X28978Y274378D01*
X29063Y274350D01*
X29146Y274317D01*
X29228Y274281D01*
X29308Y274242D01*
X29386Y274199D01*
X29462Y274153D01*
X29537Y274103D01*
X29609Y274050D01*
X29678Y273994D01*
X29745Y273935D01*
X29810Y273874D01*
X29871Y273809D01*
X29930Y273742D01*
X29986Y273673D01*
X30039Y273601D01*
X30089Y273526D01*
X30135Y273450D01*
X30178Y273372D01*
X30217Y273292D01*
X30253Y273210D01*
X30286Y273127D01*
X30314Y273042D01*
X30339Y272957D01*
X30361Y272870D01*
X30378Y272782D01*
X30391Y272694D01*
X30401Y272605D01*
X30407Y272516D01*
X30409Y272427D01*
X30409Y270381D01*
X26317Y277082D02*
X33683Y278719D01*
X28772Y280356D01*
X33683Y281993D01*
X26317Y283630D01*
X26317Y286896D02*
X33683Y286896D01*
X26317Y286896D02*
X26317Y288942D01*
X26319Y289031D01*
X26325Y289120D01*
X26335Y289209D01*
X26348Y289297D01*
X26365Y289385D01*
X26387Y289472D01*
X26412Y289557D01*
X26440Y289642D01*
X26473Y289725D01*
X26509Y289807D01*
X26548Y289887D01*
X26591Y289965D01*
X26637Y290041D01*
X26687Y290116D01*
X26740Y290188D01*
X26796Y290257D01*
X26855Y290324D01*
X26916Y290389D01*
X26981Y290450D01*
X27048Y290509D01*
X27117Y290565D01*
X27189Y290618D01*
X27264Y290668D01*
X27340Y290714D01*
X27418Y290757D01*
X27498Y290796D01*
X27580Y290832D01*
X27663Y290865D01*
X27748Y290893D01*
X27833Y290918D01*
X27920Y290940D01*
X28008Y290957D01*
X28096Y290970D01*
X28185Y290980D01*
X28274Y290986D01*
X28363Y290988D01*
X28452Y290986D01*
X28541Y290980D01*
X28630Y290970D01*
X28718Y290957D01*
X28806Y290940D01*
X28893Y290918D01*
X28978Y290893D01*
X29063Y290865D01*
X29146Y290832D01*
X29228Y290796D01*
X29308Y290757D01*
X29386Y290714D01*
X29462Y290668D01*
X29537Y290618D01*
X29609Y290565D01*
X29678Y290509D01*
X29745Y290450D01*
X29810Y290389D01*
X29871Y290324D01*
X29930Y290257D01*
X29986Y290188D01*
X30039Y290116D01*
X30089Y290041D01*
X30135Y289965D01*
X30178Y289887D01*
X30217Y289807D01*
X30253Y289725D01*
X30286Y289642D01*
X30314Y289557D01*
X30339Y289472D01*
X30361Y289385D01*
X30378Y289297D01*
X30391Y289209D01*
X30401Y289120D01*
X30407Y289031D01*
X30409Y288942D01*
X30409Y286896D01*
X30409Y289351D02*
X33683Y290988D01*
X33683Y300273D02*
X33681Y300351D01*
X33676Y300429D01*
X33666Y300506D01*
X33653Y300583D01*
X33637Y300659D01*
X33617Y300734D01*
X33593Y300808D01*
X33566Y300881D01*
X33535Y300953D01*
X33501Y301023D01*
X33464Y301092D01*
X33423Y301158D01*
X33379Y301223D01*
X33333Y301285D01*
X33283Y301345D01*
X33231Y301403D01*
X33176Y301458D01*
X33118Y301510D01*
X33058Y301560D01*
X32996Y301606D01*
X32931Y301650D01*
X32865Y301691D01*
X32796Y301728D01*
X32726Y301762D01*
X32654Y301793D01*
X32581Y301820D01*
X32507Y301844D01*
X32432Y301864D01*
X32356Y301880D01*
X32279Y301893D01*
X32202Y301903D01*
X32124Y301908D01*
X32046Y301910D01*
X33683Y300273D02*
X33681Y300159D01*
X33676Y300046D01*
X33666Y299932D01*
X33653Y299819D01*
X33636Y299707D01*
X33616Y299595D01*
X33592Y299484D01*
X33564Y299373D01*
X33533Y299264D01*
X33498Y299156D01*
X33459Y299049D01*
X33417Y298943D01*
X33372Y298839D01*
X33323Y298736D01*
X33270Y298635D01*
X33215Y298536D01*
X33156Y298438D01*
X33094Y298343D01*
X33029Y298250D01*
X32961Y298158D01*
X32890Y298070D01*
X32816Y297983D01*
X32739Y297899D01*
X32660Y297818D01*
X27954Y298022D02*
X27876Y298024D01*
X27798Y298029D01*
X27721Y298039D01*
X27644Y298052D01*
X27568Y298068D01*
X27493Y298088D01*
X27419Y298112D01*
X27346Y298139D01*
X27274Y298170D01*
X27204Y298204D01*
X27135Y298241D01*
X27069Y298282D01*
X27004Y298326D01*
X26942Y298372D01*
X26882Y298422D01*
X26824Y298474D01*
X26769Y298529D01*
X26717Y298587D01*
X26667Y298647D01*
X26621Y298709D01*
X26577Y298774D01*
X26536Y298841D01*
X26499Y298909D01*
X26465Y298979D01*
X26434Y299051D01*
X26407Y299124D01*
X26383Y299198D01*
X26363Y299273D01*
X26347Y299349D01*
X26334Y299426D01*
X26324Y299503D01*
X26319Y299581D01*
X26317Y299659D01*
X26319Y299769D01*
X26325Y299878D01*
X26335Y299988D01*
X26348Y300096D01*
X26366Y300205D01*
X26387Y300312D01*
X26413Y300419D01*
X26442Y300525D01*
X26474Y300630D01*
X26511Y300733D01*
X26551Y300835D01*
X26595Y300936D01*
X26643Y301035D01*
X26693Y301132D01*
X26748Y301227D01*
X26806Y301320D01*
X26867Y301411D01*
X26931Y301500D01*
X29386Y298840D02*
X29344Y298774D01*
X29300Y298709D01*
X29252Y298647D01*
X29202Y298587D01*
X29149Y298529D01*
X29093Y298474D01*
X29035Y298421D01*
X28974Y298372D01*
X28911Y298325D01*
X28846Y298281D01*
X28779Y298241D01*
X28710Y298204D01*
X28639Y298170D01*
X28567Y298139D01*
X28493Y298112D01*
X28418Y298088D01*
X28343Y298068D01*
X28266Y298052D01*
X28189Y298039D01*
X28111Y298029D01*
X28032Y298024D01*
X27954Y298022D01*
X30613Y301091D02*
X30655Y301158D01*
X30699Y301223D01*
X30747Y301285D01*
X30797Y301345D01*
X30850Y301403D01*
X30906Y301458D01*
X30965Y301510D01*
X31025Y301560D01*
X31089Y301607D01*
X31154Y301650D01*
X31221Y301691D01*
X31290Y301728D01*
X31361Y301762D01*
X31433Y301793D01*
X31507Y301820D01*
X31581Y301844D01*
X31657Y301864D01*
X31734Y301880D01*
X31811Y301893D01*
X31889Y301903D01*
X31968Y301908D01*
X32046Y301910D01*
X30614Y301091D02*
X29386Y298840D01*
X33683Y305148D02*
X33683Y308422D01*
X33683Y305148D02*
X26317Y305148D01*
X26317Y308422D01*
X29591Y307603D02*
X29591Y305148D01*
X26317Y311488D02*
X33683Y311488D01*
X33683Y314762D01*
X76317Y92395D02*
X83683Y92395D01*
X76317Y92395D02*
X76317Y94441D01*
X76319Y94530D01*
X76325Y94619D01*
X76335Y94708D01*
X76348Y94796D01*
X76365Y94884D01*
X76387Y94971D01*
X76412Y95056D01*
X76440Y95141D01*
X76473Y95224D01*
X76509Y95306D01*
X76548Y95386D01*
X76591Y95464D01*
X76637Y95540D01*
X76687Y95615D01*
X76740Y95687D01*
X76796Y95756D01*
X76855Y95823D01*
X76916Y95888D01*
X76981Y95949D01*
X77048Y96008D01*
X77117Y96064D01*
X77189Y96117D01*
X77264Y96167D01*
X77340Y96213D01*
X77418Y96256D01*
X77498Y96295D01*
X77580Y96331D01*
X77663Y96364D01*
X77748Y96392D01*
X77833Y96417D01*
X77920Y96439D01*
X78008Y96456D01*
X78096Y96469D01*
X78185Y96479D01*
X78274Y96485D01*
X78363Y96487D01*
X81637Y96487D01*
X81726Y96485D01*
X81815Y96479D01*
X81904Y96469D01*
X81992Y96456D01*
X82080Y96439D01*
X82167Y96417D01*
X82252Y96392D01*
X82337Y96364D01*
X82420Y96331D01*
X82502Y96295D01*
X82582Y96256D01*
X82660Y96213D01*
X82736Y96167D01*
X82811Y96117D01*
X82883Y96064D01*
X82952Y96008D01*
X83019Y95949D01*
X83084Y95888D01*
X83145Y95823D01*
X83204Y95756D01*
X83260Y95687D01*
X83313Y95615D01*
X83363Y95540D01*
X83409Y95464D01*
X83452Y95386D01*
X83491Y95306D01*
X83527Y95224D01*
X83560Y95141D01*
X83588Y95056D01*
X83613Y94971D01*
X83635Y94884D01*
X83652Y94796D01*
X83665Y94708D01*
X83675Y94619D01*
X83681Y94530D01*
X83683Y94441D01*
X83683Y92395D01*
X77954Y99954D02*
X76317Y102000D01*
X83683Y102000D01*
X83683Y99954D02*
X83683Y104046D01*
X80000Y107270D02*
X79847Y107272D01*
X79694Y107278D01*
X79542Y107287D01*
X79389Y107301D01*
X79237Y107318D01*
X79086Y107339D01*
X78935Y107364D01*
X78785Y107393D01*
X78635Y107425D01*
X78487Y107462D01*
X78339Y107502D01*
X78192Y107545D01*
X78047Y107593D01*
X77903Y107644D01*
X77760Y107698D01*
X77618Y107757D01*
X77479Y107818D01*
X77340Y107884D01*
X77340Y107883D02*
X77270Y107909D01*
X77200Y107939D01*
X77133Y107972D01*
X77067Y108008D01*
X77003Y108047D01*
X76941Y108090D01*
X76882Y108136D01*
X76824Y108184D01*
X76770Y108235D01*
X76717Y108289D01*
X76668Y108346D01*
X76621Y108405D01*
X76578Y108466D01*
X76537Y108529D01*
X76500Y108594D01*
X76465Y108661D01*
X76435Y108730D01*
X76407Y108800D01*
X76384Y108871D01*
X76363Y108943D01*
X76347Y109016D01*
X76334Y109090D01*
X76324Y109165D01*
X76319Y109240D01*
X76317Y109315D01*
X76319Y109390D01*
X76324Y109465D01*
X76334Y109540D01*
X76347Y109614D01*
X76363Y109687D01*
X76384Y109759D01*
X76407Y109830D01*
X76435Y109900D01*
X76465Y109969D01*
X76500Y110036D01*
X76537Y110101D01*
X76578Y110164D01*
X76621Y110225D01*
X76668Y110284D01*
X76717Y110341D01*
X76770Y110395D01*
X76824Y110446D01*
X76882Y110495D01*
X76941Y110540D01*
X77003Y110583D01*
X77067Y110622D01*
X77133Y110659D01*
X77201Y110691D01*
X77270Y110721D01*
X77340Y110747D01*
X77340Y110748D02*
X77478Y110813D01*
X77618Y110875D01*
X77760Y110933D01*
X77903Y110988D01*
X78047Y111039D01*
X78192Y111087D01*
X78339Y111130D01*
X78486Y111170D01*
X78635Y111207D01*
X78785Y111239D01*
X78935Y111268D01*
X79086Y111293D01*
X79237Y111314D01*
X79389Y111331D01*
X79542Y111345D01*
X79694Y111354D01*
X79847Y111360D01*
X80000Y111362D01*
X80000Y107270D02*
X80153Y107272D01*
X80306Y107278D01*
X80458Y107287D01*
X80611Y107301D01*
X80763Y107318D01*
X80914Y107339D01*
X81065Y107364D01*
X81215Y107393D01*
X81365Y107425D01*
X81513Y107462D01*
X81661Y107502D01*
X81808Y107545D01*
X81953Y107593D01*
X82097Y107644D01*
X82240Y107698D01*
X82382Y107757D01*
X82521Y107818D01*
X82660Y107884D01*
X82660Y107883D02*
X82731Y107909D01*
X82800Y107939D01*
X82867Y107972D01*
X82933Y108008D01*
X82997Y108047D01*
X83059Y108090D01*
X83118Y108136D01*
X83176Y108184D01*
X83230Y108235D01*
X83283Y108289D01*
X83332Y108346D01*
X83379Y108405D01*
X83422Y108466D01*
X83463Y108529D01*
X83500Y108594D01*
X83535Y108661D01*
X83565Y108730D01*
X83593Y108800D01*
X83616Y108871D01*
X83637Y108943D01*
X83653Y109016D01*
X83666Y109090D01*
X83676Y109165D01*
X83681Y109240D01*
X83683Y109315D01*
X82660Y110748D02*
X82522Y110813D01*
X82382Y110875D01*
X82240Y110933D01*
X82097Y110988D01*
X81953Y111039D01*
X81808Y111087D01*
X81661Y111130D01*
X81514Y111170D01*
X81365Y111207D01*
X81215Y111239D01*
X81065Y111268D01*
X80914Y111293D01*
X80763Y111314D01*
X80611Y111331D01*
X80458Y111345D01*
X80306Y111354D01*
X80153Y111360D01*
X80000Y111362D01*
X82660Y110747D02*
X82730Y110721D01*
X82800Y110691D01*
X82867Y110658D01*
X82933Y110622D01*
X82997Y110583D01*
X83059Y110540D01*
X83118Y110494D01*
X83176Y110446D01*
X83230Y110395D01*
X83283Y110341D01*
X83332Y110284D01*
X83379Y110225D01*
X83422Y110164D01*
X83463Y110101D01*
X83500Y110036D01*
X83535Y109969D01*
X83565Y109900D01*
X83593Y109830D01*
X83616Y109759D01*
X83637Y109687D01*
X83653Y109614D01*
X83666Y109540D01*
X83676Y109465D01*
X83681Y109390D01*
X83683Y109315D01*
X82046Y107679D02*
X77954Y110952D01*
X75089Y118338D02*
X84911Y118338D01*
X83683Y126872D02*
X76317Y126872D01*
X76317Y124826D02*
X76317Y128918D01*
X76317Y136155D02*
X83683Y131244D01*
X83683Y136155D02*
X76317Y131244D01*
X75089Y142722D02*
X84911Y142722D01*
X83683Y149941D02*
X76317Y149941D01*
X76317Y151987D01*
X76319Y152076D01*
X76325Y152165D01*
X76335Y152254D01*
X76348Y152342D01*
X76365Y152430D01*
X76387Y152517D01*
X76412Y152602D01*
X76440Y152687D01*
X76473Y152770D01*
X76509Y152852D01*
X76548Y152932D01*
X76591Y153010D01*
X76637Y153086D01*
X76687Y153161D01*
X76740Y153233D01*
X76796Y153302D01*
X76855Y153369D01*
X76916Y153434D01*
X76981Y153495D01*
X77048Y153554D01*
X77117Y153610D01*
X77189Y153663D01*
X77264Y153713D01*
X77340Y153759D01*
X77418Y153802D01*
X77498Y153841D01*
X77580Y153877D01*
X77663Y153910D01*
X77748Y153938D01*
X77833Y153963D01*
X77920Y153985D01*
X78008Y154002D01*
X78096Y154015D01*
X78185Y154025D01*
X78274Y154031D01*
X78363Y154033D01*
X78363Y154034D02*
X81637Y154034D01*
X81637Y154033D02*
X81726Y154031D01*
X81815Y154025D01*
X81904Y154015D01*
X81992Y154002D01*
X82080Y153985D01*
X82167Y153963D01*
X82252Y153938D01*
X82337Y153910D01*
X82420Y153877D01*
X82502Y153841D01*
X82582Y153802D01*
X82660Y153759D01*
X82736Y153713D01*
X82811Y153663D01*
X82883Y153610D01*
X82952Y153554D01*
X83019Y153495D01*
X83084Y153434D01*
X83145Y153369D01*
X83204Y153302D01*
X83260Y153233D01*
X83313Y153161D01*
X83363Y153086D01*
X83409Y153010D01*
X83452Y152932D01*
X83491Y152852D01*
X83527Y152770D01*
X83560Y152687D01*
X83588Y152602D01*
X83613Y152517D01*
X83635Y152430D01*
X83652Y152342D01*
X83665Y152254D01*
X83675Y152165D01*
X83681Y152076D01*
X83683Y151987D01*
X83683Y149941D01*
X81637Y157500D02*
X81548Y157502D01*
X81459Y157508D01*
X81370Y157518D01*
X81282Y157531D01*
X81194Y157548D01*
X81107Y157570D01*
X81022Y157595D01*
X80937Y157623D01*
X80854Y157656D01*
X80772Y157692D01*
X80692Y157731D01*
X80614Y157774D01*
X80538Y157820D01*
X80463Y157870D01*
X80391Y157923D01*
X80322Y157979D01*
X80255Y158038D01*
X80190Y158099D01*
X80129Y158164D01*
X80070Y158231D01*
X80014Y158300D01*
X79961Y158372D01*
X79911Y158447D01*
X79865Y158523D01*
X79822Y158601D01*
X79783Y158681D01*
X79747Y158763D01*
X79714Y158846D01*
X79686Y158931D01*
X79661Y159016D01*
X79639Y159103D01*
X79622Y159191D01*
X79609Y159279D01*
X79599Y159368D01*
X79593Y159457D01*
X79591Y159546D01*
X79593Y159635D01*
X79599Y159724D01*
X79609Y159813D01*
X79622Y159901D01*
X79639Y159989D01*
X79661Y160076D01*
X79686Y160161D01*
X79714Y160246D01*
X79747Y160329D01*
X79783Y160411D01*
X79822Y160491D01*
X79865Y160569D01*
X79911Y160645D01*
X79961Y160720D01*
X80014Y160792D01*
X80070Y160861D01*
X80129Y160928D01*
X80190Y160993D01*
X80255Y161054D01*
X80322Y161113D01*
X80391Y161169D01*
X80463Y161222D01*
X80538Y161272D01*
X80614Y161318D01*
X80692Y161361D01*
X80772Y161400D01*
X80854Y161436D01*
X80937Y161469D01*
X81022Y161497D01*
X81107Y161522D01*
X81194Y161544D01*
X81282Y161561D01*
X81370Y161574D01*
X81459Y161584D01*
X81548Y161590D01*
X81637Y161592D01*
X81726Y161590D01*
X81815Y161584D01*
X81904Y161574D01*
X81992Y161561D01*
X82080Y161544D01*
X82167Y161522D01*
X82252Y161497D01*
X82337Y161469D01*
X82420Y161436D01*
X82502Y161400D01*
X82582Y161361D01*
X82660Y161318D01*
X82736Y161272D01*
X82811Y161222D01*
X82883Y161169D01*
X82952Y161113D01*
X83019Y161054D01*
X83084Y160993D01*
X83145Y160928D01*
X83204Y160861D01*
X83260Y160792D01*
X83313Y160720D01*
X83363Y160645D01*
X83409Y160569D01*
X83452Y160491D01*
X83491Y160411D01*
X83527Y160329D01*
X83560Y160246D01*
X83588Y160161D01*
X83613Y160076D01*
X83635Y159989D01*
X83652Y159901D01*
X83665Y159813D01*
X83675Y159724D01*
X83681Y159635D01*
X83683Y159546D01*
X83681Y159457D01*
X83675Y159368D01*
X83665Y159279D01*
X83652Y159191D01*
X83635Y159103D01*
X83613Y159016D01*
X83588Y158931D01*
X83560Y158846D01*
X83527Y158763D01*
X83491Y158681D01*
X83452Y158601D01*
X83409Y158523D01*
X83363Y158447D01*
X83313Y158372D01*
X83260Y158300D01*
X83204Y158231D01*
X83145Y158164D01*
X83084Y158099D01*
X83019Y158038D01*
X82952Y157979D01*
X82883Y157923D01*
X82811Y157870D01*
X82736Y157820D01*
X82660Y157774D01*
X82582Y157731D01*
X82502Y157692D01*
X82420Y157656D01*
X82337Y157623D01*
X82252Y157595D01*
X82167Y157570D01*
X82080Y157548D01*
X81992Y157531D01*
X81904Y157518D01*
X81815Y157508D01*
X81726Y157502D01*
X81637Y157500D01*
X77954Y157909D02*
X77875Y157911D01*
X77796Y157917D01*
X77717Y157926D01*
X77639Y157939D01*
X77562Y157957D01*
X77486Y157977D01*
X77411Y158002D01*
X77337Y158030D01*
X77264Y158061D01*
X77193Y158097D01*
X77124Y158135D01*
X77057Y158177D01*
X76992Y158222D01*
X76929Y158270D01*
X76868Y158321D01*
X76811Y158375D01*
X76755Y158431D01*
X76703Y158490D01*
X76653Y158552D01*
X76607Y158616D01*
X76563Y158682D01*
X76523Y158750D01*
X76487Y158820D01*
X76453Y158892D01*
X76423Y158966D01*
X76397Y159040D01*
X76374Y159116D01*
X76356Y159193D01*
X76340Y159270D01*
X76329Y159349D01*
X76321Y159427D01*
X76317Y159506D01*
X76317Y159586D01*
X76321Y159665D01*
X76329Y159743D01*
X76340Y159822D01*
X76356Y159899D01*
X76374Y159976D01*
X76397Y160052D01*
X76423Y160126D01*
X76453Y160200D01*
X76487Y160272D01*
X76523Y160342D01*
X76563Y160410D01*
X76607Y160476D01*
X76653Y160540D01*
X76703Y160602D01*
X76755Y160661D01*
X76811Y160717D01*
X76868Y160771D01*
X76929Y160822D01*
X76992Y160870D01*
X77057Y160915D01*
X77124Y160957D01*
X77193Y160995D01*
X77264Y161031D01*
X77337Y161062D01*
X77411Y161090D01*
X77486Y161115D01*
X77562Y161135D01*
X77639Y161153D01*
X77717Y161166D01*
X77796Y161175D01*
X77875Y161181D01*
X77954Y161183D01*
X78033Y161181D01*
X78112Y161175D01*
X78191Y161166D01*
X78269Y161153D01*
X78346Y161135D01*
X78422Y161115D01*
X78497Y161090D01*
X78571Y161062D01*
X78644Y161031D01*
X78715Y160995D01*
X78784Y160957D01*
X78851Y160915D01*
X78916Y160870D01*
X78979Y160822D01*
X79040Y160771D01*
X79097Y160717D01*
X79153Y160661D01*
X79205Y160602D01*
X79255Y160540D01*
X79301Y160476D01*
X79345Y160410D01*
X79385Y160342D01*
X79421Y160272D01*
X79455Y160200D01*
X79485Y160126D01*
X79511Y160052D01*
X79534Y159976D01*
X79552Y159899D01*
X79568Y159822D01*
X79579Y159743D01*
X79587Y159665D01*
X79591Y159586D01*
X79591Y159506D01*
X79587Y159427D01*
X79579Y159349D01*
X79568Y159270D01*
X79552Y159193D01*
X79534Y159116D01*
X79511Y159040D01*
X79485Y158966D01*
X79455Y158892D01*
X79421Y158820D01*
X79385Y158750D01*
X79345Y158682D01*
X79301Y158616D01*
X79255Y158552D01*
X79205Y158490D01*
X79153Y158431D01*
X79097Y158375D01*
X79040Y158321D01*
X78979Y158270D01*
X78916Y158222D01*
X78851Y158177D01*
X78784Y158135D01*
X78715Y158097D01*
X78644Y158061D01*
X78571Y158030D01*
X78497Y158002D01*
X78422Y157977D01*
X78346Y157957D01*
X78269Y157939D01*
X78191Y157926D01*
X78112Y157917D01*
X78033Y157911D01*
X77954Y157909D01*
X75089Y168569D02*
X84911Y168569D01*
X83683Y175839D02*
X76317Y175839D01*
X76317Y177886D01*
X76319Y177975D01*
X76325Y178064D01*
X76335Y178153D01*
X76348Y178241D01*
X76365Y178329D01*
X76387Y178416D01*
X76412Y178501D01*
X76440Y178586D01*
X76473Y178669D01*
X76509Y178751D01*
X76548Y178831D01*
X76591Y178909D01*
X76637Y178985D01*
X76687Y179060D01*
X76740Y179132D01*
X76796Y179201D01*
X76855Y179268D01*
X76916Y179333D01*
X76981Y179394D01*
X77048Y179453D01*
X77117Y179509D01*
X77189Y179562D01*
X77264Y179612D01*
X77340Y179658D01*
X77418Y179701D01*
X77498Y179740D01*
X77580Y179776D01*
X77663Y179809D01*
X77748Y179837D01*
X77833Y179862D01*
X77920Y179884D01*
X78008Y179901D01*
X78096Y179914D01*
X78185Y179924D01*
X78274Y179930D01*
X78363Y179932D01*
X78452Y179930D01*
X78541Y179924D01*
X78630Y179914D01*
X78718Y179901D01*
X78806Y179884D01*
X78893Y179862D01*
X78978Y179837D01*
X79063Y179809D01*
X79146Y179776D01*
X79228Y179740D01*
X79308Y179701D01*
X79386Y179658D01*
X79462Y179612D01*
X79537Y179562D01*
X79609Y179509D01*
X79678Y179453D01*
X79745Y179394D01*
X79810Y179333D01*
X79871Y179268D01*
X79930Y179201D01*
X79986Y179132D01*
X80039Y179060D01*
X80089Y178985D01*
X80135Y178909D01*
X80178Y178831D01*
X80217Y178751D01*
X80253Y178669D01*
X80286Y178586D01*
X80314Y178501D01*
X80339Y178416D01*
X80361Y178329D01*
X80378Y178241D01*
X80391Y178153D01*
X80401Y178064D01*
X80407Y177975D01*
X80409Y177886D01*
X80409Y175839D01*
X80409Y178295D02*
X83683Y179932D01*
X83683Y182694D02*
X76317Y187605D01*
X76317Y182694D02*
X83683Y187605D01*
D12*
X72750Y108250D02*
X72750Y95550D01*
M02*
