G04 EAGLE Gerber RS-274X export*
G75*
%MOMM*%
%FSLAX34Y34*%
%LPD*%
%INSilkscreen Bottom*%
%IPPOS*%
%AMOC8*
5,1,8,0,0,1.08239X$1,22.5*%
G01*
G04 Define Apertures*
%ADD10C,0.076200*%
%ADD11C,0.203200*%
D10*
X364699Y147547D02*
X366787Y147547D01*
X366787Y150158D02*
X364699Y150158D01*
X358956Y155251D02*
X358956Y157601D01*
X358955Y155251D02*
X358953Y155167D01*
X358947Y155082D01*
X358937Y154999D01*
X358924Y154915D01*
X358906Y154833D01*
X358885Y154751D01*
X358860Y154670D01*
X358832Y154591D01*
X358799Y154513D01*
X358763Y154437D01*
X358724Y154362D01*
X358681Y154289D01*
X358635Y154218D01*
X358586Y154150D01*
X358534Y154084D01*
X358478Y154020D01*
X358420Y153959D01*
X358359Y153901D01*
X358295Y153845D01*
X358229Y153793D01*
X358161Y153744D01*
X358090Y153698D01*
X358017Y153655D01*
X357942Y153616D01*
X357866Y153580D01*
X357788Y153547D01*
X357709Y153519D01*
X357628Y153494D01*
X357546Y153473D01*
X357464Y153455D01*
X357380Y153442D01*
X357297Y153432D01*
X357212Y153426D01*
X357128Y153424D01*
X357044Y153426D01*
X356959Y153432D01*
X356876Y153442D01*
X356792Y153455D01*
X356710Y153473D01*
X356628Y153494D01*
X356547Y153519D01*
X356468Y153547D01*
X356390Y153580D01*
X356314Y153616D01*
X356239Y153655D01*
X356166Y153698D01*
X356095Y153744D01*
X356027Y153793D01*
X355961Y153845D01*
X355897Y153901D01*
X355836Y153959D01*
X355778Y154020D01*
X355722Y154084D01*
X355670Y154150D01*
X355621Y154218D01*
X355575Y154289D01*
X355532Y154362D01*
X355493Y154437D01*
X355457Y154513D01*
X355424Y154591D01*
X355396Y154670D01*
X355371Y154751D01*
X355350Y154833D01*
X355332Y154915D01*
X355319Y154999D01*
X355309Y155082D01*
X355303Y155167D01*
X355301Y155251D01*
X355301Y157601D01*
X360000Y157601D01*
X360000Y157600D02*
X360077Y157598D01*
X360153Y157592D01*
X360230Y157583D01*
X360306Y157570D01*
X360381Y157553D01*
X360455Y157533D01*
X360528Y157508D01*
X360599Y157481D01*
X360670Y157450D01*
X360738Y157415D01*
X360805Y157377D01*
X360870Y157336D01*
X360933Y157292D01*
X360993Y157245D01*
X361052Y157194D01*
X361107Y157141D01*
X361160Y157086D01*
X361211Y157027D01*
X361258Y156967D01*
X361302Y156904D01*
X361343Y156839D01*
X361381Y156772D01*
X361416Y156704D01*
X361447Y156633D01*
X361474Y156562D01*
X361499Y156489D01*
X361519Y156415D01*
X361536Y156340D01*
X361549Y156264D01*
X361558Y156187D01*
X361564Y156111D01*
X361566Y156034D01*
X361566Y153946D01*
X354257Y166271D02*
X354257Y170448D01*
X354257Y173586D02*
X354257Y177763D01*
X354257Y180901D02*
X354257Y185078D01*
X355301Y195486D02*
X364699Y195486D01*
X364699Y192876D02*
X364699Y198097D01*
X364699Y201627D02*
X355301Y201627D01*
X361566Y201627D02*
X361566Y204238D01*
X361564Y204315D01*
X361558Y204391D01*
X361549Y204468D01*
X361536Y204544D01*
X361519Y204619D01*
X361499Y204693D01*
X361474Y204766D01*
X361447Y204837D01*
X361416Y204908D01*
X361381Y204976D01*
X361343Y205043D01*
X361302Y205108D01*
X361258Y205171D01*
X361211Y205231D01*
X361160Y205290D01*
X361107Y205345D01*
X361052Y205398D01*
X360993Y205449D01*
X360933Y205496D01*
X360870Y205540D01*
X360805Y205581D01*
X360738Y205619D01*
X360670Y205654D01*
X360599Y205685D01*
X360528Y205712D01*
X360455Y205737D01*
X360381Y205757D01*
X360306Y205774D01*
X360230Y205787D01*
X360153Y205796D01*
X360077Y205802D01*
X360000Y205804D01*
X355301Y205804D01*
X355301Y209812D02*
X361566Y209812D01*
X364177Y209551D02*
X364699Y209551D01*
X364699Y210073D01*
X364177Y210073D01*
X364177Y209551D01*
X361566Y213819D02*
X355301Y213819D01*
X361566Y213819D02*
X361566Y216430D01*
X361564Y216507D01*
X361558Y216583D01*
X361549Y216660D01*
X361536Y216736D01*
X361519Y216811D01*
X361499Y216885D01*
X361474Y216958D01*
X361447Y217029D01*
X361416Y217100D01*
X361381Y217168D01*
X361343Y217235D01*
X361302Y217300D01*
X361258Y217363D01*
X361211Y217423D01*
X361160Y217482D01*
X361107Y217537D01*
X361052Y217590D01*
X360993Y217641D01*
X360933Y217688D01*
X360870Y217732D01*
X360805Y217773D01*
X360738Y217811D01*
X360670Y217846D01*
X360599Y217877D01*
X360528Y217904D01*
X360455Y217929D01*
X360381Y217949D01*
X360306Y217966D01*
X360230Y217979D01*
X360153Y217988D01*
X360077Y217994D01*
X360000Y217996D01*
X355301Y217996D01*
X355301Y223570D02*
X355301Y226180D01*
X355301Y223570D02*
X355303Y223493D01*
X355309Y223417D01*
X355318Y223340D01*
X355331Y223264D01*
X355348Y223189D01*
X355368Y223115D01*
X355393Y223042D01*
X355420Y222971D01*
X355451Y222900D01*
X355486Y222832D01*
X355524Y222765D01*
X355565Y222700D01*
X355609Y222637D01*
X355656Y222577D01*
X355707Y222518D01*
X355760Y222463D01*
X355815Y222410D01*
X355874Y222359D01*
X355934Y222312D01*
X355997Y222268D01*
X356062Y222227D01*
X356129Y222189D01*
X356197Y222154D01*
X356268Y222123D01*
X356339Y222096D01*
X356412Y222071D01*
X356486Y222051D01*
X356561Y222034D01*
X356637Y222021D01*
X356714Y222012D01*
X356790Y222006D01*
X356867Y222004D01*
X356867Y222003D02*
X360000Y222003D01*
X360000Y222004D02*
X360077Y222006D01*
X360153Y222012D01*
X360230Y222021D01*
X360306Y222034D01*
X360381Y222051D01*
X360455Y222071D01*
X360528Y222096D01*
X360599Y222123D01*
X360670Y222154D01*
X360738Y222189D01*
X360805Y222227D01*
X360870Y222268D01*
X360933Y222312D01*
X360993Y222359D01*
X361052Y222410D01*
X361107Y222463D01*
X361160Y222518D01*
X361211Y222577D01*
X361258Y222637D01*
X361302Y222700D01*
X361343Y222765D01*
X361381Y222832D01*
X361416Y222900D01*
X361447Y222971D01*
X361474Y223042D01*
X361499Y223115D01*
X361519Y223189D01*
X361536Y223264D01*
X361549Y223340D01*
X361558Y223417D01*
X361564Y223493D01*
X361566Y223570D01*
X361566Y226180D01*
X353735Y226180D01*
X353658Y226178D01*
X353582Y226172D01*
X353505Y226163D01*
X353429Y226150D01*
X353354Y226133D01*
X353280Y226113D01*
X353207Y226088D01*
X353136Y226061D01*
X353065Y226030D01*
X352997Y225995D01*
X352930Y225957D01*
X352865Y225916D01*
X352802Y225872D01*
X352742Y225825D01*
X352683Y225774D01*
X352628Y225721D01*
X352575Y225666D01*
X352524Y225607D01*
X352477Y225547D01*
X352433Y225484D01*
X352392Y225419D01*
X352354Y225352D01*
X352319Y225284D01*
X352288Y225213D01*
X352261Y225142D01*
X352236Y225069D01*
X352216Y224995D01*
X352199Y224920D01*
X352186Y224844D01*
X352177Y224768D01*
X352171Y224691D01*
X352169Y224614D01*
X352168Y224614D02*
X352168Y222525D01*
X364699Y229842D02*
X366787Y229842D01*
X366787Y232453D02*
X364699Y232453D01*
X264186Y340301D02*
X264186Y346566D01*
X259487Y346566D01*
X259410Y346564D01*
X259334Y346558D01*
X259257Y346549D01*
X259181Y346536D01*
X259106Y346519D01*
X259032Y346499D01*
X258959Y346474D01*
X258888Y346447D01*
X258817Y346416D01*
X258749Y346381D01*
X258682Y346343D01*
X258617Y346302D01*
X258554Y346258D01*
X258494Y346211D01*
X258435Y346160D01*
X258380Y346107D01*
X258327Y346052D01*
X258276Y345993D01*
X258229Y345933D01*
X258185Y345870D01*
X258144Y345805D01*
X258106Y345738D01*
X258071Y345670D01*
X258040Y345599D01*
X258013Y345528D01*
X257988Y345455D01*
X257968Y345381D01*
X257951Y345306D01*
X257938Y345230D01*
X257929Y345153D01*
X257923Y345077D01*
X257921Y345000D01*
X257921Y340301D01*
X261054Y340301D02*
X261054Y346566D01*
X253693Y344478D02*
X253693Y342389D01*
X253693Y344478D02*
X253691Y344568D01*
X253685Y344657D01*
X253676Y344747D01*
X253662Y344836D01*
X253645Y344924D01*
X253624Y345011D01*
X253599Y345098D01*
X253570Y345183D01*
X253538Y345267D01*
X253503Y345349D01*
X253463Y345430D01*
X253421Y345509D01*
X253375Y345586D01*
X253325Y345661D01*
X253273Y345734D01*
X253217Y345805D01*
X253159Y345873D01*
X253097Y345938D01*
X253033Y346001D01*
X252966Y346061D01*
X252897Y346118D01*
X252825Y346172D01*
X252751Y346223D01*
X252675Y346271D01*
X252597Y346315D01*
X252517Y346356D01*
X252435Y346394D01*
X252352Y346428D01*
X252267Y346458D01*
X252181Y346485D01*
X252095Y346508D01*
X252007Y346527D01*
X251918Y346542D01*
X251829Y346554D01*
X251740Y346562D01*
X251650Y346566D01*
X251560Y346566D01*
X251470Y346562D01*
X251381Y346554D01*
X251292Y346542D01*
X251203Y346527D01*
X251115Y346508D01*
X251029Y346485D01*
X250943Y346458D01*
X250858Y346428D01*
X250775Y346394D01*
X250693Y346356D01*
X250613Y346315D01*
X250535Y346271D01*
X250459Y346223D01*
X250385Y346172D01*
X250313Y346118D01*
X250244Y346061D01*
X250177Y346001D01*
X250113Y345938D01*
X250051Y345873D01*
X249993Y345805D01*
X249937Y345734D01*
X249885Y345661D01*
X249835Y345586D01*
X249789Y345509D01*
X249747Y345430D01*
X249707Y345349D01*
X249672Y345267D01*
X249640Y345183D01*
X249611Y345098D01*
X249586Y345011D01*
X249565Y344924D01*
X249548Y344836D01*
X249534Y344747D01*
X249525Y344657D01*
X249519Y344568D01*
X249517Y344478D01*
X249516Y344478D02*
X249516Y342389D01*
X249517Y342389D02*
X249519Y342299D01*
X249525Y342210D01*
X249534Y342120D01*
X249548Y342031D01*
X249565Y341943D01*
X249586Y341856D01*
X249611Y341769D01*
X249640Y341684D01*
X249672Y341600D01*
X249707Y341518D01*
X249747Y341437D01*
X249789Y341358D01*
X249835Y341281D01*
X249885Y341206D01*
X249937Y341133D01*
X249993Y341062D01*
X250051Y340994D01*
X250113Y340929D01*
X250177Y340866D01*
X250244Y340806D01*
X250313Y340749D01*
X250385Y340695D01*
X250459Y340644D01*
X250535Y340596D01*
X250613Y340552D01*
X250693Y340511D01*
X250775Y340473D01*
X250858Y340439D01*
X250943Y340409D01*
X251029Y340382D01*
X251115Y340359D01*
X251203Y340340D01*
X251292Y340325D01*
X251381Y340313D01*
X251470Y340305D01*
X251560Y340301D01*
X251650Y340301D01*
X251740Y340305D01*
X251829Y340313D01*
X251918Y340325D01*
X252007Y340340D01*
X252095Y340359D01*
X252181Y340382D01*
X252267Y340409D01*
X252352Y340439D01*
X252435Y340473D01*
X252517Y340511D01*
X252597Y340552D01*
X252675Y340596D01*
X252751Y340644D01*
X252825Y340695D01*
X252897Y340749D01*
X252966Y340806D01*
X253033Y340866D01*
X253097Y340929D01*
X253159Y340994D01*
X253217Y341062D01*
X253273Y341133D01*
X253325Y341206D01*
X253375Y341281D01*
X253421Y341358D01*
X253463Y341437D01*
X253503Y341518D01*
X253538Y341600D01*
X253570Y341684D01*
X253599Y341769D01*
X253624Y341856D01*
X253645Y341943D01*
X253662Y342031D01*
X253676Y342120D01*
X253685Y342210D01*
X253691Y342299D01*
X253693Y342389D01*
X241637Y340301D02*
X241637Y349699D01*
X241637Y340301D02*
X244248Y340301D01*
X244325Y340303D01*
X244401Y340309D01*
X244478Y340318D01*
X244554Y340331D01*
X244629Y340348D01*
X244703Y340368D01*
X244776Y340393D01*
X244847Y340420D01*
X244918Y340451D01*
X244986Y340486D01*
X245053Y340524D01*
X245118Y340565D01*
X245181Y340609D01*
X245241Y340656D01*
X245300Y340707D01*
X245355Y340760D01*
X245408Y340815D01*
X245459Y340874D01*
X245506Y340934D01*
X245550Y340997D01*
X245591Y341062D01*
X245629Y341129D01*
X245664Y341197D01*
X245695Y341268D01*
X245722Y341339D01*
X245747Y341412D01*
X245767Y341486D01*
X245784Y341561D01*
X245797Y341637D01*
X245806Y341714D01*
X245812Y341790D01*
X245814Y341867D01*
X245814Y345000D01*
X245812Y345077D01*
X245806Y345153D01*
X245797Y345230D01*
X245784Y345306D01*
X245767Y345381D01*
X245747Y345455D01*
X245722Y345528D01*
X245695Y345599D01*
X245664Y345670D01*
X245629Y345738D01*
X245591Y345805D01*
X245550Y345870D01*
X245506Y345933D01*
X245459Y345993D01*
X245408Y346052D01*
X245355Y346107D01*
X245300Y346160D01*
X245241Y346211D01*
X245181Y346258D01*
X245118Y346302D01*
X245053Y346343D01*
X244986Y346381D01*
X244918Y346416D01*
X244847Y346447D01*
X244776Y346474D01*
X244703Y346499D01*
X244629Y346519D01*
X244554Y346536D01*
X244478Y346549D01*
X244401Y346558D01*
X244325Y346564D01*
X244248Y346566D01*
X241637Y346566D01*
X237234Y346566D02*
X237234Y341867D01*
X237232Y341790D01*
X237226Y341714D01*
X237217Y341637D01*
X237204Y341561D01*
X237187Y341486D01*
X237167Y341412D01*
X237142Y341339D01*
X237115Y341268D01*
X237084Y341197D01*
X237049Y341129D01*
X237011Y341062D01*
X236970Y340997D01*
X236926Y340934D01*
X236879Y340874D01*
X236828Y340815D01*
X236775Y340760D01*
X236720Y340707D01*
X236661Y340656D01*
X236601Y340609D01*
X236538Y340565D01*
X236473Y340524D01*
X236406Y340486D01*
X236338Y340451D01*
X236267Y340420D01*
X236196Y340393D01*
X236123Y340368D01*
X236049Y340348D01*
X235974Y340331D01*
X235898Y340318D01*
X235821Y340309D01*
X235745Y340303D01*
X235668Y340301D01*
X233057Y340301D01*
X233057Y346566D01*
X228879Y349699D02*
X228879Y341867D01*
X228877Y341790D01*
X228871Y341714D01*
X228862Y341637D01*
X228849Y341561D01*
X228832Y341486D01*
X228812Y341412D01*
X228787Y341339D01*
X228760Y341268D01*
X228729Y341197D01*
X228694Y341129D01*
X228656Y341062D01*
X228615Y340997D01*
X228571Y340934D01*
X228524Y340874D01*
X228473Y340815D01*
X228420Y340760D01*
X228365Y340707D01*
X228306Y340656D01*
X228246Y340609D01*
X228183Y340565D01*
X228118Y340524D01*
X228051Y340486D01*
X227983Y340451D01*
X227912Y340420D01*
X227841Y340393D01*
X227768Y340368D01*
X227694Y340348D01*
X227619Y340331D01*
X227543Y340318D01*
X227466Y340309D01*
X227390Y340303D01*
X227313Y340301D01*
X222346Y343956D02*
X219997Y343956D01*
X222346Y343955D02*
X222430Y343953D01*
X222515Y343947D01*
X222598Y343937D01*
X222682Y343924D01*
X222764Y343906D01*
X222846Y343885D01*
X222927Y343860D01*
X223006Y343832D01*
X223084Y343799D01*
X223160Y343763D01*
X223235Y343724D01*
X223308Y343681D01*
X223379Y343635D01*
X223447Y343586D01*
X223513Y343534D01*
X223577Y343478D01*
X223638Y343420D01*
X223696Y343359D01*
X223752Y343295D01*
X223804Y343229D01*
X223853Y343161D01*
X223899Y343090D01*
X223942Y343017D01*
X223981Y342942D01*
X224017Y342866D01*
X224050Y342788D01*
X224078Y342709D01*
X224103Y342628D01*
X224124Y342546D01*
X224142Y342464D01*
X224155Y342380D01*
X224165Y342297D01*
X224171Y342212D01*
X224173Y342128D01*
X224171Y342044D01*
X224165Y341959D01*
X224155Y341876D01*
X224142Y341792D01*
X224124Y341710D01*
X224103Y341628D01*
X224078Y341547D01*
X224050Y341468D01*
X224017Y341390D01*
X223981Y341314D01*
X223942Y341239D01*
X223899Y341166D01*
X223853Y341095D01*
X223804Y341027D01*
X223752Y340961D01*
X223696Y340897D01*
X223638Y340836D01*
X223577Y340778D01*
X223513Y340722D01*
X223447Y340670D01*
X223379Y340621D01*
X223308Y340575D01*
X223235Y340532D01*
X223160Y340493D01*
X223084Y340457D01*
X223006Y340424D01*
X222927Y340396D01*
X222846Y340371D01*
X222764Y340350D01*
X222682Y340332D01*
X222598Y340319D01*
X222515Y340309D01*
X222430Y340303D01*
X222346Y340301D01*
X219997Y340301D01*
X219997Y345000D01*
X219999Y345077D01*
X220005Y345153D01*
X220014Y345230D01*
X220027Y345306D01*
X220044Y345381D01*
X220064Y345455D01*
X220089Y345528D01*
X220116Y345599D01*
X220147Y345670D01*
X220182Y345738D01*
X220220Y345805D01*
X220261Y345870D01*
X220305Y345933D01*
X220352Y345993D01*
X220403Y346052D01*
X220456Y346107D01*
X220511Y346160D01*
X220570Y346211D01*
X220630Y346258D01*
X220693Y346302D01*
X220758Y346343D01*
X220825Y346381D01*
X220893Y346416D01*
X220964Y346447D01*
X221035Y346474D01*
X221108Y346499D01*
X221183Y346519D01*
X221258Y346536D01*
X221333Y346549D01*
X221410Y346558D01*
X221486Y346564D01*
X221563Y346566D01*
X223651Y346566D01*
X215542Y346566D02*
X215542Y340301D01*
X215542Y346566D02*
X212409Y346566D01*
X212409Y345522D01*
X209322Y343956D02*
X203057Y343956D01*
X198784Y340301D02*
X198784Y349699D01*
X198784Y340301D02*
X196173Y340301D01*
X196096Y340303D01*
X196020Y340309D01*
X195943Y340318D01*
X195867Y340331D01*
X195793Y340348D01*
X195718Y340368D01*
X195645Y340393D01*
X195574Y340420D01*
X195503Y340451D01*
X195435Y340486D01*
X195368Y340524D01*
X195303Y340565D01*
X195240Y340609D01*
X195180Y340656D01*
X195121Y340707D01*
X195066Y340760D01*
X195013Y340815D01*
X194962Y340874D01*
X194915Y340934D01*
X194871Y340997D01*
X194830Y341062D01*
X194792Y341129D01*
X194757Y341197D01*
X194726Y341268D01*
X194699Y341339D01*
X194674Y341412D01*
X194654Y341486D01*
X194637Y341561D01*
X194624Y341637D01*
X194615Y341713D01*
X194609Y341790D01*
X194607Y341867D01*
X194607Y345000D01*
X194609Y345077D01*
X194615Y345153D01*
X194624Y345230D01*
X194637Y345306D01*
X194654Y345381D01*
X194674Y345455D01*
X194699Y345528D01*
X194726Y345599D01*
X194757Y345670D01*
X194792Y345738D01*
X194830Y345805D01*
X194871Y345870D01*
X194915Y345933D01*
X194962Y345993D01*
X195013Y346052D01*
X195066Y346107D01*
X195121Y346160D01*
X195180Y346211D01*
X195240Y346258D01*
X195303Y346302D01*
X195368Y346343D01*
X195435Y346381D01*
X195503Y346416D01*
X195574Y346447D01*
X195645Y346474D01*
X195718Y346499D01*
X195793Y346519D01*
X195868Y346536D01*
X195943Y346549D01*
X196020Y346558D01*
X196096Y346564D01*
X196173Y346566D01*
X198784Y346566D01*
X189123Y343956D02*
X186774Y343956D01*
X189123Y343955D02*
X189207Y343953D01*
X189292Y343947D01*
X189375Y343937D01*
X189459Y343924D01*
X189541Y343906D01*
X189623Y343885D01*
X189704Y343860D01*
X189783Y343832D01*
X189861Y343799D01*
X189937Y343763D01*
X190012Y343724D01*
X190085Y343681D01*
X190156Y343635D01*
X190224Y343586D01*
X190290Y343534D01*
X190354Y343478D01*
X190415Y343420D01*
X190473Y343359D01*
X190529Y343295D01*
X190581Y343229D01*
X190630Y343161D01*
X190676Y343090D01*
X190719Y343017D01*
X190758Y342942D01*
X190794Y342866D01*
X190827Y342788D01*
X190855Y342709D01*
X190880Y342628D01*
X190901Y342546D01*
X190919Y342464D01*
X190932Y342380D01*
X190942Y342297D01*
X190948Y342212D01*
X190950Y342128D01*
X190948Y342044D01*
X190942Y341959D01*
X190932Y341876D01*
X190919Y341792D01*
X190901Y341710D01*
X190880Y341628D01*
X190855Y341547D01*
X190827Y341468D01*
X190794Y341390D01*
X190758Y341314D01*
X190719Y341239D01*
X190676Y341166D01*
X190630Y341095D01*
X190581Y341027D01*
X190529Y340961D01*
X190473Y340897D01*
X190415Y340836D01*
X190354Y340778D01*
X190290Y340722D01*
X190224Y340670D01*
X190156Y340621D01*
X190085Y340575D01*
X190012Y340532D01*
X189937Y340493D01*
X189861Y340457D01*
X189783Y340424D01*
X189704Y340396D01*
X189623Y340371D01*
X189541Y340350D01*
X189459Y340332D01*
X189375Y340319D01*
X189292Y340309D01*
X189207Y340303D01*
X189123Y340301D01*
X186774Y340301D01*
X186774Y345000D01*
X186776Y345077D01*
X186782Y345153D01*
X186791Y345230D01*
X186804Y345306D01*
X186821Y345381D01*
X186841Y345455D01*
X186866Y345528D01*
X186893Y345599D01*
X186924Y345670D01*
X186959Y345738D01*
X186997Y345805D01*
X187038Y345870D01*
X187082Y345933D01*
X187129Y345993D01*
X187180Y346052D01*
X187233Y346107D01*
X187288Y346160D01*
X187347Y346211D01*
X187407Y346258D01*
X187470Y346302D01*
X187535Y346343D01*
X187602Y346381D01*
X187670Y346416D01*
X187741Y346447D01*
X187812Y346474D01*
X187885Y346499D01*
X187960Y346519D01*
X188035Y346536D01*
X188110Y346549D01*
X188187Y346558D01*
X188263Y346564D01*
X188340Y346566D01*
X190428Y346566D01*
X181892Y343956D02*
X179282Y342912D01*
X181892Y343956D02*
X181958Y343984D01*
X182023Y344017D01*
X182086Y344052D01*
X182147Y344091D01*
X182206Y344133D01*
X182262Y344178D01*
X182316Y344226D01*
X182367Y344277D01*
X182416Y344330D01*
X182461Y344387D01*
X182504Y344445D01*
X182543Y344505D01*
X182580Y344568D01*
X182612Y344633D01*
X182641Y344699D01*
X182667Y344766D01*
X182689Y344835D01*
X182707Y344905D01*
X182722Y344976D01*
X182733Y345047D01*
X182740Y345119D01*
X182743Y345191D01*
X182742Y345263D01*
X182737Y345336D01*
X182729Y345407D01*
X182717Y345479D01*
X182701Y345549D01*
X182681Y345618D01*
X182657Y345687D01*
X182630Y345754D01*
X182600Y345819D01*
X182566Y345883D01*
X182528Y345945D01*
X182488Y346005D01*
X182444Y346062D01*
X182397Y346117D01*
X182347Y346170D01*
X182295Y346219D01*
X182240Y346266D01*
X182183Y346310D01*
X182123Y346351D01*
X182061Y346388D01*
X181997Y346423D01*
X181932Y346453D01*
X181865Y346481D01*
X181797Y346504D01*
X181727Y346524D01*
X181657Y346540D01*
X181586Y346553D01*
X181514Y346561D01*
X181442Y346566D01*
X181370Y346567D01*
X181370Y346566D02*
X181219Y346562D01*
X181068Y346554D01*
X180917Y346543D01*
X180766Y346527D01*
X180616Y346507D01*
X180466Y346484D01*
X180317Y346457D01*
X180169Y346426D01*
X180021Y346391D01*
X179875Y346353D01*
X179729Y346310D01*
X179585Y346264D01*
X179442Y346215D01*
X179300Y346162D01*
X179160Y346105D01*
X179021Y346044D01*
X179281Y342912D02*
X179215Y342884D01*
X179150Y342851D01*
X179087Y342816D01*
X179026Y342777D01*
X178967Y342735D01*
X178911Y342690D01*
X178857Y342642D01*
X178806Y342591D01*
X178757Y342538D01*
X178712Y342481D01*
X178669Y342423D01*
X178630Y342363D01*
X178593Y342300D01*
X178561Y342235D01*
X178532Y342169D01*
X178506Y342102D01*
X178484Y342033D01*
X178466Y341963D01*
X178451Y341892D01*
X178440Y341821D01*
X178433Y341749D01*
X178430Y341677D01*
X178431Y341605D01*
X178436Y341532D01*
X178444Y341461D01*
X178456Y341389D01*
X178472Y341319D01*
X178492Y341250D01*
X178516Y341181D01*
X178543Y341114D01*
X178573Y341049D01*
X178607Y340985D01*
X178645Y340923D01*
X178685Y340863D01*
X178729Y340806D01*
X178776Y340751D01*
X178826Y340698D01*
X178878Y340649D01*
X178933Y340602D01*
X178990Y340558D01*
X179050Y340517D01*
X179112Y340480D01*
X179176Y340445D01*
X179241Y340415D01*
X179308Y340387D01*
X179376Y340364D01*
X179446Y340344D01*
X179516Y340328D01*
X179587Y340315D01*
X179659Y340307D01*
X179731Y340302D01*
X179803Y340301D01*
X180013Y340306D01*
X180222Y340317D01*
X180431Y340332D01*
X180639Y340352D01*
X180847Y340378D01*
X181054Y340408D01*
X181261Y340443D01*
X181466Y340483D01*
X181671Y340527D01*
X181874Y340577D01*
X182077Y340631D01*
X182278Y340691D01*
X182477Y340754D01*
X182675Y340823D01*
X173184Y340301D02*
X170574Y340301D01*
X173184Y340301D02*
X173261Y340303D01*
X173337Y340309D01*
X173414Y340318D01*
X173490Y340331D01*
X173565Y340348D01*
X173639Y340368D01*
X173712Y340393D01*
X173783Y340420D01*
X173854Y340451D01*
X173922Y340486D01*
X173989Y340524D01*
X174054Y340565D01*
X174117Y340609D01*
X174177Y340656D01*
X174236Y340707D01*
X174291Y340760D01*
X174344Y340815D01*
X174395Y340874D01*
X174442Y340934D01*
X174486Y340997D01*
X174527Y341062D01*
X174565Y341129D01*
X174600Y341197D01*
X174631Y341268D01*
X174658Y341339D01*
X174683Y341412D01*
X174703Y341486D01*
X174720Y341561D01*
X174733Y341637D01*
X174742Y341714D01*
X174748Y341790D01*
X174750Y341867D01*
X174750Y344478D01*
X174748Y344568D01*
X174742Y344657D01*
X174733Y344747D01*
X174719Y344836D01*
X174702Y344924D01*
X174681Y345011D01*
X174656Y345098D01*
X174627Y345183D01*
X174595Y345267D01*
X174560Y345349D01*
X174520Y345430D01*
X174478Y345509D01*
X174432Y345586D01*
X174382Y345661D01*
X174330Y345734D01*
X174274Y345805D01*
X174216Y345873D01*
X174154Y345938D01*
X174090Y346001D01*
X174023Y346061D01*
X173954Y346118D01*
X173882Y346172D01*
X173808Y346223D01*
X173732Y346271D01*
X173654Y346315D01*
X173574Y346356D01*
X173492Y346394D01*
X173409Y346428D01*
X173324Y346458D01*
X173238Y346485D01*
X173152Y346508D01*
X173064Y346527D01*
X172975Y346542D01*
X172886Y346554D01*
X172797Y346562D01*
X172707Y346566D01*
X172617Y346566D01*
X172527Y346562D01*
X172438Y346554D01*
X172349Y346542D01*
X172260Y346527D01*
X172172Y346508D01*
X172086Y346485D01*
X172000Y346458D01*
X171915Y346428D01*
X171832Y346394D01*
X171750Y346356D01*
X171670Y346315D01*
X171592Y346271D01*
X171516Y346223D01*
X171442Y346172D01*
X171370Y346118D01*
X171301Y346061D01*
X171234Y346001D01*
X171170Y345938D01*
X171108Y345873D01*
X171050Y345805D01*
X170994Y345734D01*
X170942Y345661D01*
X170892Y345586D01*
X170846Y345509D01*
X170804Y345430D01*
X170764Y345349D01*
X170729Y345267D01*
X170697Y345183D01*
X170668Y345098D01*
X170643Y345011D01*
X170622Y344924D01*
X170605Y344836D01*
X170591Y344747D01*
X170582Y344657D01*
X170576Y344568D01*
X170574Y344478D01*
X170574Y343434D01*
X174750Y343434D01*
X166651Y343956D02*
X160385Y343956D01*
X157231Y346566D02*
X154099Y346566D01*
X156187Y349699D02*
X156187Y341867D01*
X156185Y341790D01*
X156179Y341714D01*
X156170Y341637D01*
X156157Y341561D01*
X156140Y341486D01*
X156120Y341412D01*
X156095Y341339D01*
X156068Y341268D01*
X156037Y341197D01*
X156002Y341129D01*
X155964Y341062D01*
X155923Y340997D01*
X155879Y340934D01*
X155832Y340874D01*
X155781Y340815D01*
X155728Y340760D01*
X155673Y340707D01*
X155614Y340656D01*
X155554Y340609D01*
X155491Y340565D01*
X155426Y340524D01*
X155359Y340486D01*
X155291Y340451D01*
X155220Y340420D01*
X155149Y340393D01*
X155076Y340368D01*
X155002Y340348D01*
X154927Y340331D01*
X154851Y340318D01*
X154774Y340309D01*
X154698Y340303D01*
X154621Y340301D01*
X154099Y340301D01*
X150367Y340301D02*
X150367Y349699D01*
X150367Y346566D02*
X147756Y346566D01*
X147679Y346564D01*
X147603Y346558D01*
X147526Y346549D01*
X147450Y346536D01*
X147376Y346519D01*
X147301Y346499D01*
X147228Y346474D01*
X147157Y346447D01*
X147086Y346416D01*
X147018Y346381D01*
X146951Y346343D01*
X146886Y346302D01*
X146823Y346258D01*
X146763Y346211D01*
X146704Y346160D01*
X146649Y346107D01*
X146596Y346052D01*
X146545Y345993D01*
X146498Y345933D01*
X146454Y345870D01*
X146413Y345805D01*
X146375Y345738D01*
X146340Y345670D01*
X146309Y345599D01*
X146282Y345528D01*
X146257Y345455D01*
X146237Y345381D01*
X146220Y345306D01*
X146207Y345230D01*
X146198Y345154D01*
X146192Y345077D01*
X146190Y345000D01*
X146190Y340301D01*
X142182Y340301D02*
X142182Y346566D01*
X142443Y349177D02*
X142443Y349699D01*
X141921Y349699D01*
X141921Y349177D01*
X142443Y349177D01*
X138175Y346566D02*
X138175Y340301D01*
X138175Y346566D02*
X135564Y346566D01*
X135487Y346564D01*
X135411Y346558D01*
X135334Y346549D01*
X135258Y346536D01*
X135184Y346519D01*
X135109Y346499D01*
X135036Y346474D01*
X134965Y346447D01*
X134894Y346416D01*
X134826Y346381D01*
X134759Y346343D01*
X134694Y346302D01*
X134631Y346258D01*
X134571Y346211D01*
X134512Y346160D01*
X134457Y346107D01*
X134404Y346052D01*
X134353Y345993D01*
X134306Y345933D01*
X134262Y345870D01*
X134221Y345805D01*
X134183Y345738D01*
X134148Y345670D01*
X134117Y345599D01*
X134090Y345528D01*
X134065Y345455D01*
X134045Y345381D01*
X134028Y345306D01*
X134015Y345230D01*
X134006Y345154D01*
X134000Y345077D01*
X133998Y345000D01*
X133998Y340301D01*
X128424Y340301D02*
X125814Y340301D01*
X128424Y340301D02*
X128501Y340303D01*
X128577Y340309D01*
X128654Y340318D01*
X128730Y340331D01*
X128805Y340348D01*
X128879Y340368D01*
X128952Y340393D01*
X129023Y340420D01*
X129094Y340451D01*
X129162Y340486D01*
X129229Y340524D01*
X129294Y340565D01*
X129357Y340609D01*
X129417Y340656D01*
X129476Y340707D01*
X129531Y340760D01*
X129584Y340815D01*
X129635Y340874D01*
X129682Y340934D01*
X129726Y340997D01*
X129767Y341062D01*
X129805Y341129D01*
X129840Y341197D01*
X129871Y341268D01*
X129898Y341339D01*
X129923Y341412D01*
X129943Y341486D01*
X129960Y341561D01*
X129973Y341637D01*
X129982Y341714D01*
X129988Y341790D01*
X129990Y341867D01*
X129991Y341867D02*
X129991Y345000D01*
X129990Y345000D02*
X129988Y345077D01*
X129982Y345153D01*
X129973Y345230D01*
X129960Y345306D01*
X129943Y345381D01*
X129923Y345455D01*
X129898Y345528D01*
X129871Y345599D01*
X129840Y345670D01*
X129805Y345738D01*
X129767Y345805D01*
X129726Y345870D01*
X129682Y345933D01*
X129635Y345993D01*
X129584Y346052D01*
X129531Y346107D01*
X129476Y346160D01*
X129417Y346211D01*
X129357Y346258D01*
X129294Y346302D01*
X129229Y346343D01*
X129162Y346381D01*
X129094Y346416D01*
X129023Y346447D01*
X128952Y346474D01*
X128879Y346499D01*
X128805Y346519D01*
X128730Y346536D01*
X128654Y346549D01*
X128577Y346558D01*
X128501Y346564D01*
X128424Y346566D01*
X125814Y346566D01*
X125814Y338735D01*
X125816Y338658D01*
X125822Y338582D01*
X125831Y338505D01*
X125844Y338429D01*
X125861Y338354D01*
X125881Y338280D01*
X125906Y338207D01*
X125933Y338136D01*
X125964Y338065D01*
X125999Y337997D01*
X126037Y337930D01*
X126078Y337865D01*
X126122Y337802D01*
X126169Y337742D01*
X126220Y337683D01*
X126273Y337628D01*
X126328Y337575D01*
X126387Y337524D01*
X126447Y337477D01*
X126510Y337433D01*
X126575Y337392D01*
X126642Y337354D01*
X126710Y337319D01*
X126781Y337288D01*
X126852Y337261D01*
X126925Y337236D01*
X126999Y337216D01*
X127074Y337199D01*
X127150Y337186D01*
X127227Y337177D01*
X127303Y337171D01*
X127380Y337169D01*
X127380Y337168D02*
X129469Y337168D01*
X245335Y203142D02*
X247945Y203142D01*
X245335Y203143D02*
X245234Y203141D01*
X245133Y203135D01*
X245032Y203125D01*
X244932Y203112D01*
X244832Y203094D01*
X244733Y203073D01*
X244635Y203047D01*
X244538Y203018D01*
X244442Y202986D01*
X244348Y202949D01*
X244255Y202909D01*
X244163Y202865D01*
X244074Y202818D01*
X243986Y202767D01*
X243900Y202713D01*
X243817Y202656D01*
X243735Y202596D01*
X243657Y202532D01*
X243580Y202466D01*
X243507Y202396D01*
X243436Y202324D01*
X243368Y202249D01*
X243303Y202171D01*
X243241Y202091D01*
X243182Y202009D01*
X243126Y201924D01*
X243074Y201838D01*
X243025Y201749D01*
X242979Y201658D01*
X242938Y201566D01*
X242899Y201472D01*
X242865Y201377D01*
X242834Y201281D01*
X242807Y201183D01*
X242783Y201085D01*
X242764Y200985D01*
X242748Y200885D01*
X242736Y200785D01*
X242728Y200684D01*
X242724Y200583D01*
X242724Y200481D01*
X242728Y200380D01*
X242736Y200279D01*
X242748Y200179D01*
X242764Y200079D01*
X242783Y199979D01*
X242807Y199881D01*
X242834Y199783D01*
X242865Y199687D01*
X242899Y199592D01*
X242938Y199498D01*
X242979Y199406D01*
X243025Y199315D01*
X243074Y199227D01*
X243126Y199140D01*
X243182Y199055D01*
X243241Y198973D01*
X243303Y198893D01*
X243368Y198815D01*
X243436Y198740D01*
X243507Y198668D01*
X243580Y198598D01*
X243657Y198532D01*
X243735Y198468D01*
X243817Y198408D01*
X243900Y198351D01*
X243986Y198297D01*
X244074Y198246D01*
X244163Y198199D01*
X244255Y198155D01*
X244348Y198115D01*
X244442Y198078D01*
X244538Y198046D01*
X244635Y198017D01*
X244733Y197991D01*
X244832Y197970D01*
X244932Y197952D01*
X245032Y197939D01*
X245133Y197929D01*
X245234Y197923D01*
X245335Y197921D01*
X247945Y197921D01*
X247945Y207319D01*
X245335Y207319D01*
X245245Y207317D01*
X245156Y207311D01*
X245066Y207302D01*
X244977Y207288D01*
X244889Y207271D01*
X244802Y207250D01*
X244715Y207225D01*
X244630Y207196D01*
X244546Y207164D01*
X244464Y207129D01*
X244383Y207089D01*
X244304Y207047D01*
X244227Y207001D01*
X244152Y206951D01*
X244079Y206899D01*
X244008Y206843D01*
X243940Y206785D01*
X243875Y206723D01*
X243812Y206659D01*
X243752Y206592D01*
X243695Y206523D01*
X243641Y206451D01*
X243590Y206377D01*
X243542Y206301D01*
X243498Y206223D01*
X243457Y206143D01*
X243419Y206061D01*
X243385Y205978D01*
X243355Y205893D01*
X243328Y205807D01*
X243305Y205721D01*
X243286Y205633D01*
X243271Y205544D01*
X243259Y205455D01*
X243251Y205366D01*
X243247Y205276D01*
X243247Y205186D01*
X243251Y205096D01*
X243259Y205007D01*
X243271Y204918D01*
X243286Y204829D01*
X243305Y204741D01*
X243328Y204655D01*
X243355Y204569D01*
X243385Y204484D01*
X243419Y204401D01*
X243457Y204319D01*
X243498Y204239D01*
X243542Y204161D01*
X243590Y204085D01*
X243641Y204011D01*
X243695Y203939D01*
X243752Y203870D01*
X243812Y203803D01*
X243875Y203739D01*
X243940Y203677D01*
X244008Y203619D01*
X244079Y203563D01*
X244152Y203511D01*
X244227Y203461D01*
X244304Y203415D01*
X244383Y203373D01*
X244464Y203333D01*
X244546Y203298D01*
X244630Y203266D01*
X244715Y203237D01*
X244802Y203212D01*
X244889Y203191D01*
X244977Y203174D01*
X245066Y203160D01*
X245156Y203151D01*
X245245Y203145D01*
X245335Y203143D01*
X239325Y202098D02*
X239325Y200009D01*
X239324Y202098D02*
X239322Y202188D01*
X239316Y202277D01*
X239307Y202367D01*
X239293Y202456D01*
X239276Y202544D01*
X239255Y202631D01*
X239230Y202718D01*
X239201Y202803D01*
X239169Y202887D01*
X239134Y202969D01*
X239094Y203050D01*
X239052Y203129D01*
X239006Y203206D01*
X238956Y203281D01*
X238904Y203354D01*
X238848Y203425D01*
X238790Y203493D01*
X238728Y203558D01*
X238664Y203621D01*
X238597Y203681D01*
X238528Y203738D01*
X238456Y203792D01*
X238382Y203843D01*
X238306Y203891D01*
X238228Y203935D01*
X238148Y203976D01*
X238066Y204014D01*
X237983Y204048D01*
X237898Y204078D01*
X237812Y204105D01*
X237726Y204128D01*
X237638Y204147D01*
X237549Y204162D01*
X237460Y204174D01*
X237371Y204182D01*
X237281Y204186D01*
X237191Y204186D01*
X237101Y204182D01*
X237012Y204174D01*
X236923Y204162D01*
X236834Y204147D01*
X236746Y204128D01*
X236660Y204105D01*
X236574Y204078D01*
X236489Y204048D01*
X236406Y204014D01*
X236324Y203976D01*
X236244Y203935D01*
X236166Y203891D01*
X236090Y203843D01*
X236016Y203792D01*
X235944Y203738D01*
X235875Y203681D01*
X235808Y203621D01*
X235744Y203558D01*
X235682Y203493D01*
X235624Y203425D01*
X235568Y203354D01*
X235516Y203281D01*
X235466Y203206D01*
X235420Y203129D01*
X235378Y203050D01*
X235338Y202969D01*
X235303Y202887D01*
X235271Y202803D01*
X235242Y202718D01*
X235217Y202631D01*
X235196Y202544D01*
X235179Y202456D01*
X235165Y202367D01*
X235156Y202277D01*
X235150Y202188D01*
X235148Y202098D01*
X235148Y200009D01*
X235150Y199919D01*
X235156Y199830D01*
X235165Y199740D01*
X235179Y199651D01*
X235196Y199563D01*
X235217Y199476D01*
X235242Y199389D01*
X235271Y199304D01*
X235303Y199220D01*
X235338Y199138D01*
X235378Y199057D01*
X235420Y198978D01*
X235466Y198901D01*
X235516Y198826D01*
X235568Y198753D01*
X235624Y198682D01*
X235682Y198614D01*
X235744Y198549D01*
X235808Y198486D01*
X235875Y198426D01*
X235944Y198369D01*
X236016Y198315D01*
X236090Y198264D01*
X236166Y198216D01*
X236244Y198172D01*
X236324Y198131D01*
X236406Y198093D01*
X236489Y198059D01*
X236574Y198029D01*
X236660Y198002D01*
X236746Y197979D01*
X236834Y197960D01*
X236923Y197945D01*
X237012Y197933D01*
X237101Y197925D01*
X237191Y197921D01*
X237281Y197921D01*
X237371Y197925D01*
X237460Y197933D01*
X237549Y197945D01*
X237638Y197960D01*
X237726Y197979D01*
X237812Y198002D01*
X237898Y198029D01*
X237983Y198059D01*
X238066Y198093D01*
X238148Y198131D01*
X238228Y198172D01*
X238306Y198216D01*
X238382Y198264D01*
X238456Y198315D01*
X238528Y198369D01*
X238597Y198426D01*
X238664Y198486D01*
X238728Y198549D01*
X238790Y198614D01*
X238848Y198682D01*
X238904Y198753D01*
X238956Y198826D01*
X239006Y198901D01*
X239052Y198978D01*
X239094Y199057D01*
X239134Y199138D01*
X239169Y199220D01*
X239201Y199304D01*
X239230Y199389D01*
X239255Y199476D01*
X239276Y199563D01*
X239293Y199651D01*
X239307Y199740D01*
X239316Y199830D01*
X239322Y199919D01*
X239324Y200009D01*
X229618Y201576D02*
X227269Y201576D01*
X229618Y201575D02*
X229702Y201573D01*
X229787Y201567D01*
X229870Y201557D01*
X229954Y201544D01*
X230036Y201526D01*
X230118Y201505D01*
X230199Y201480D01*
X230278Y201452D01*
X230356Y201419D01*
X230432Y201383D01*
X230507Y201344D01*
X230580Y201301D01*
X230651Y201255D01*
X230719Y201206D01*
X230785Y201154D01*
X230849Y201098D01*
X230910Y201040D01*
X230968Y200979D01*
X231024Y200915D01*
X231076Y200849D01*
X231125Y200781D01*
X231171Y200710D01*
X231214Y200637D01*
X231253Y200562D01*
X231289Y200486D01*
X231322Y200408D01*
X231350Y200329D01*
X231375Y200248D01*
X231396Y200166D01*
X231414Y200084D01*
X231427Y200000D01*
X231437Y199917D01*
X231443Y199832D01*
X231445Y199748D01*
X231443Y199664D01*
X231437Y199579D01*
X231427Y199496D01*
X231414Y199412D01*
X231396Y199330D01*
X231375Y199248D01*
X231350Y199167D01*
X231322Y199088D01*
X231289Y199010D01*
X231253Y198934D01*
X231214Y198859D01*
X231171Y198786D01*
X231125Y198715D01*
X231076Y198647D01*
X231024Y198581D01*
X230968Y198517D01*
X230910Y198456D01*
X230849Y198398D01*
X230785Y198342D01*
X230719Y198290D01*
X230651Y198241D01*
X230580Y198195D01*
X230507Y198152D01*
X230432Y198113D01*
X230356Y198077D01*
X230278Y198044D01*
X230199Y198016D01*
X230118Y197991D01*
X230036Y197970D01*
X229954Y197952D01*
X229870Y197939D01*
X229787Y197929D01*
X229702Y197923D01*
X229618Y197921D01*
X227269Y197921D01*
X227269Y202620D01*
X227271Y202697D01*
X227277Y202773D01*
X227286Y202850D01*
X227299Y202926D01*
X227316Y203001D01*
X227336Y203075D01*
X227361Y203148D01*
X227388Y203219D01*
X227419Y203290D01*
X227454Y203358D01*
X227492Y203425D01*
X227533Y203490D01*
X227577Y203553D01*
X227624Y203613D01*
X227675Y203672D01*
X227728Y203727D01*
X227783Y203780D01*
X227842Y203831D01*
X227902Y203878D01*
X227965Y203922D01*
X228030Y203963D01*
X228097Y204001D01*
X228165Y204036D01*
X228236Y204067D01*
X228307Y204094D01*
X228380Y204119D01*
X228455Y204139D01*
X228530Y204156D01*
X228605Y204169D01*
X228682Y204178D01*
X228758Y204184D01*
X228835Y204186D01*
X230924Y204186D01*
X222814Y204186D02*
X222814Y197921D01*
X222814Y204186D02*
X219682Y204186D01*
X219682Y203142D01*
X212639Y207319D02*
X212639Y197921D01*
X215249Y197921D01*
X215326Y197923D01*
X215402Y197929D01*
X215479Y197938D01*
X215555Y197951D01*
X215630Y197968D01*
X215704Y197988D01*
X215777Y198013D01*
X215848Y198040D01*
X215919Y198071D01*
X215987Y198106D01*
X216054Y198144D01*
X216119Y198185D01*
X216182Y198229D01*
X216242Y198276D01*
X216301Y198327D01*
X216356Y198380D01*
X216409Y198435D01*
X216460Y198494D01*
X216507Y198554D01*
X216551Y198617D01*
X216592Y198682D01*
X216630Y198749D01*
X216665Y198817D01*
X216696Y198888D01*
X216723Y198959D01*
X216748Y199032D01*
X216768Y199106D01*
X216785Y199181D01*
X216798Y199257D01*
X216807Y199334D01*
X216813Y199410D01*
X216815Y199487D01*
X216815Y202620D01*
X216813Y202697D01*
X216807Y202773D01*
X216798Y202850D01*
X216785Y202926D01*
X216768Y203001D01*
X216748Y203075D01*
X216723Y203148D01*
X216696Y203219D01*
X216665Y203290D01*
X216630Y203358D01*
X216592Y203425D01*
X216551Y203490D01*
X216507Y203553D01*
X216460Y203613D01*
X216409Y203672D01*
X216356Y203727D01*
X216301Y203780D01*
X216242Y203831D01*
X216182Y203878D01*
X216119Y203922D01*
X216054Y203963D01*
X215987Y204001D01*
X215919Y204036D01*
X215848Y204067D01*
X215777Y204094D01*
X215704Y204119D01*
X215630Y204139D01*
X215555Y204156D01*
X215479Y204169D01*
X215402Y204178D01*
X215326Y204184D01*
X215249Y204186D01*
X212639Y204186D01*
X203576Y197921D02*
X200966Y197921D01*
X200865Y197923D01*
X200764Y197929D01*
X200663Y197939D01*
X200563Y197952D01*
X200463Y197970D01*
X200364Y197991D01*
X200266Y198017D01*
X200169Y198046D01*
X200073Y198078D01*
X199979Y198115D01*
X199886Y198155D01*
X199794Y198199D01*
X199705Y198246D01*
X199617Y198297D01*
X199531Y198351D01*
X199448Y198408D01*
X199366Y198468D01*
X199288Y198532D01*
X199211Y198598D01*
X199138Y198668D01*
X199067Y198740D01*
X198999Y198815D01*
X198934Y198893D01*
X198872Y198973D01*
X198813Y199055D01*
X198757Y199140D01*
X198705Y199227D01*
X198656Y199315D01*
X198610Y199406D01*
X198569Y199498D01*
X198530Y199592D01*
X198496Y199687D01*
X198465Y199783D01*
X198438Y199881D01*
X198414Y199979D01*
X198395Y200079D01*
X198379Y200179D01*
X198367Y200279D01*
X198359Y200380D01*
X198355Y200481D01*
X198355Y200583D01*
X198359Y200684D01*
X198367Y200785D01*
X198379Y200885D01*
X198395Y200985D01*
X198414Y201085D01*
X198438Y201183D01*
X198465Y201281D01*
X198496Y201377D01*
X198530Y201472D01*
X198569Y201566D01*
X198610Y201658D01*
X198656Y201749D01*
X198705Y201838D01*
X198757Y201924D01*
X198813Y202009D01*
X198872Y202091D01*
X198934Y202171D01*
X198999Y202249D01*
X199067Y202324D01*
X199138Y202396D01*
X199211Y202466D01*
X199288Y202532D01*
X199366Y202596D01*
X199448Y202656D01*
X199531Y202713D01*
X199617Y202767D01*
X199705Y202818D01*
X199794Y202865D01*
X199886Y202909D01*
X199979Y202949D01*
X200073Y202986D01*
X200169Y203018D01*
X200266Y203047D01*
X200364Y203073D01*
X200463Y203094D01*
X200563Y203112D01*
X200663Y203125D01*
X200764Y203135D01*
X200865Y203141D01*
X200966Y203143D01*
X200443Y207319D02*
X203576Y207319D01*
X200443Y207319D02*
X200353Y207317D01*
X200264Y207311D01*
X200174Y207302D01*
X200085Y207288D01*
X199997Y207271D01*
X199910Y207250D01*
X199823Y207225D01*
X199738Y207196D01*
X199654Y207164D01*
X199572Y207129D01*
X199491Y207089D01*
X199412Y207047D01*
X199335Y207001D01*
X199260Y206951D01*
X199187Y206899D01*
X199116Y206843D01*
X199048Y206785D01*
X198983Y206723D01*
X198920Y206659D01*
X198860Y206592D01*
X198803Y206523D01*
X198749Y206451D01*
X198698Y206377D01*
X198650Y206301D01*
X198606Y206223D01*
X198565Y206143D01*
X198527Y206061D01*
X198493Y205978D01*
X198463Y205893D01*
X198436Y205807D01*
X198413Y205721D01*
X198394Y205633D01*
X198379Y205544D01*
X198367Y205455D01*
X198359Y205366D01*
X198355Y205276D01*
X198355Y205186D01*
X198359Y205096D01*
X198367Y205007D01*
X198379Y204918D01*
X198394Y204829D01*
X198413Y204741D01*
X198436Y204655D01*
X198463Y204569D01*
X198493Y204484D01*
X198527Y204401D01*
X198565Y204319D01*
X198606Y204239D01*
X198650Y204161D01*
X198698Y204085D01*
X198749Y204011D01*
X198803Y203939D01*
X198860Y203870D01*
X198920Y203803D01*
X198983Y203739D01*
X199048Y203677D01*
X199116Y203619D01*
X199187Y203563D01*
X199260Y203511D01*
X199335Y203461D01*
X199412Y203415D01*
X199491Y203373D01*
X199572Y203333D01*
X199654Y203298D01*
X199738Y203266D01*
X199823Y203237D01*
X199910Y203212D01*
X199997Y203191D01*
X200085Y203174D01*
X200174Y203160D01*
X200264Y203151D01*
X200353Y203145D01*
X200443Y203143D01*
X200443Y203142D02*
X202532Y203142D01*
X194432Y206275D02*
X194432Y207319D01*
X189211Y207319D01*
X191822Y197921D01*
X185680Y197921D02*
X181504Y204186D01*
X185680Y204186D02*
X181504Y197921D01*
X177973Y197921D02*
X175362Y197921D01*
X175261Y197923D01*
X175160Y197929D01*
X175059Y197939D01*
X174959Y197952D01*
X174859Y197970D01*
X174760Y197991D01*
X174662Y198017D01*
X174565Y198046D01*
X174469Y198078D01*
X174375Y198115D01*
X174282Y198155D01*
X174190Y198199D01*
X174101Y198246D01*
X174013Y198297D01*
X173927Y198351D01*
X173844Y198408D01*
X173762Y198468D01*
X173684Y198532D01*
X173607Y198598D01*
X173534Y198668D01*
X173463Y198740D01*
X173395Y198815D01*
X173330Y198893D01*
X173268Y198973D01*
X173209Y199055D01*
X173153Y199140D01*
X173101Y199227D01*
X173052Y199315D01*
X173006Y199406D01*
X172965Y199498D01*
X172926Y199592D01*
X172892Y199687D01*
X172861Y199783D01*
X172834Y199881D01*
X172810Y199979D01*
X172791Y200079D01*
X172775Y200179D01*
X172763Y200279D01*
X172755Y200380D01*
X172751Y200481D01*
X172751Y200583D01*
X172755Y200684D01*
X172763Y200785D01*
X172775Y200885D01*
X172791Y200985D01*
X172810Y201085D01*
X172834Y201183D01*
X172861Y201281D01*
X172892Y201377D01*
X172926Y201472D01*
X172965Y201566D01*
X173006Y201658D01*
X173052Y201749D01*
X173101Y201838D01*
X173153Y201924D01*
X173209Y202009D01*
X173268Y202091D01*
X173330Y202171D01*
X173395Y202249D01*
X173463Y202324D01*
X173534Y202396D01*
X173607Y202466D01*
X173684Y202532D01*
X173762Y202596D01*
X173844Y202656D01*
X173927Y202713D01*
X174013Y202767D01*
X174101Y202818D01*
X174190Y202865D01*
X174282Y202909D01*
X174375Y202949D01*
X174469Y202986D01*
X174565Y203018D01*
X174662Y203047D01*
X174760Y203073D01*
X174859Y203094D01*
X174959Y203112D01*
X175059Y203125D01*
X175160Y203135D01*
X175261Y203141D01*
X175362Y203143D01*
X174840Y207319D02*
X177973Y207319D01*
X174840Y207319D02*
X174750Y207317D01*
X174661Y207311D01*
X174571Y207302D01*
X174482Y207288D01*
X174394Y207271D01*
X174307Y207250D01*
X174220Y207225D01*
X174135Y207196D01*
X174051Y207164D01*
X173969Y207129D01*
X173888Y207089D01*
X173809Y207047D01*
X173732Y207001D01*
X173657Y206951D01*
X173584Y206899D01*
X173513Y206843D01*
X173445Y206785D01*
X173380Y206723D01*
X173317Y206659D01*
X173257Y206592D01*
X173200Y206523D01*
X173146Y206451D01*
X173095Y206377D01*
X173047Y206301D01*
X173003Y206223D01*
X172962Y206143D01*
X172924Y206061D01*
X172890Y205978D01*
X172860Y205893D01*
X172833Y205807D01*
X172810Y205721D01*
X172791Y205633D01*
X172776Y205544D01*
X172764Y205455D01*
X172756Y205366D01*
X172752Y205276D01*
X172752Y205186D01*
X172756Y205096D01*
X172764Y205007D01*
X172776Y204918D01*
X172791Y204829D01*
X172810Y204741D01*
X172833Y204655D01*
X172860Y204569D01*
X172890Y204484D01*
X172924Y204401D01*
X172962Y204319D01*
X173003Y204239D01*
X173047Y204161D01*
X173095Y204085D01*
X173146Y204011D01*
X173200Y203939D01*
X173257Y203870D01*
X173317Y203803D01*
X173380Y203739D01*
X173445Y203677D01*
X173513Y203619D01*
X173584Y203563D01*
X173657Y203511D01*
X173732Y203461D01*
X173809Y203415D01*
X173888Y203373D01*
X173969Y203333D01*
X174051Y203298D01*
X174135Y203266D01*
X174220Y203237D01*
X174307Y203212D01*
X174394Y203191D01*
X174482Y203174D01*
X174571Y203160D01*
X174661Y203151D01*
X174750Y203145D01*
X174840Y203143D01*
X174840Y203142D02*
X176929Y203142D01*
X168829Y206275D02*
X168829Y207319D01*
X163608Y207319D01*
X166218Y197921D01*
X159293Y197921D02*
X159293Y204186D01*
X154594Y204186D01*
X154517Y204184D01*
X154441Y204178D01*
X154364Y204169D01*
X154288Y204156D01*
X154213Y204139D01*
X154139Y204119D01*
X154066Y204094D01*
X153995Y204067D01*
X153924Y204036D01*
X153856Y204001D01*
X153789Y203963D01*
X153724Y203922D01*
X153661Y203878D01*
X153601Y203831D01*
X153542Y203780D01*
X153487Y203727D01*
X153434Y203672D01*
X153383Y203613D01*
X153336Y203553D01*
X153292Y203490D01*
X153251Y203425D01*
X153213Y203358D01*
X153178Y203290D01*
X153147Y203219D01*
X153120Y203148D01*
X153095Y203075D01*
X153075Y203001D01*
X153058Y202926D01*
X153045Y202850D01*
X153036Y202773D01*
X153030Y202697D01*
X153028Y202620D01*
X153027Y202620D02*
X153027Y197921D01*
X156160Y197921D02*
X156160Y204186D01*
X148320Y204186D02*
X148320Y197921D01*
X148320Y204186D02*
X143621Y204186D01*
X143544Y204184D01*
X143468Y204178D01*
X143391Y204169D01*
X143315Y204156D01*
X143240Y204139D01*
X143166Y204119D01*
X143093Y204094D01*
X143022Y204067D01*
X142951Y204036D01*
X142883Y204001D01*
X142816Y203963D01*
X142751Y203922D01*
X142688Y203878D01*
X142628Y203831D01*
X142569Y203780D01*
X142514Y203727D01*
X142461Y203672D01*
X142410Y203613D01*
X142363Y203553D01*
X142319Y203490D01*
X142278Y203425D01*
X142240Y203358D01*
X142205Y203290D01*
X142174Y203219D01*
X142147Y203148D01*
X142122Y203075D01*
X142102Y203001D01*
X142085Y202926D01*
X142072Y202850D01*
X142063Y202773D01*
X142057Y202697D01*
X142055Y202620D01*
X142055Y197921D01*
X145187Y197921D02*
X145187Y204186D01*
X248882Y192079D02*
X248882Y182681D01*
X245749Y186858D02*
X248882Y192079D01*
X245749Y186858D02*
X242616Y192079D01*
X242616Y182681D01*
X238389Y184769D02*
X238389Y186858D01*
X238388Y186858D02*
X238386Y186948D01*
X238380Y187037D01*
X238371Y187127D01*
X238357Y187216D01*
X238340Y187304D01*
X238319Y187391D01*
X238294Y187478D01*
X238265Y187563D01*
X238233Y187647D01*
X238198Y187729D01*
X238158Y187810D01*
X238116Y187889D01*
X238070Y187966D01*
X238020Y188041D01*
X237968Y188114D01*
X237912Y188185D01*
X237854Y188253D01*
X237792Y188318D01*
X237728Y188381D01*
X237661Y188441D01*
X237592Y188498D01*
X237520Y188552D01*
X237446Y188603D01*
X237370Y188651D01*
X237292Y188695D01*
X237212Y188736D01*
X237130Y188774D01*
X237047Y188808D01*
X236962Y188838D01*
X236876Y188865D01*
X236790Y188888D01*
X236702Y188907D01*
X236613Y188922D01*
X236524Y188934D01*
X236435Y188942D01*
X236345Y188946D01*
X236255Y188946D01*
X236165Y188942D01*
X236076Y188934D01*
X235987Y188922D01*
X235898Y188907D01*
X235810Y188888D01*
X235724Y188865D01*
X235638Y188838D01*
X235553Y188808D01*
X235470Y188774D01*
X235388Y188736D01*
X235308Y188695D01*
X235230Y188651D01*
X235154Y188603D01*
X235080Y188552D01*
X235008Y188498D01*
X234939Y188441D01*
X234872Y188381D01*
X234808Y188318D01*
X234746Y188253D01*
X234688Y188185D01*
X234632Y188114D01*
X234580Y188041D01*
X234530Y187966D01*
X234484Y187889D01*
X234442Y187810D01*
X234402Y187729D01*
X234367Y187647D01*
X234335Y187563D01*
X234306Y187478D01*
X234281Y187391D01*
X234260Y187304D01*
X234243Y187216D01*
X234229Y187127D01*
X234220Y187037D01*
X234214Y186948D01*
X234212Y186858D01*
X234212Y184769D01*
X234214Y184679D01*
X234220Y184590D01*
X234229Y184500D01*
X234243Y184411D01*
X234260Y184323D01*
X234281Y184236D01*
X234306Y184149D01*
X234335Y184064D01*
X234367Y183980D01*
X234402Y183898D01*
X234442Y183817D01*
X234484Y183738D01*
X234530Y183661D01*
X234580Y183586D01*
X234632Y183513D01*
X234688Y183442D01*
X234746Y183374D01*
X234808Y183309D01*
X234872Y183246D01*
X234939Y183186D01*
X235008Y183129D01*
X235080Y183075D01*
X235154Y183024D01*
X235230Y182976D01*
X235308Y182932D01*
X235388Y182891D01*
X235470Y182853D01*
X235553Y182819D01*
X235638Y182789D01*
X235724Y182762D01*
X235810Y182739D01*
X235898Y182720D01*
X235987Y182705D01*
X236076Y182693D01*
X236165Y182685D01*
X236255Y182681D01*
X236345Y182681D01*
X236435Y182685D01*
X236524Y182693D01*
X236613Y182705D01*
X236702Y182720D01*
X236790Y182739D01*
X236876Y182762D01*
X236962Y182789D01*
X237047Y182819D01*
X237130Y182853D01*
X237212Y182891D01*
X237292Y182932D01*
X237370Y182976D01*
X237446Y183024D01*
X237520Y183075D01*
X237592Y183129D01*
X237661Y183186D01*
X237728Y183246D01*
X237792Y183309D01*
X237854Y183374D01*
X237912Y183442D01*
X237968Y183513D01*
X238020Y183586D01*
X238070Y183661D01*
X238116Y183738D01*
X238158Y183817D01*
X238198Y183898D01*
X238233Y183980D01*
X238265Y184064D01*
X238294Y184149D01*
X238319Y184236D01*
X238340Y184323D01*
X238357Y184411D01*
X238371Y184500D01*
X238380Y184590D01*
X238386Y184679D01*
X238388Y184769D01*
X230159Y184247D02*
X230159Y188946D01*
X230159Y184247D02*
X230157Y184170D01*
X230151Y184094D01*
X230142Y184017D01*
X230129Y183941D01*
X230112Y183866D01*
X230092Y183792D01*
X230067Y183719D01*
X230040Y183648D01*
X230009Y183577D01*
X229974Y183509D01*
X229936Y183442D01*
X229895Y183377D01*
X229851Y183314D01*
X229804Y183254D01*
X229753Y183195D01*
X229700Y183140D01*
X229645Y183087D01*
X229586Y183036D01*
X229526Y182989D01*
X229463Y182945D01*
X229398Y182904D01*
X229331Y182866D01*
X229263Y182831D01*
X229192Y182800D01*
X229121Y182773D01*
X229048Y182748D01*
X228974Y182728D01*
X228899Y182711D01*
X228823Y182698D01*
X228746Y182689D01*
X228670Y182683D01*
X228593Y182681D01*
X225982Y182681D01*
X225982Y188946D01*
X221625Y188946D02*
X221625Y182681D01*
X221625Y188946D02*
X219014Y188946D01*
X218937Y188944D01*
X218861Y188938D01*
X218784Y188929D01*
X218708Y188916D01*
X218634Y188899D01*
X218559Y188879D01*
X218486Y188854D01*
X218415Y188827D01*
X218344Y188796D01*
X218276Y188761D01*
X218209Y188723D01*
X218144Y188682D01*
X218081Y188638D01*
X218021Y188591D01*
X217962Y188540D01*
X217907Y188487D01*
X217854Y188432D01*
X217803Y188373D01*
X217756Y188313D01*
X217712Y188250D01*
X217671Y188185D01*
X217633Y188118D01*
X217598Y188050D01*
X217567Y187979D01*
X217540Y187908D01*
X217515Y187835D01*
X217495Y187761D01*
X217478Y187686D01*
X217465Y187610D01*
X217456Y187534D01*
X217450Y187457D01*
X217448Y187380D01*
X217448Y182681D01*
X214164Y188946D02*
X211031Y188946D01*
X213120Y192079D02*
X213120Y184247D01*
X213119Y184247D02*
X213117Y184170D01*
X213111Y184094D01*
X213102Y184017D01*
X213089Y183941D01*
X213072Y183866D01*
X213052Y183792D01*
X213027Y183719D01*
X213000Y183648D01*
X212969Y183577D01*
X212934Y183509D01*
X212896Y183442D01*
X212855Y183377D01*
X212811Y183314D01*
X212764Y183254D01*
X212713Y183195D01*
X212660Y183140D01*
X212605Y183087D01*
X212546Y183036D01*
X212486Y182989D01*
X212423Y182945D01*
X212358Y182904D01*
X212291Y182866D01*
X212223Y182831D01*
X212152Y182800D01*
X212081Y182773D01*
X212008Y182748D01*
X211934Y182728D01*
X211859Y182711D01*
X211783Y182698D01*
X211706Y182689D01*
X211630Y182683D01*
X211553Y182681D01*
X211031Y182681D01*
X202640Y182681D02*
X200029Y182681D01*
X199928Y182683D01*
X199827Y182689D01*
X199726Y182699D01*
X199626Y182712D01*
X199526Y182730D01*
X199427Y182751D01*
X199329Y182777D01*
X199232Y182806D01*
X199136Y182838D01*
X199042Y182875D01*
X198949Y182915D01*
X198857Y182959D01*
X198768Y183006D01*
X198680Y183057D01*
X198594Y183111D01*
X198511Y183168D01*
X198429Y183228D01*
X198351Y183292D01*
X198274Y183358D01*
X198201Y183428D01*
X198130Y183500D01*
X198062Y183575D01*
X197997Y183653D01*
X197935Y183733D01*
X197876Y183815D01*
X197820Y183900D01*
X197768Y183987D01*
X197719Y184075D01*
X197673Y184166D01*
X197632Y184258D01*
X197593Y184352D01*
X197559Y184447D01*
X197528Y184543D01*
X197501Y184641D01*
X197477Y184739D01*
X197458Y184839D01*
X197442Y184939D01*
X197430Y185039D01*
X197422Y185140D01*
X197418Y185241D01*
X197418Y185343D01*
X197422Y185444D01*
X197430Y185545D01*
X197442Y185645D01*
X197458Y185745D01*
X197477Y185845D01*
X197501Y185943D01*
X197528Y186041D01*
X197559Y186137D01*
X197593Y186232D01*
X197632Y186326D01*
X197673Y186418D01*
X197719Y186509D01*
X197768Y186598D01*
X197820Y186684D01*
X197876Y186769D01*
X197935Y186851D01*
X197997Y186931D01*
X198062Y187009D01*
X198130Y187084D01*
X198201Y187156D01*
X198274Y187226D01*
X198351Y187292D01*
X198429Y187356D01*
X198511Y187416D01*
X198594Y187473D01*
X198680Y187527D01*
X198768Y187578D01*
X198857Y187625D01*
X198949Y187669D01*
X199042Y187709D01*
X199136Y187746D01*
X199232Y187778D01*
X199329Y187807D01*
X199427Y187833D01*
X199526Y187854D01*
X199626Y187872D01*
X199726Y187885D01*
X199827Y187895D01*
X199928Y187901D01*
X200029Y187903D01*
X199507Y192079D02*
X202640Y192079D01*
X199507Y192079D02*
X199417Y192077D01*
X199328Y192071D01*
X199238Y192062D01*
X199149Y192048D01*
X199061Y192031D01*
X198974Y192010D01*
X198887Y191985D01*
X198802Y191956D01*
X198718Y191924D01*
X198636Y191889D01*
X198555Y191849D01*
X198476Y191807D01*
X198399Y191761D01*
X198324Y191711D01*
X198251Y191659D01*
X198180Y191603D01*
X198112Y191545D01*
X198047Y191483D01*
X197984Y191419D01*
X197924Y191352D01*
X197867Y191283D01*
X197813Y191211D01*
X197762Y191137D01*
X197714Y191061D01*
X197670Y190983D01*
X197629Y190903D01*
X197591Y190821D01*
X197557Y190738D01*
X197527Y190653D01*
X197500Y190567D01*
X197477Y190481D01*
X197458Y190393D01*
X197443Y190304D01*
X197431Y190215D01*
X197423Y190126D01*
X197419Y190036D01*
X197419Y189946D01*
X197423Y189856D01*
X197431Y189767D01*
X197443Y189678D01*
X197458Y189589D01*
X197477Y189501D01*
X197500Y189415D01*
X197527Y189329D01*
X197557Y189244D01*
X197591Y189161D01*
X197629Y189079D01*
X197670Y188999D01*
X197714Y188921D01*
X197762Y188845D01*
X197813Y188771D01*
X197867Y188699D01*
X197924Y188630D01*
X197984Y188563D01*
X198047Y188499D01*
X198112Y188437D01*
X198180Y188379D01*
X198251Y188323D01*
X198324Y188271D01*
X198399Y188221D01*
X198476Y188175D01*
X198555Y188133D01*
X198636Y188093D01*
X198718Y188058D01*
X198802Y188026D01*
X198887Y187997D01*
X198974Y187972D01*
X199061Y187951D01*
X199149Y187934D01*
X199238Y187920D01*
X199328Y187911D01*
X199417Y187905D01*
X199507Y187903D01*
X199507Y187902D02*
X201596Y187902D01*
X193496Y189991D02*
X190885Y192079D01*
X190885Y182681D01*
X188275Y182681D02*
X193496Y182681D01*
X184744Y182681D02*
X180567Y188946D01*
X184744Y188946D02*
X180567Y182681D01*
X177037Y182681D02*
X174426Y182681D01*
X174325Y182683D01*
X174224Y182689D01*
X174123Y182699D01*
X174023Y182712D01*
X173923Y182730D01*
X173824Y182751D01*
X173726Y182777D01*
X173629Y182806D01*
X173533Y182838D01*
X173439Y182875D01*
X173346Y182915D01*
X173254Y182959D01*
X173165Y183006D01*
X173077Y183057D01*
X172991Y183111D01*
X172908Y183168D01*
X172826Y183228D01*
X172748Y183292D01*
X172671Y183358D01*
X172598Y183428D01*
X172527Y183500D01*
X172459Y183575D01*
X172394Y183653D01*
X172332Y183733D01*
X172273Y183815D01*
X172217Y183900D01*
X172165Y183987D01*
X172116Y184075D01*
X172070Y184166D01*
X172029Y184258D01*
X171990Y184352D01*
X171956Y184447D01*
X171925Y184543D01*
X171898Y184641D01*
X171874Y184739D01*
X171855Y184839D01*
X171839Y184939D01*
X171827Y185039D01*
X171819Y185140D01*
X171815Y185241D01*
X171815Y185343D01*
X171819Y185444D01*
X171827Y185545D01*
X171839Y185645D01*
X171855Y185745D01*
X171874Y185845D01*
X171898Y185943D01*
X171925Y186041D01*
X171956Y186137D01*
X171990Y186232D01*
X172029Y186326D01*
X172070Y186418D01*
X172116Y186509D01*
X172165Y186598D01*
X172217Y186684D01*
X172273Y186769D01*
X172332Y186851D01*
X172394Y186931D01*
X172459Y187009D01*
X172527Y187084D01*
X172598Y187156D01*
X172671Y187226D01*
X172748Y187292D01*
X172826Y187356D01*
X172908Y187416D01*
X172991Y187473D01*
X173077Y187527D01*
X173165Y187578D01*
X173254Y187625D01*
X173346Y187669D01*
X173439Y187709D01*
X173533Y187746D01*
X173629Y187778D01*
X173726Y187807D01*
X173824Y187833D01*
X173923Y187854D01*
X174023Y187872D01*
X174123Y187885D01*
X174224Y187895D01*
X174325Y187901D01*
X174426Y187903D01*
X173904Y192079D02*
X177037Y192079D01*
X173904Y192079D02*
X173814Y192077D01*
X173725Y192071D01*
X173635Y192062D01*
X173546Y192048D01*
X173458Y192031D01*
X173371Y192010D01*
X173284Y191985D01*
X173199Y191956D01*
X173115Y191924D01*
X173033Y191889D01*
X172952Y191849D01*
X172873Y191807D01*
X172796Y191761D01*
X172721Y191711D01*
X172648Y191659D01*
X172577Y191603D01*
X172509Y191545D01*
X172444Y191483D01*
X172381Y191419D01*
X172321Y191352D01*
X172264Y191283D01*
X172210Y191211D01*
X172159Y191137D01*
X172111Y191061D01*
X172067Y190983D01*
X172026Y190903D01*
X171988Y190821D01*
X171954Y190738D01*
X171924Y190653D01*
X171897Y190567D01*
X171874Y190481D01*
X171855Y190393D01*
X171840Y190304D01*
X171828Y190215D01*
X171820Y190126D01*
X171816Y190036D01*
X171816Y189946D01*
X171820Y189856D01*
X171828Y189767D01*
X171840Y189678D01*
X171855Y189589D01*
X171874Y189501D01*
X171897Y189415D01*
X171924Y189329D01*
X171954Y189244D01*
X171988Y189161D01*
X172026Y189079D01*
X172067Y188999D01*
X172111Y188921D01*
X172159Y188845D01*
X172210Y188771D01*
X172264Y188699D01*
X172321Y188630D01*
X172381Y188563D01*
X172444Y188499D01*
X172509Y188437D01*
X172577Y188379D01*
X172648Y188323D01*
X172721Y188271D01*
X172796Y188221D01*
X172873Y188175D01*
X172952Y188133D01*
X173033Y188093D01*
X173115Y188058D01*
X173199Y188026D01*
X173284Y187997D01*
X173371Y187972D01*
X173458Y187951D01*
X173546Y187934D01*
X173635Y187920D01*
X173725Y187911D01*
X173814Y187905D01*
X173904Y187903D01*
X173904Y187902D02*
X175992Y187902D01*
X167893Y189991D02*
X165282Y192079D01*
X165282Y182681D01*
X162672Y182681D02*
X167893Y182681D01*
X158356Y182681D02*
X158356Y188946D01*
X153657Y188946D01*
X153580Y188944D01*
X153504Y188938D01*
X153427Y188929D01*
X153351Y188916D01*
X153276Y188899D01*
X153202Y188879D01*
X153129Y188854D01*
X153058Y188827D01*
X152987Y188796D01*
X152919Y188761D01*
X152852Y188723D01*
X152787Y188682D01*
X152724Y188638D01*
X152664Y188591D01*
X152605Y188540D01*
X152550Y188487D01*
X152497Y188432D01*
X152446Y188373D01*
X152399Y188313D01*
X152355Y188250D01*
X152314Y188185D01*
X152276Y188118D01*
X152241Y188050D01*
X152210Y187979D01*
X152183Y187908D01*
X152158Y187835D01*
X152138Y187761D01*
X152121Y187686D01*
X152108Y187610D01*
X152099Y187533D01*
X152093Y187457D01*
X152091Y187380D01*
X152091Y182681D01*
X155224Y182681D02*
X155224Y188946D01*
X147384Y188946D02*
X147384Y182681D01*
X147384Y188946D02*
X142685Y188946D01*
X142608Y188944D01*
X142532Y188938D01*
X142455Y188929D01*
X142379Y188916D01*
X142304Y188899D01*
X142230Y188879D01*
X142157Y188854D01*
X142086Y188827D01*
X142015Y188796D01*
X141947Y188761D01*
X141880Y188723D01*
X141815Y188682D01*
X141752Y188638D01*
X141692Y188591D01*
X141633Y188540D01*
X141578Y188487D01*
X141525Y188432D01*
X141474Y188373D01*
X141427Y188313D01*
X141383Y188250D01*
X141342Y188185D01*
X141304Y188118D01*
X141269Y188050D01*
X141238Y187979D01*
X141211Y187908D01*
X141186Y187835D01*
X141166Y187761D01*
X141149Y187686D01*
X141136Y187610D01*
X141127Y187533D01*
X141121Y187457D01*
X141119Y187380D01*
X141118Y187380D02*
X141118Y182681D01*
X144251Y182681D02*
X144251Y188946D01*
X286812Y360301D02*
X289423Y360301D01*
X289500Y360303D01*
X289576Y360309D01*
X289653Y360318D01*
X289729Y360331D01*
X289804Y360348D01*
X289878Y360368D01*
X289951Y360393D01*
X290022Y360420D01*
X290093Y360451D01*
X290161Y360486D01*
X290228Y360524D01*
X290293Y360565D01*
X290356Y360609D01*
X290416Y360656D01*
X290475Y360707D01*
X290530Y360760D01*
X290583Y360815D01*
X290634Y360874D01*
X290681Y360934D01*
X290725Y360997D01*
X290766Y361062D01*
X290804Y361129D01*
X290839Y361197D01*
X290870Y361268D01*
X290897Y361339D01*
X290922Y361412D01*
X290942Y361486D01*
X290959Y361561D01*
X290972Y361637D01*
X290981Y361714D01*
X290987Y361790D01*
X290989Y361867D01*
X290989Y365000D01*
X290987Y365077D01*
X290981Y365153D01*
X290972Y365230D01*
X290959Y365306D01*
X290942Y365381D01*
X290922Y365455D01*
X290897Y365528D01*
X290870Y365599D01*
X290839Y365670D01*
X290804Y365738D01*
X290766Y365805D01*
X290725Y365870D01*
X290681Y365933D01*
X290634Y365993D01*
X290583Y366052D01*
X290530Y366107D01*
X290475Y366160D01*
X290416Y366211D01*
X290356Y366258D01*
X290293Y366302D01*
X290228Y366343D01*
X290161Y366381D01*
X290093Y366416D01*
X290022Y366447D01*
X289951Y366474D01*
X289878Y366499D01*
X289804Y366519D01*
X289729Y366536D01*
X289653Y366549D01*
X289576Y366558D01*
X289500Y366564D01*
X289423Y366566D01*
X286812Y366566D01*
X286812Y358735D01*
X286813Y358735D02*
X286815Y358658D01*
X286821Y358582D01*
X286830Y358505D01*
X286843Y358429D01*
X286860Y358354D01*
X286880Y358280D01*
X286905Y358207D01*
X286932Y358136D01*
X286963Y358065D01*
X286998Y357997D01*
X287036Y357930D01*
X287077Y357865D01*
X287121Y357802D01*
X287168Y357742D01*
X287219Y357683D01*
X287272Y357628D01*
X287327Y357575D01*
X287386Y357524D01*
X287446Y357477D01*
X287509Y357433D01*
X287574Y357392D01*
X287641Y357354D01*
X287709Y357319D01*
X287780Y357288D01*
X287851Y357261D01*
X287924Y357236D01*
X287998Y357216D01*
X288073Y357199D01*
X288149Y357186D01*
X288226Y357177D01*
X288302Y357171D01*
X288379Y357169D01*
X288379Y357168D02*
X290467Y357168D01*
X282759Y360301D02*
X282759Y366566D01*
X283020Y369177D02*
X283020Y369699D01*
X282498Y369699D01*
X282498Y369177D01*
X283020Y369177D01*
X279825Y366566D02*
X276692Y366566D01*
X278781Y369699D02*
X278781Y361867D01*
X278779Y361790D01*
X278773Y361714D01*
X278764Y361637D01*
X278751Y361561D01*
X278734Y361486D01*
X278714Y361412D01*
X278689Y361339D01*
X278662Y361268D01*
X278631Y361197D01*
X278596Y361129D01*
X278558Y361062D01*
X278517Y360997D01*
X278473Y360934D01*
X278426Y360874D01*
X278375Y360815D01*
X278322Y360760D01*
X278267Y360707D01*
X278208Y360656D01*
X278148Y360609D01*
X278085Y360565D01*
X278020Y360524D01*
X277953Y360486D01*
X277885Y360451D01*
X277814Y360420D01*
X277743Y360393D01*
X277670Y360368D01*
X277596Y360348D01*
X277521Y360331D01*
X277445Y360318D01*
X277368Y360309D01*
X277292Y360303D01*
X277215Y360301D01*
X276692Y360301D01*
X272960Y360301D02*
X272960Y369699D01*
X272960Y366566D02*
X270350Y366566D01*
X270273Y366564D01*
X270197Y366558D01*
X270120Y366549D01*
X270044Y366536D01*
X269970Y366519D01*
X269895Y366499D01*
X269822Y366474D01*
X269751Y366447D01*
X269680Y366416D01*
X269612Y366381D01*
X269545Y366343D01*
X269480Y366302D01*
X269417Y366258D01*
X269357Y366211D01*
X269298Y366160D01*
X269243Y366107D01*
X269190Y366052D01*
X269139Y365993D01*
X269092Y365933D01*
X269048Y365870D01*
X269007Y365805D01*
X268969Y365738D01*
X268934Y365670D01*
X268903Y365599D01*
X268876Y365528D01*
X268851Y365455D01*
X268831Y365381D01*
X268814Y365306D01*
X268801Y365230D01*
X268792Y365154D01*
X268786Y365077D01*
X268784Y365000D01*
X268784Y360301D01*
X264426Y361867D02*
X264426Y366566D01*
X264426Y361867D02*
X264424Y361790D01*
X264418Y361714D01*
X264409Y361637D01*
X264396Y361561D01*
X264379Y361486D01*
X264359Y361412D01*
X264334Y361339D01*
X264307Y361268D01*
X264276Y361197D01*
X264241Y361129D01*
X264203Y361062D01*
X264162Y360997D01*
X264118Y360934D01*
X264071Y360874D01*
X264020Y360815D01*
X263967Y360760D01*
X263912Y360707D01*
X263853Y360656D01*
X263793Y360609D01*
X263730Y360565D01*
X263665Y360524D01*
X263598Y360486D01*
X263530Y360451D01*
X263459Y360420D01*
X263388Y360393D01*
X263315Y360368D01*
X263241Y360348D01*
X263166Y360331D01*
X263090Y360318D01*
X263013Y360309D01*
X262937Y360303D01*
X262860Y360301D01*
X260249Y360301D01*
X260249Y366566D01*
X255846Y369699D02*
X255846Y360301D01*
X253236Y360301D01*
X253159Y360303D01*
X253083Y360309D01*
X253006Y360318D01*
X252930Y360331D01*
X252856Y360348D01*
X252781Y360368D01*
X252708Y360393D01*
X252637Y360420D01*
X252566Y360451D01*
X252498Y360486D01*
X252431Y360524D01*
X252366Y360565D01*
X252303Y360609D01*
X252243Y360656D01*
X252184Y360707D01*
X252129Y360760D01*
X252076Y360815D01*
X252025Y360874D01*
X251978Y360934D01*
X251934Y360997D01*
X251893Y361062D01*
X251855Y361129D01*
X251820Y361197D01*
X251789Y361268D01*
X251762Y361339D01*
X251737Y361412D01*
X251717Y361486D01*
X251700Y361561D01*
X251687Y361637D01*
X251678Y361713D01*
X251672Y361790D01*
X251670Y361867D01*
X251669Y361867D02*
X251669Y365000D01*
X251671Y365077D01*
X251677Y365153D01*
X251686Y365230D01*
X251699Y365306D01*
X251716Y365381D01*
X251736Y365455D01*
X251761Y365528D01*
X251788Y365599D01*
X251819Y365670D01*
X251854Y365738D01*
X251892Y365805D01*
X251933Y365870D01*
X251977Y365933D01*
X252024Y365993D01*
X252075Y366052D01*
X252128Y366107D01*
X252183Y366160D01*
X252242Y366211D01*
X252302Y366258D01*
X252365Y366302D01*
X252430Y366343D01*
X252497Y366381D01*
X252565Y366416D01*
X252636Y366447D01*
X252707Y366474D01*
X252780Y366499D01*
X252855Y366519D01*
X252930Y366536D01*
X253005Y366549D01*
X253082Y366558D01*
X253158Y366564D01*
X253235Y366566D01*
X253236Y366566D02*
X255846Y366566D01*
X248273Y360823D02*
X248273Y360301D01*
X248273Y360823D02*
X247751Y360823D01*
X247751Y360301D01*
X248273Y360301D01*
X242733Y360301D02*
X240644Y360301D01*
X242733Y360301D02*
X242810Y360303D01*
X242886Y360309D01*
X242963Y360318D01*
X243039Y360331D01*
X243114Y360348D01*
X243188Y360368D01*
X243261Y360393D01*
X243332Y360420D01*
X243403Y360451D01*
X243471Y360486D01*
X243538Y360524D01*
X243603Y360565D01*
X243666Y360609D01*
X243726Y360656D01*
X243785Y360707D01*
X243840Y360760D01*
X243893Y360815D01*
X243944Y360874D01*
X243991Y360934D01*
X244035Y360997D01*
X244076Y361062D01*
X244114Y361129D01*
X244149Y361197D01*
X244180Y361268D01*
X244207Y361339D01*
X244232Y361412D01*
X244252Y361486D01*
X244269Y361561D01*
X244282Y361637D01*
X244291Y361714D01*
X244297Y361790D01*
X244299Y361867D01*
X244299Y365000D01*
X244297Y365077D01*
X244291Y365153D01*
X244282Y365230D01*
X244269Y365306D01*
X244252Y365381D01*
X244232Y365455D01*
X244207Y365528D01*
X244180Y365599D01*
X244149Y365670D01*
X244114Y365738D01*
X244076Y365805D01*
X244035Y365870D01*
X243991Y365933D01*
X243944Y365993D01*
X243893Y366052D01*
X243840Y366107D01*
X243785Y366160D01*
X243726Y366211D01*
X243666Y366258D01*
X243603Y366302D01*
X243538Y366343D01*
X243471Y366381D01*
X243403Y366416D01*
X243332Y366447D01*
X243261Y366474D01*
X243188Y366499D01*
X243114Y366519D01*
X243039Y366536D01*
X242963Y366549D01*
X242886Y366558D01*
X242810Y366564D01*
X242733Y366566D01*
X240644Y366566D01*
X237299Y364478D02*
X237299Y362389D01*
X237299Y364478D02*
X237297Y364568D01*
X237291Y364657D01*
X237282Y364747D01*
X237268Y364836D01*
X237251Y364924D01*
X237230Y365011D01*
X237205Y365098D01*
X237176Y365183D01*
X237144Y365267D01*
X237109Y365349D01*
X237069Y365430D01*
X237027Y365509D01*
X236981Y365586D01*
X236931Y365661D01*
X236879Y365734D01*
X236823Y365805D01*
X236765Y365873D01*
X236703Y365938D01*
X236639Y366001D01*
X236572Y366061D01*
X236503Y366118D01*
X236431Y366172D01*
X236357Y366223D01*
X236281Y366271D01*
X236203Y366315D01*
X236123Y366356D01*
X236041Y366394D01*
X235958Y366428D01*
X235873Y366458D01*
X235787Y366485D01*
X235701Y366508D01*
X235613Y366527D01*
X235524Y366542D01*
X235435Y366554D01*
X235346Y366562D01*
X235256Y366566D01*
X235166Y366566D01*
X235076Y366562D01*
X234987Y366554D01*
X234898Y366542D01*
X234809Y366527D01*
X234721Y366508D01*
X234635Y366485D01*
X234549Y366458D01*
X234464Y366428D01*
X234381Y366394D01*
X234299Y366356D01*
X234219Y366315D01*
X234141Y366271D01*
X234065Y366223D01*
X233991Y366172D01*
X233919Y366118D01*
X233850Y366061D01*
X233783Y366001D01*
X233719Y365938D01*
X233657Y365873D01*
X233599Y365805D01*
X233543Y365734D01*
X233491Y365661D01*
X233441Y365586D01*
X233395Y365509D01*
X233353Y365430D01*
X233313Y365349D01*
X233278Y365267D01*
X233246Y365183D01*
X233217Y365098D01*
X233192Y365011D01*
X233171Y364924D01*
X233154Y364836D01*
X233140Y364747D01*
X233131Y364657D01*
X233125Y364568D01*
X233123Y364478D01*
X233122Y364478D02*
X233122Y362389D01*
X233123Y362389D02*
X233125Y362299D01*
X233131Y362210D01*
X233140Y362120D01*
X233154Y362031D01*
X233171Y361943D01*
X233192Y361856D01*
X233217Y361769D01*
X233246Y361684D01*
X233278Y361600D01*
X233313Y361518D01*
X233353Y361437D01*
X233395Y361358D01*
X233441Y361281D01*
X233491Y361206D01*
X233543Y361133D01*
X233599Y361062D01*
X233657Y360994D01*
X233719Y360929D01*
X233783Y360866D01*
X233850Y360806D01*
X233919Y360749D01*
X233991Y360695D01*
X234065Y360644D01*
X234141Y360596D01*
X234219Y360552D01*
X234299Y360511D01*
X234381Y360473D01*
X234464Y360439D01*
X234549Y360409D01*
X234635Y360382D01*
X234721Y360359D01*
X234809Y360340D01*
X234898Y360325D01*
X234987Y360313D01*
X235076Y360305D01*
X235166Y360301D01*
X235256Y360301D01*
X235346Y360305D01*
X235435Y360313D01*
X235524Y360325D01*
X235613Y360340D01*
X235701Y360359D01*
X235787Y360382D01*
X235873Y360409D01*
X235958Y360439D01*
X236041Y360473D01*
X236123Y360511D01*
X236203Y360552D01*
X236281Y360596D01*
X236357Y360644D01*
X236431Y360695D01*
X236503Y360749D01*
X236572Y360806D01*
X236639Y360866D01*
X236703Y360929D01*
X236765Y360994D01*
X236823Y361062D01*
X236879Y361133D01*
X236931Y361206D01*
X236981Y361281D01*
X237027Y361358D01*
X237069Y361437D01*
X237109Y361518D01*
X237144Y361600D01*
X237176Y361684D01*
X237205Y361769D01*
X237230Y361856D01*
X237251Y361943D01*
X237268Y362031D01*
X237282Y362120D01*
X237291Y362210D01*
X237297Y362299D01*
X237299Y362389D01*
X228894Y360301D02*
X228894Y366566D01*
X224195Y366566D01*
X224118Y366564D01*
X224042Y366558D01*
X223965Y366549D01*
X223889Y366536D01*
X223814Y366519D01*
X223740Y366499D01*
X223667Y366474D01*
X223596Y366447D01*
X223525Y366416D01*
X223457Y366381D01*
X223390Y366343D01*
X223325Y366302D01*
X223262Y366258D01*
X223202Y366211D01*
X223143Y366160D01*
X223088Y366107D01*
X223035Y366052D01*
X222984Y365993D01*
X222937Y365933D01*
X222893Y365870D01*
X222852Y365805D01*
X222814Y365738D01*
X222779Y365670D01*
X222748Y365599D01*
X222721Y365528D01*
X222696Y365455D01*
X222676Y365381D01*
X222659Y365306D01*
X222646Y365230D01*
X222637Y365153D01*
X222631Y365077D01*
X222629Y365000D01*
X222629Y360301D01*
X225762Y360301D02*
X225762Y366566D01*
X218706Y359257D02*
X214529Y370743D01*
X210607Y366566D02*
X210607Y360301D01*
X210607Y366566D02*
X205908Y366566D01*
X205831Y366564D01*
X205755Y366558D01*
X205678Y366549D01*
X205602Y366536D01*
X205527Y366519D01*
X205453Y366499D01*
X205380Y366474D01*
X205309Y366447D01*
X205238Y366416D01*
X205170Y366381D01*
X205103Y366343D01*
X205038Y366302D01*
X204975Y366258D01*
X204915Y366211D01*
X204856Y366160D01*
X204801Y366107D01*
X204748Y366052D01*
X204697Y365993D01*
X204650Y365933D01*
X204606Y365870D01*
X204565Y365805D01*
X204527Y365738D01*
X204492Y365670D01*
X204461Y365599D01*
X204434Y365528D01*
X204409Y365455D01*
X204389Y365381D01*
X204372Y365306D01*
X204359Y365230D01*
X204350Y365153D01*
X204344Y365077D01*
X204342Y365000D01*
X204341Y365000D02*
X204341Y360301D01*
X207474Y360301D02*
X207474Y366566D01*
X200114Y364478D02*
X200114Y362389D01*
X200113Y364478D02*
X200111Y364568D01*
X200105Y364657D01*
X200096Y364747D01*
X200082Y364836D01*
X200065Y364924D01*
X200044Y365011D01*
X200019Y365098D01*
X199990Y365183D01*
X199958Y365267D01*
X199923Y365349D01*
X199883Y365430D01*
X199841Y365509D01*
X199795Y365586D01*
X199745Y365661D01*
X199693Y365734D01*
X199637Y365805D01*
X199579Y365873D01*
X199517Y365938D01*
X199453Y366001D01*
X199386Y366061D01*
X199317Y366118D01*
X199245Y366172D01*
X199171Y366223D01*
X199095Y366271D01*
X199017Y366315D01*
X198937Y366356D01*
X198855Y366394D01*
X198772Y366428D01*
X198687Y366458D01*
X198601Y366485D01*
X198515Y366508D01*
X198427Y366527D01*
X198338Y366542D01*
X198249Y366554D01*
X198160Y366562D01*
X198070Y366566D01*
X197980Y366566D01*
X197890Y366562D01*
X197801Y366554D01*
X197712Y366542D01*
X197623Y366527D01*
X197535Y366508D01*
X197449Y366485D01*
X197363Y366458D01*
X197278Y366428D01*
X197195Y366394D01*
X197113Y366356D01*
X197033Y366315D01*
X196955Y366271D01*
X196879Y366223D01*
X196805Y366172D01*
X196733Y366118D01*
X196664Y366061D01*
X196597Y366001D01*
X196533Y365938D01*
X196471Y365873D01*
X196413Y365805D01*
X196357Y365734D01*
X196305Y365661D01*
X196255Y365586D01*
X196209Y365509D01*
X196167Y365430D01*
X196127Y365349D01*
X196092Y365267D01*
X196060Y365183D01*
X196031Y365098D01*
X196006Y365011D01*
X195985Y364924D01*
X195968Y364836D01*
X195954Y364747D01*
X195945Y364657D01*
X195939Y364568D01*
X195937Y364478D01*
X195937Y362389D01*
X195939Y362299D01*
X195945Y362210D01*
X195954Y362120D01*
X195968Y362031D01*
X195985Y361943D01*
X196006Y361856D01*
X196031Y361769D01*
X196060Y361684D01*
X196092Y361600D01*
X196127Y361518D01*
X196167Y361437D01*
X196209Y361358D01*
X196255Y361281D01*
X196305Y361206D01*
X196357Y361133D01*
X196413Y361062D01*
X196471Y360994D01*
X196533Y360929D01*
X196597Y360866D01*
X196664Y360806D01*
X196733Y360749D01*
X196805Y360695D01*
X196879Y360644D01*
X196955Y360596D01*
X197033Y360552D01*
X197113Y360511D01*
X197195Y360473D01*
X197278Y360439D01*
X197363Y360409D01*
X197449Y360382D01*
X197535Y360359D01*
X197623Y360340D01*
X197712Y360325D01*
X197801Y360313D01*
X197890Y360305D01*
X197980Y360301D01*
X198070Y360301D01*
X198160Y360305D01*
X198249Y360313D01*
X198338Y360325D01*
X198427Y360340D01*
X198515Y360359D01*
X198601Y360382D01*
X198687Y360409D01*
X198772Y360439D01*
X198855Y360473D01*
X198937Y360511D01*
X199017Y360552D01*
X199095Y360596D01*
X199171Y360644D01*
X199245Y360695D01*
X199317Y360749D01*
X199386Y360806D01*
X199453Y360866D01*
X199517Y360929D01*
X199579Y360994D01*
X199637Y361062D01*
X199693Y361133D01*
X199745Y361206D01*
X199795Y361281D01*
X199841Y361358D01*
X199883Y361437D01*
X199923Y361518D01*
X199958Y361600D01*
X199990Y361684D01*
X200019Y361769D01*
X200044Y361856D01*
X200065Y361943D01*
X200082Y362031D01*
X200096Y362120D01*
X200105Y362210D01*
X200111Y362299D01*
X200113Y362389D01*
X188058Y360301D02*
X188058Y369699D01*
X188058Y360301D02*
X190668Y360301D01*
X190745Y360303D01*
X190821Y360309D01*
X190898Y360318D01*
X190974Y360331D01*
X191049Y360348D01*
X191123Y360368D01*
X191196Y360393D01*
X191267Y360420D01*
X191338Y360451D01*
X191406Y360486D01*
X191473Y360524D01*
X191538Y360565D01*
X191601Y360609D01*
X191661Y360656D01*
X191720Y360707D01*
X191775Y360760D01*
X191828Y360815D01*
X191879Y360874D01*
X191926Y360934D01*
X191970Y360997D01*
X192011Y361062D01*
X192049Y361129D01*
X192084Y361197D01*
X192115Y361268D01*
X192142Y361339D01*
X192167Y361412D01*
X192187Y361486D01*
X192204Y361561D01*
X192217Y361637D01*
X192226Y361714D01*
X192232Y361790D01*
X192234Y361867D01*
X192235Y361867D02*
X192235Y365000D01*
X192234Y365000D02*
X192232Y365077D01*
X192226Y365153D01*
X192217Y365230D01*
X192204Y365306D01*
X192187Y365381D01*
X192167Y365455D01*
X192142Y365528D01*
X192115Y365599D01*
X192084Y365670D01*
X192049Y365738D01*
X192011Y365805D01*
X191970Y365870D01*
X191926Y365933D01*
X191879Y365993D01*
X191828Y366052D01*
X191775Y366107D01*
X191720Y366160D01*
X191661Y366211D01*
X191601Y366258D01*
X191538Y366302D01*
X191473Y366343D01*
X191406Y366381D01*
X191338Y366416D01*
X191267Y366447D01*
X191196Y366474D01*
X191123Y366499D01*
X191049Y366519D01*
X190974Y366536D01*
X190898Y366549D01*
X190821Y366558D01*
X190745Y366564D01*
X190668Y366566D01*
X188058Y366566D01*
X183655Y366566D02*
X183655Y361867D01*
X183654Y361867D02*
X183652Y361790D01*
X183646Y361714D01*
X183637Y361637D01*
X183624Y361561D01*
X183607Y361486D01*
X183587Y361412D01*
X183562Y361339D01*
X183535Y361268D01*
X183504Y361197D01*
X183469Y361129D01*
X183431Y361062D01*
X183390Y360997D01*
X183346Y360934D01*
X183299Y360874D01*
X183248Y360815D01*
X183195Y360760D01*
X183140Y360707D01*
X183081Y360656D01*
X183021Y360609D01*
X182958Y360565D01*
X182893Y360524D01*
X182826Y360486D01*
X182758Y360451D01*
X182687Y360420D01*
X182616Y360393D01*
X182543Y360368D01*
X182469Y360348D01*
X182394Y360331D01*
X182318Y360318D01*
X182241Y360309D01*
X182165Y360303D01*
X182088Y360301D01*
X179478Y360301D01*
X179478Y366566D01*
X175300Y369699D02*
X175300Y361867D01*
X175299Y361867D02*
X175297Y361790D01*
X175291Y361714D01*
X175282Y361637D01*
X175269Y361561D01*
X175252Y361486D01*
X175232Y361412D01*
X175207Y361339D01*
X175180Y361268D01*
X175149Y361197D01*
X175114Y361129D01*
X175076Y361062D01*
X175035Y360997D01*
X174991Y360934D01*
X174944Y360874D01*
X174893Y360815D01*
X174840Y360760D01*
X174785Y360707D01*
X174726Y360656D01*
X174666Y360609D01*
X174603Y360565D01*
X174538Y360524D01*
X174471Y360486D01*
X174403Y360451D01*
X174332Y360420D01*
X174261Y360393D01*
X174188Y360368D01*
X174114Y360348D01*
X174039Y360331D01*
X173963Y360318D01*
X173886Y360309D01*
X173810Y360303D01*
X173733Y360301D01*
X168766Y363956D02*
X166417Y363956D01*
X168766Y363955D02*
X168850Y363953D01*
X168935Y363947D01*
X169018Y363937D01*
X169102Y363924D01*
X169184Y363906D01*
X169266Y363885D01*
X169347Y363860D01*
X169426Y363832D01*
X169504Y363799D01*
X169580Y363763D01*
X169655Y363724D01*
X169728Y363681D01*
X169799Y363635D01*
X169867Y363586D01*
X169933Y363534D01*
X169997Y363478D01*
X170058Y363420D01*
X170116Y363359D01*
X170172Y363295D01*
X170224Y363229D01*
X170273Y363161D01*
X170319Y363090D01*
X170362Y363017D01*
X170401Y362942D01*
X170437Y362866D01*
X170470Y362788D01*
X170498Y362709D01*
X170523Y362628D01*
X170544Y362546D01*
X170562Y362464D01*
X170575Y362380D01*
X170585Y362297D01*
X170591Y362212D01*
X170593Y362128D01*
X170591Y362044D01*
X170585Y361959D01*
X170575Y361876D01*
X170562Y361792D01*
X170544Y361710D01*
X170523Y361628D01*
X170498Y361547D01*
X170470Y361468D01*
X170437Y361390D01*
X170401Y361314D01*
X170362Y361239D01*
X170319Y361166D01*
X170273Y361095D01*
X170224Y361027D01*
X170172Y360961D01*
X170116Y360897D01*
X170058Y360836D01*
X169997Y360778D01*
X169933Y360722D01*
X169867Y360670D01*
X169799Y360621D01*
X169728Y360575D01*
X169655Y360532D01*
X169580Y360493D01*
X169504Y360457D01*
X169426Y360424D01*
X169347Y360396D01*
X169266Y360371D01*
X169184Y360350D01*
X169102Y360332D01*
X169018Y360319D01*
X168935Y360309D01*
X168850Y360303D01*
X168766Y360301D01*
X166417Y360301D01*
X166417Y365000D01*
X166419Y365077D01*
X166425Y365153D01*
X166434Y365230D01*
X166447Y365306D01*
X166464Y365381D01*
X166484Y365455D01*
X166509Y365528D01*
X166536Y365599D01*
X166567Y365670D01*
X166602Y365738D01*
X166640Y365805D01*
X166681Y365870D01*
X166725Y365933D01*
X166772Y365993D01*
X166823Y366052D01*
X166876Y366107D01*
X166931Y366160D01*
X166990Y366211D01*
X167050Y366258D01*
X167113Y366302D01*
X167178Y366343D01*
X167245Y366381D01*
X167313Y366416D01*
X167384Y366447D01*
X167455Y366474D01*
X167528Y366499D01*
X167603Y366519D01*
X167678Y366536D01*
X167753Y366549D01*
X167830Y366558D01*
X167906Y366564D01*
X167983Y366566D01*
X170072Y366566D01*
X161962Y366566D02*
X161962Y360301D01*
X161962Y366566D02*
X158830Y366566D01*
X158830Y365522D01*
X155743Y363956D02*
X149478Y363956D01*
X146323Y366566D02*
X143191Y366566D01*
X145279Y369699D02*
X145279Y361867D01*
X145277Y361790D01*
X145271Y361714D01*
X145262Y361637D01*
X145249Y361561D01*
X145232Y361486D01*
X145212Y361412D01*
X145187Y361339D01*
X145160Y361268D01*
X145129Y361197D01*
X145094Y361129D01*
X145056Y361062D01*
X145015Y360997D01*
X144971Y360934D01*
X144924Y360874D01*
X144873Y360815D01*
X144820Y360760D01*
X144765Y360707D01*
X144706Y360656D01*
X144646Y360609D01*
X144583Y360565D01*
X144518Y360524D01*
X144451Y360486D01*
X144383Y360451D01*
X144312Y360420D01*
X144241Y360393D01*
X144168Y360368D01*
X144094Y360348D01*
X144019Y360331D01*
X143943Y360318D01*
X143866Y360309D01*
X143790Y360303D01*
X143713Y360301D01*
X143191Y360301D01*
X139459Y360301D02*
X139459Y369699D01*
X139459Y366566D02*
X136848Y366566D01*
X136771Y366564D01*
X136695Y366558D01*
X136618Y366549D01*
X136542Y366536D01*
X136468Y366519D01*
X136393Y366499D01*
X136320Y366474D01*
X136249Y366447D01*
X136178Y366416D01*
X136110Y366381D01*
X136043Y366343D01*
X135978Y366302D01*
X135915Y366258D01*
X135855Y366211D01*
X135796Y366160D01*
X135741Y366107D01*
X135688Y366052D01*
X135637Y365993D01*
X135590Y365933D01*
X135546Y365870D01*
X135505Y365805D01*
X135467Y365738D01*
X135432Y365670D01*
X135401Y365599D01*
X135374Y365528D01*
X135349Y365455D01*
X135329Y365381D01*
X135312Y365306D01*
X135299Y365230D01*
X135290Y365154D01*
X135284Y365077D01*
X135282Y365000D01*
X135282Y360301D01*
X131274Y360301D02*
X131274Y366566D01*
X131535Y369177D02*
X131535Y369699D01*
X131013Y369699D01*
X131013Y369177D01*
X131535Y369177D01*
X127267Y366566D02*
X127267Y360301D01*
X127267Y366566D02*
X124656Y366566D01*
X124579Y366564D01*
X124503Y366558D01*
X124426Y366549D01*
X124350Y366536D01*
X124276Y366519D01*
X124201Y366499D01*
X124128Y366474D01*
X124057Y366447D01*
X123986Y366416D01*
X123918Y366381D01*
X123851Y366343D01*
X123786Y366302D01*
X123723Y366258D01*
X123663Y366211D01*
X123604Y366160D01*
X123549Y366107D01*
X123496Y366052D01*
X123445Y365993D01*
X123398Y365933D01*
X123354Y365870D01*
X123313Y365805D01*
X123275Y365738D01*
X123240Y365670D01*
X123209Y365599D01*
X123182Y365528D01*
X123157Y365455D01*
X123137Y365381D01*
X123120Y365306D01*
X123107Y365230D01*
X123098Y365154D01*
X123092Y365077D01*
X123090Y365000D01*
X123090Y360301D01*
X117517Y360301D02*
X114906Y360301D01*
X117517Y360301D02*
X117594Y360303D01*
X117670Y360309D01*
X117747Y360318D01*
X117823Y360331D01*
X117898Y360348D01*
X117972Y360368D01*
X118045Y360393D01*
X118116Y360420D01*
X118187Y360451D01*
X118255Y360486D01*
X118322Y360524D01*
X118387Y360565D01*
X118450Y360609D01*
X118510Y360656D01*
X118569Y360707D01*
X118624Y360760D01*
X118677Y360815D01*
X118728Y360874D01*
X118775Y360934D01*
X118819Y360997D01*
X118860Y361062D01*
X118898Y361129D01*
X118933Y361197D01*
X118964Y361268D01*
X118991Y361339D01*
X119016Y361412D01*
X119036Y361486D01*
X119053Y361561D01*
X119066Y361637D01*
X119075Y361714D01*
X119081Y361790D01*
X119083Y361867D01*
X119083Y365000D01*
X119081Y365077D01*
X119075Y365153D01*
X119066Y365230D01*
X119053Y365306D01*
X119036Y365381D01*
X119016Y365455D01*
X118991Y365528D01*
X118964Y365599D01*
X118933Y365670D01*
X118898Y365738D01*
X118860Y365805D01*
X118819Y365870D01*
X118775Y365933D01*
X118728Y365993D01*
X118677Y366052D01*
X118624Y366107D01*
X118569Y366160D01*
X118510Y366211D01*
X118450Y366258D01*
X118387Y366302D01*
X118322Y366343D01*
X118255Y366381D01*
X118187Y366416D01*
X118116Y366447D01*
X118045Y366474D01*
X117972Y366499D01*
X117898Y366519D01*
X117823Y366536D01*
X117747Y366549D01*
X117670Y366558D01*
X117594Y366564D01*
X117517Y366566D01*
X114906Y366566D01*
X114906Y358735D01*
X114908Y358658D01*
X114914Y358582D01*
X114923Y358505D01*
X114936Y358429D01*
X114953Y358354D01*
X114973Y358280D01*
X114998Y358207D01*
X115025Y358136D01*
X115056Y358065D01*
X115091Y357997D01*
X115129Y357930D01*
X115170Y357865D01*
X115214Y357802D01*
X115261Y357742D01*
X115312Y357683D01*
X115365Y357628D01*
X115420Y357575D01*
X115479Y357524D01*
X115539Y357477D01*
X115602Y357433D01*
X115667Y357392D01*
X115734Y357354D01*
X115802Y357319D01*
X115873Y357288D01*
X115944Y357261D01*
X116017Y357236D01*
X116091Y357216D01*
X116166Y357199D01*
X116242Y357186D01*
X116319Y357177D01*
X116395Y357171D01*
X116472Y357169D01*
X116472Y357168D02*
X118561Y357168D01*
X110025Y363956D02*
X107414Y362912D01*
X110025Y363956D02*
X110091Y363984D01*
X110156Y364017D01*
X110219Y364052D01*
X110280Y364091D01*
X110339Y364133D01*
X110395Y364178D01*
X110449Y364226D01*
X110500Y364277D01*
X110549Y364330D01*
X110594Y364387D01*
X110637Y364445D01*
X110676Y364505D01*
X110713Y364568D01*
X110745Y364633D01*
X110774Y364699D01*
X110800Y364766D01*
X110822Y364835D01*
X110840Y364905D01*
X110855Y364976D01*
X110866Y365047D01*
X110873Y365119D01*
X110876Y365191D01*
X110875Y365263D01*
X110870Y365336D01*
X110862Y365407D01*
X110850Y365479D01*
X110834Y365549D01*
X110814Y365618D01*
X110790Y365687D01*
X110763Y365754D01*
X110733Y365819D01*
X110699Y365883D01*
X110661Y365945D01*
X110621Y366005D01*
X110577Y366062D01*
X110530Y366117D01*
X110480Y366170D01*
X110428Y366219D01*
X110373Y366266D01*
X110316Y366310D01*
X110256Y366351D01*
X110194Y366388D01*
X110130Y366423D01*
X110065Y366453D01*
X109998Y366481D01*
X109930Y366504D01*
X109860Y366524D01*
X109790Y366540D01*
X109719Y366553D01*
X109647Y366561D01*
X109575Y366566D01*
X109503Y366567D01*
X109502Y366566D02*
X109351Y366562D01*
X109200Y366554D01*
X109049Y366543D01*
X108898Y366527D01*
X108748Y366507D01*
X108598Y366484D01*
X108449Y366457D01*
X108301Y366426D01*
X108153Y366391D01*
X108007Y366353D01*
X107861Y366310D01*
X107717Y366264D01*
X107574Y366215D01*
X107432Y366162D01*
X107292Y366105D01*
X107153Y366044D01*
X107414Y362912D02*
X107348Y362884D01*
X107283Y362851D01*
X107220Y362816D01*
X107159Y362777D01*
X107100Y362735D01*
X107044Y362690D01*
X106990Y362642D01*
X106939Y362591D01*
X106890Y362538D01*
X106845Y362481D01*
X106802Y362423D01*
X106763Y362363D01*
X106726Y362300D01*
X106694Y362235D01*
X106665Y362169D01*
X106639Y362102D01*
X106617Y362033D01*
X106599Y361963D01*
X106584Y361892D01*
X106573Y361821D01*
X106566Y361749D01*
X106563Y361677D01*
X106564Y361605D01*
X106569Y361532D01*
X106577Y361461D01*
X106589Y361389D01*
X106605Y361319D01*
X106625Y361250D01*
X106649Y361181D01*
X106676Y361114D01*
X106706Y361049D01*
X106740Y360985D01*
X106778Y360923D01*
X106818Y360863D01*
X106862Y360806D01*
X106909Y360751D01*
X106959Y360698D01*
X107011Y360649D01*
X107066Y360602D01*
X107123Y360558D01*
X107183Y360517D01*
X107245Y360480D01*
X107309Y360445D01*
X107374Y360415D01*
X107441Y360387D01*
X107509Y360364D01*
X107579Y360344D01*
X107649Y360328D01*
X107720Y360315D01*
X107792Y360307D01*
X107864Y360302D01*
X107936Y360301D01*
X108146Y360306D01*
X108355Y360317D01*
X108564Y360332D01*
X108772Y360352D01*
X108980Y360378D01*
X109187Y360408D01*
X109394Y360443D01*
X109599Y360483D01*
X109804Y360527D01*
X110007Y360577D01*
X110210Y360631D01*
X110411Y360691D01*
X110610Y360754D01*
X110808Y360823D01*
X103188Y359257D02*
X99011Y370743D01*
X83683Y92395D02*
X76317Y92395D01*
X83683Y92395D02*
X83683Y94441D01*
X83681Y94530D01*
X83675Y94619D01*
X83665Y94708D01*
X83652Y94796D01*
X83635Y94884D01*
X83613Y94971D01*
X83588Y95056D01*
X83560Y95141D01*
X83527Y95224D01*
X83491Y95306D01*
X83452Y95386D01*
X83409Y95464D01*
X83363Y95540D01*
X83313Y95615D01*
X83260Y95687D01*
X83204Y95756D01*
X83145Y95823D01*
X83084Y95888D01*
X83019Y95949D01*
X82952Y96008D01*
X82883Y96064D01*
X82811Y96117D01*
X82736Y96167D01*
X82660Y96213D01*
X82582Y96256D01*
X82502Y96295D01*
X82420Y96331D01*
X82337Y96364D01*
X82252Y96392D01*
X82167Y96417D01*
X82080Y96439D01*
X81992Y96456D01*
X81904Y96469D01*
X81815Y96479D01*
X81726Y96485D01*
X81637Y96487D01*
X78363Y96487D01*
X78274Y96485D01*
X78185Y96479D01*
X78096Y96469D01*
X78008Y96456D01*
X77920Y96439D01*
X77833Y96417D01*
X77748Y96392D01*
X77663Y96364D01*
X77580Y96331D01*
X77498Y96295D01*
X77418Y96256D01*
X77340Y96213D01*
X77264Y96167D01*
X77189Y96117D01*
X77117Y96064D01*
X77048Y96008D01*
X76981Y95949D01*
X76916Y95888D01*
X76855Y95823D01*
X76796Y95756D01*
X76740Y95687D01*
X76687Y95615D01*
X76637Y95540D01*
X76591Y95464D01*
X76548Y95386D01*
X76509Y95306D01*
X76473Y95224D01*
X76440Y95141D01*
X76412Y95056D01*
X76387Y94971D01*
X76365Y94884D01*
X76348Y94796D01*
X76335Y94708D01*
X76325Y94619D01*
X76319Y94530D01*
X76317Y94441D01*
X76317Y92395D01*
X82046Y99954D02*
X83683Y102000D01*
X76317Y102000D01*
X76317Y99954D02*
X76317Y104046D01*
X80000Y107270D02*
X80153Y107272D01*
X80306Y107278D01*
X80458Y107287D01*
X80611Y107301D01*
X80763Y107318D01*
X80914Y107339D01*
X81065Y107364D01*
X81215Y107393D01*
X81365Y107425D01*
X81513Y107462D01*
X81661Y107502D01*
X81808Y107545D01*
X81953Y107593D01*
X82097Y107644D01*
X82240Y107698D01*
X82382Y107757D01*
X82521Y107818D01*
X82660Y107884D01*
X82660Y107883D02*
X82730Y107909D01*
X82800Y107939D01*
X82867Y107972D01*
X82933Y108008D01*
X82997Y108047D01*
X83059Y108090D01*
X83118Y108136D01*
X83176Y108184D01*
X83230Y108235D01*
X83283Y108289D01*
X83332Y108346D01*
X83379Y108405D01*
X83422Y108466D01*
X83463Y108529D01*
X83500Y108594D01*
X83535Y108661D01*
X83565Y108730D01*
X83593Y108800D01*
X83616Y108871D01*
X83637Y108943D01*
X83653Y109016D01*
X83666Y109090D01*
X83676Y109165D01*
X83681Y109240D01*
X83683Y109315D01*
X83681Y109390D01*
X83676Y109465D01*
X83666Y109540D01*
X83653Y109614D01*
X83637Y109687D01*
X83616Y109759D01*
X83593Y109830D01*
X83565Y109900D01*
X83535Y109969D01*
X83500Y110036D01*
X83463Y110101D01*
X83422Y110164D01*
X83379Y110225D01*
X83332Y110284D01*
X83283Y110341D01*
X83230Y110395D01*
X83176Y110446D01*
X83118Y110495D01*
X83059Y110540D01*
X82997Y110583D01*
X82933Y110622D01*
X82867Y110659D01*
X82799Y110691D01*
X82730Y110721D01*
X82660Y110747D01*
X82660Y110748D02*
X82522Y110813D01*
X82382Y110875D01*
X82240Y110933D01*
X82097Y110988D01*
X81953Y111039D01*
X81808Y111087D01*
X81661Y111130D01*
X81514Y111170D01*
X81365Y111207D01*
X81215Y111239D01*
X81065Y111268D01*
X80914Y111293D01*
X80763Y111314D01*
X80611Y111331D01*
X80458Y111345D01*
X80306Y111354D01*
X80153Y111360D01*
X80000Y111362D01*
X80000Y107269D02*
X79847Y107271D01*
X79694Y107277D01*
X79541Y107286D01*
X79389Y107300D01*
X79237Y107317D01*
X79086Y107338D01*
X78935Y107363D01*
X78784Y107392D01*
X78635Y107424D01*
X78486Y107461D01*
X78339Y107501D01*
X78192Y107544D01*
X78047Y107592D01*
X77902Y107643D01*
X77760Y107698D01*
X77618Y107756D01*
X77478Y107818D01*
X77340Y107883D01*
X77269Y107909D01*
X77200Y107939D01*
X77133Y107972D01*
X77067Y108008D01*
X77003Y108047D01*
X76941Y108090D01*
X76882Y108136D01*
X76824Y108184D01*
X76770Y108235D01*
X76717Y108289D01*
X76668Y108346D01*
X76621Y108405D01*
X76578Y108466D01*
X76537Y108529D01*
X76500Y108594D01*
X76465Y108661D01*
X76435Y108730D01*
X76407Y108800D01*
X76384Y108871D01*
X76363Y108943D01*
X76347Y109016D01*
X76334Y109090D01*
X76324Y109165D01*
X76319Y109240D01*
X76317Y109315D01*
X77340Y110747D02*
X77478Y110812D01*
X77618Y110874D01*
X77760Y110932D01*
X77903Y110987D01*
X78047Y111038D01*
X78192Y111086D01*
X78339Y111129D01*
X78487Y111169D01*
X78635Y111206D01*
X78785Y111238D01*
X78935Y111267D01*
X79086Y111292D01*
X79237Y111313D01*
X79389Y111330D01*
X79542Y111344D01*
X79694Y111353D01*
X79847Y111359D01*
X80000Y111361D01*
X77340Y110747D02*
X77270Y110721D01*
X77200Y110691D01*
X77133Y110659D01*
X77067Y110622D01*
X77003Y110583D01*
X76941Y110540D01*
X76882Y110494D01*
X76824Y110446D01*
X76770Y110395D01*
X76717Y110341D01*
X76668Y110284D01*
X76621Y110225D01*
X76578Y110164D01*
X76537Y110101D01*
X76500Y110036D01*
X76465Y109969D01*
X76435Y109900D01*
X76407Y109830D01*
X76384Y109759D01*
X76363Y109687D01*
X76347Y109614D01*
X76334Y109540D01*
X76324Y109465D01*
X76319Y109390D01*
X76317Y109315D01*
X77954Y107679D02*
X82046Y110952D01*
X84911Y118338D02*
X75089Y118338D01*
X76317Y126872D02*
X83683Y126872D01*
X83683Y124826D02*
X83683Y128918D01*
X83683Y136155D02*
X76317Y131244D01*
X76317Y136155D02*
X83683Y131244D01*
X84911Y142722D02*
X75089Y142722D01*
X76317Y149941D02*
X83683Y149941D01*
X83683Y151987D01*
X83681Y152076D01*
X83675Y152165D01*
X83665Y152254D01*
X83652Y152342D01*
X83635Y152430D01*
X83613Y152517D01*
X83588Y152602D01*
X83560Y152687D01*
X83527Y152770D01*
X83491Y152852D01*
X83452Y152932D01*
X83409Y153010D01*
X83363Y153086D01*
X83313Y153161D01*
X83260Y153233D01*
X83204Y153302D01*
X83145Y153369D01*
X83084Y153434D01*
X83019Y153495D01*
X82952Y153554D01*
X82883Y153610D01*
X82811Y153663D01*
X82736Y153713D01*
X82660Y153759D01*
X82582Y153802D01*
X82502Y153841D01*
X82420Y153877D01*
X82337Y153910D01*
X82252Y153938D01*
X82167Y153963D01*
X82080Y153985D01*
X81992Y154002D01*
X81904Y154015D01*
X81815Y154025D01*
X81726Y154031D01*
X81637Y154033D01*
X81637Y154034D02*
X78363Y154034D01*
X78363Y154033D02*
X78274Y154031D01*
X78185Y154025D01*
X78096Y154015D01*
X78008Y154002D01*
X77920Y153985D01*
X77833Y153963D01*
X77748Y153938D01*
X77663Y153910D01*
X77580Y153877D01*
X77498Y153841D01*
X77418Y153802D01*
X77340Y153759D01*
X77264Y153713D01*
X77189Y153663D01*
X77117Y153610D01*
X77048Y153554D01*
X76981Y153495D01*
X76916Y153434D01*
X76855Y153369D01*
X76796Y153302D01*
X76740Y153233D01*
X76687Y153161D01*
X76637Y153086D01*
X76591Y153010D01*
X76548Y152932D01*
X76509Y152852D01*
X76473Y152770D01*
X76440Y152687D01*
X76412Y152602D01*
X76387Y152517D01*
X76365Y152430D01*
X76348Y152342D01*
X76335Y152254D01*
X76325Y152165D01*
X76319Y152076D01*
X76317Y151987D01*
X76317Y149941D01*
X78363Y157500D02*
X78452Y157502D01*
X78541Y157508D01*
X78630Y157518D01*
X78718Y157531D01*
X78806Y157548D01*
X78893Y157570D01*
X78978Y157595D01*
X79063Y157623D01*
X79146Y157656D01*
X79228Y157692D01*
X79308Y157731D01*
X79386Y157774D01*
X79462Y157820D01*
X79537Y157870D01*
X79609Y157923D01*
X79678Y157979D01*
X79745Y158038D01*
X79810Y158099D01*
X79871Y158164D01*
X79930Y158231D01*
X79986Y158300D01*
X80039Y158372D01*
X80089Y158447D01*
X80135Y158523D01*
X80178Y158601D01*
X80217Y158681D01*
X80253Y158763D01*
X80286Y158846D01*
X80314Y158931D01*
X80339Y159016D01*
X80361Y159103D01*
X80378Y159191D01*
X80391Y159279D01*
X80401Y159368D01*
X80407Y159457D01*
X80409Y159546D01*
X80407Y159635D01*
X80401Y159724D01*
X80391Y159813D01*
X80378Y159901D01*
X80361Y159989D01*
X80339Y160076D01*
X80314Y160161D01*
X80286Y160246D01*
X80253Y160329D01*
X80217Y160411D01*
X80178Y160491D01*
X80135Y160569D01*
X80089Y160645D01*
X80039Y160720D01*
X79986Y160792D01*
X79930Y160861D01*
X79871Y160928D01*
X79810Y160993D01*
X79745Y161054D01*
X79678Y161113D01*
X79609Y161169D01*
X79537Y161222D01*
X79462Y161272D01*
X79386Y161318D01*
X79308Y161361D01*
X79228Y161400D01*
X79146Y161436D01*
X79063Y161469D01*
X78978Y161497D01*
X78893Y161522D01*
X78806Y161544D01*
X78718Y161561D01*
X78630Y161574D01*
X78541Y161584D01*
X78452Y161590D01*
X78363Y161592D01*
X78274Y161590D01*
X78185Y161584D01*
X78096Y161574D01*
X78008Y161561D01*
X77920Y161544D01*
X77833Y161522D01*
X77748Y161497D01*
X77663Y161469D01*
X77580Y161436D01*
X77498Y161400D01*
X77418Y161361D01*
X77340Y161318D01*
X77264Y161272D01*
X77189Y161222D01*
X77117Y161169D01*
X77048Y161113D01*
X76981Y161054D01*
X76916Y160993D01*
X76855Y160928D01*
X76796Y160861D01*
X76740Y160792D01*
X76687Y160720D01*
X76637Y160645D01*
X76591Y160569D01*
X76548Y160491D01*
X76509Y160411D01*
X76473Y160329D01*
X76440Y160246D01*
X76412Y160161D01*
X76387Y160076D01*
X76365Y159989D01*
X76348Y159901D01*
X76335Y159813D01*
X76325Y159724D01*
X76319Y159635D01*
X76317Y159546D01*
X76319Y159457D01*
X76325Y159368D01*
X76335Y159279D01*
X76348Y159191D01*
X76365Y159103D01*
X76387Y159016D01*
X76412Y158931D01*
X76440Y158846D01*
X76473Y158763D01*
X76509Y158681D01*
X76548Y158601D01*
X76591Y158523D01*
X76637Y158447D01*
X76687Y158372D01*
X76740Y158300D01*
X76796Y158231D01*
X76855Y158164D01*
X76916Y158099D01*
X76981Y158038D01*
X77048Y157979D01*
X77117Y157923D01*
X77189Y157870D01*
X77264Y157820D01*
X77340Y157774D01*
X77418Y157731D01*
X77498Y157692D01*
X77580Y157656D01*
X77663Y157623D01*
X77748Y157595D01*
X77833Y157570D01*
X77920Y157548D01*
X78008Y157531D01*
X78096Y157518D01*
X78185Y157508D01*
X78274Y157502D01*
X78363Y157500D01*
X82046Y157909D02*
X82125Y157911D01*
X82204Y157917D01*
X82283Y157926D01*
X82361Y157939D01*
X82438Y157957D01*
X82514Y157977D01*
X82589Y158002D01*
X82663Y158030D01*
X82736Y158061D01*
X82807Y158097D01*
X82876Y158135D01*
X82943Y158177D01*
X83008Y158222D01*
X83071Y158270D01*
X83132Y158321D01*
X83189Y158375D01*
X83245Y158431D01*
X83297Y158490D01*
X83347Y158552D01*
X83393Y158616D01*
X83437Y158682D01*
X83477Y158750D01*
X83513Y158820D01*
X83547Y158892D01*
X83577Y158966D01*
X83603Y159040D01*
X83626Y159116D01*
X83644Y159193D01*
X83660Y159270D01*
X83671Y159349D01*
X83679Y159427D01*
X83683Y159506D01*
X83683Y159586D01*
X83679Y159665D01*
X83671Y159743D01*
X83660Y159822D01*
X83644Y159899D01*
X83626Y159976D01*
X83603Y160052D01*
X83577Y160126D01*
X83547Y160200D01*
X83513Y160272D01*
X83477Y160342D01*
X83437Y160410D01*
X83393Y160476D01*
X83347Y160540D01*
X83297Y160602D01*
X83245Y160661D01*
X83189Y160717D01*
X83132Y160771D01*
X83071Y160822D01*
X83008Y160870D01*
X82943Y160915D01*
X82876Y160957D01*
X82807Y160995D01*
X82736Y161031D01*
X82663Y161062D01*
X82589Y161090D01*
X82514Y161115D01*
X82438Y161135D01*
X82361Y161153D01*
X82283Y161166D01*
X82204Y161175D01*
X82125Y161181D01*
X82046Y161183D01*
X81967Y161181D01*
X81888Y161175D01*
X81809Y161166D01*
X81731Y161153D01*
X81654Y161135D01*
X81578Y161115D01*
X81503Y161090D01*
X81429Y161062D01*
X81356Y161031D01*
X81285Y160995D01*
X81216Y160957D01*
X81149Y160915D01*
X81084Y160870D01*
X81021Y160822D01*
X80960Y160771D01*
X80903Y160717D01*
X80847Y160661D01*
X80795Y160602D01*
X80745Y160540D01*
X80699Y160476D01*
X80655Y160410D01*
X80615Y160342D01*
X80579Y160272D01*
X80545Y160200D01*
X80515Y160126D01*
X80489Y160052D01*
X80466Y159976D01*
X80448Y159899D01*
X80432Y159822D01*
X80421Y159743D01*
X80413Y159665D01*
X80409Y159586D01*
X80409Y159506D01*
X80413Y159427D01*
X80421Y159349D01*
X80432Y159270D01*
X80448Y159193D01*
X80466Y159116D01*
X80489Y159040D01*
X80515Y158966D01*
X80545Y158892D01*
X80579Y158820D01*
X80615Y158750D01*
X80655Y158682D01*
X80699Y158616D01*
X80745Y158552D01*
X80795Y158490D01*
X80847Y158431D01*
X80903Y158375D01*
X80960Y158321D01*
X81021Y158270D01*
X81084Y158222D01*
X81149Y158177D01*
X81216Y158135D01*
X81285Y158097D01*
X81356Y158061D01*
X81429Y158030D01*
X81503Y158002D01*
X81578Y157977D01*
X81654Y157957D01*
X81731Y157939D01*
X81809Y157926D01*
X81888Y157917D01*
X81967Y157911D01*
X82046Y157909D01*
X84911Y168569D02*
X75089Y168569D01*
X76317Y175839D02*
X83683Y175839D01*
X83683Y177886D01*
X83681Y177975D01*
X83675Y178064D01*
X83665Y178153D01*
X83652Y178241D01*
X83635Y178329D01*
X83613Y178416D01*
X83588Y178501D01*
X83560Y178586D01*
X83527Y178669D01*
X83491Y178751D01*
X83452Y178831D01*
X83409Y178909D01*
X83363Y178985D01*
X83313Y179060D01*
X83260Y179132D01*
X83204Y179201D01*
X83145Y179268D01*
X83084Y179333D01*
X83019Y179394D01*
X82952Y179453D01*
X82883Y179509D01*
X82811Y179562D01*
X82736Y179612D01*
X82660Y179658D01*
X82582Y179701D01*
X82502Y179740D01*
X82420Y179776D01*
X82337Y179809D01*
X82252Y179837D01*
X82167Y179862D01*
X82080Y179884D01*
X81992Y179901D01*
X81904Y179914D01*
X81815Y179924D01*
X81726Y179930D01*
X81637Y179932D01*
X81548Y179930D01*
X81459Y179924D01*
X81370Y179914D01*
X81282Y179901D01*
X81194Y179884D01*
X81107Y179862D01*
X81022Y179837D01*
X80937Y179809D01*
X80854Y179776D01*
X80772Y179740D01*
X80692Y179701D01*
X80614Y179658D01*
X80538Y179612D01*
X80463Y179562D01*
X80391Y179509D01*
X80322Y179453D01*
X80255Y179394D01*
X80190Y179333D01*
X80129Y179268D01*
X80070Y179201D01*
X80014Y179132D01*
X79961Y179060D01*
X79911Y178985D01*
X79865Y178909D01*
X79822Y178831D01*
X79783Y178751D01*
X79747Y178669D01*
X79714Y178586D01*
X79686Y178501D01*
X79661Y178416D01*
X79639Y178329D01*
X79622Y178241D01*
X79609Y178153D01*
X79599Y178064D01*
X79593Y177975D01*
X79591Y177886D01*
X79591Y175839D01*
X79591Y178295D02*
X76317Y179932D01*
X76317Y182694D02*
X83683Y187605D01*
X83683Y182694D02*
X76317Y187605D01*
X66507Y211298D02*
X63035Y218243D01*
X59562Y214771D02*
X66507Y211298D01*
X61640Y206431D02*
X60483Y205274D01*
X61641Y206431D02*
X61694Y206488D01*
X61745Y206547D01*
X61793Y206608D01*
X61839Y206671D01*
X61881Y206737D01*
X61920Y206804D01*
X61955Y206874D01*
X61988Y206945D01*
X62017Y207017D01*
X62042Y207091D01*
X62064Y207165D01*
X62083Y207241D01*
X62097Y207318D01*
X62108Y207395D01*
X62116Y207472D01*
X62120Y207550D01*
X62120Y207628D01*
X62116Y207706D01*
X62108Y207783D01*
X62097Y207860D01*
X62083Y207937D01*
X62064Y208013D01*
X62042Y208087D01*
X62017Y208161D01*
X61988Y208233D01*
X61955Y208304D01*
X61920Y208374D01*
X61881Y208441D01*
X61839Y208507D01*
X61793Y208570D01*
X61745Y208631D01*
X61694Y208690D01*
X61641Y208747D01*
X61640Y208746D02*
X58747Y211640D01*
X58688Y211695D01*
X58628Y211747D01*
X58564Y211797D01*
X58498Y211843D01*
X58431Y211886D01*
X58361Y211926D01*
X58289Y211962D01*
X58215Y211994D01*
X58141Y212023D01*
X58064Y212049D01*
X57987Y212070D01*
X57908Y212088D01*
X57829Y212101D01*
X57749Y212111D01*
X57669Y212117D01*
X57589Y212119D01*
X57509Y212117D01*
X57429Y212111D01*
X57349Y212101D01*
X57270Y212088D01*
X57191Y212070D01*
X57114Y212049D01*
X57038Y212023D01*
X56963Y211994D01*
X56889Y211962D01*
X56817Y211926D01*
X56747Y211886D01*
X56680Y211843D01*
X56614Y211797D01*
X56551Y211747D01*
X56490Y211695D01*
X56432Y211640D01*
X55274Y210483D01*
X57330Y202121D02*
X56172Y200963D01*
X57330Y202120D02*
X57383Y202177D01*
X57434Y202236D01*
X57482Y202297D01*
X57528Y202360D01*
X57570Y202426D01*
X57609Y202493D01*
X57644Y202563D01*
X57677Y202634D01*
X57706Y202706D01*
X57731Y202780D01*
X57753Y202854D01*
X57772Y202930D01*
X57786Y203007D01*
X57797Y203084D01*
X57805Y203161D01*
X57809Y203239D01*
X57809Y203317D01*
X57805Y203395D01*
X57797Y203472D01*
X57786Y203549D01*
X57772Y203626D01*
X57753Y203702D01*
X57731Y203776D01*
X57706Y203850D01*
X57677Y203922D01*
X57644Y203993D01*
X57609Y204063D01*
X57570Y204130D01*
X57528Y204196D01*
X57482Y204259D01*
X57434Y204320D01*
X57383Y204379D01*
X57330Y204436D01*
X54436Y207329D01*
X54437Y207330D02*
X54378Y207385D01*
X54318Y207437D01*
X54254Y207487D01*
X54188Y207533D01*
X54121Y207576D01*
X54051Y207616D01*
X53979Y207652D01*
X53905Y207684D01*
X53831Y207713D01*
X53754Y207739D01*
X53677Y207760D01*
X53598Y207778D01*
X53519Y207791D01*
X53439Y207801D01*
X53359Y207807D01*
X53279Y207809D01*
X53199Y207807D01*
X53119Y207801D01*
X53039Y207791D01*
X52960Y207778D01*
X52881Y207760D01*
X52804Y207739D01*
X52728Y207713D01*
X52653Y207684D01*
X52579Y207652D01*
X52507Y207616D01*
X52437Y207576D01*
X52370Y207533D01*
X52304Y207487D01*
X52241Y207437D01*
X52180Y207385D01*
X52122Y207330D01*
X52121Y207329D02*
X50964Y206172D01*
X47874Y199610D02*
X45848Y194690D01*
X50768Y196716D01*
X57561Y72231D02*
X59297Y70494D01*
X57560Y72230D02*
X57505Y72289D01*
X57453Y72349D01*
X57403Y72413D01*
X57357Y72479D01*
X57314Y72546D01*
X57274Y72616D01*
X57238Y72688D01*
X57206Y72762D01*
X57177Y72836D01*
X57151Y72913D01*
X57130Y72990D01*
X57112Y73069D01*
X57099Y73148D01*
X57089Y73228D01*
X57083Y73308D01*
X57081Y73388D01*
X57083Y73468D01*
X57089Y73548D01*
X57099Y73628D01*
X57112Y73707D01*
X57130Y73786D01*
X57151Y73863D01*
X57177Y73939D01*
X57206Y74014D01*
X57238Y74088D01*
X57274Y74160D01*
X57314Y74230D01*
X57357Y74297D01*
X57403Y74363D01*
X57453Y74426D01*
X57505Y74487D01*
X57560Y74546D01*
X57561Y74546D02*
X58140Y75124D01*
X58139Y75125D02*
X58198Y75180D01*
X58259Y75232D01*
X58322Y75282D01*
X58388Y75328D01*
X58455Y75371D01*
X58525Y75411D01*
X58597Y75447D01*
X58671Y75479D01*
X58746Y75508D01*
X58822Y75534D01*
X58899Y75555D01*
X58978Y75573D01*
X59057Y75586D01*
X59137Y75596D01*
X59217Y75602D01*
X59297Y75604D01*
X59377Y75602D01*
X59457Y75596D01*
X59537Y75586D01*
X59616Y75573D01*
X59695Y75555D01*
X59772Y75534D01*
X59848Y75508D01*
X59923Y75479D01*
X59997Y75447D01*
X60069Y75411D01*
X60139Y75371D01*
X60206Y75328D01*
X60272Y75282D01*
X60335Y75232D01*
X60396Y75180D01*
X60455Y75125D01*
X60454Y75124D02*
X62191Y73388D01*
X64506Y75703D01*
X61612Y78597D01*
X59622Y80586D02*
X52678Y77114D01*
X56150Y84059D01*
X49610Y87126D02*
X44691Y89152D01*
X46716Y84233D01*
X234756Y327350D02*
X234758Y327445D01*
X234764Y327539D01*
X234773Y327633D01*
X234786Y327727D01*
X234803Y327820D01*
X234824Y327912D01*
X234849Y328004D01*
X234877Y328094D01*
X234909Y328183D01*
X234944Y328271D01*
X234983Y328357D01*
X235025Y328442D01*
X235071Y328525D01*
X235120Y328606D01*
X235172Y328685D01*
X235227Y328762D01*
X235286Y328836D01*
X235347Y328908D01*
X235411Y328978D01*
X235478Y329045D01*
X235548Y329109D01*
X235620Y329170D01*
X235694Y329229D01*
X235771Y329284D01*
X235850Y329336D01*
X235931Y329385D01*
X236014Y329431D01*
X236099Y329473D01*
X236185Y329512D01*
X236273Y329547D01*
X236362Y329579D01*
X236452Y329607D01*
X236544Y329632D01*
X236636Y329653D01*
X236729Y329670D01*
X236823Y329683D01*
X236917Y329692D01*
X237011Y329698D01*
X237106Y329700D01*
X237106Y329699D02*
X237214Y329697D01*
X237323Y329691D01*
X237431Y329681D01*
X237538Y329668D01*
X237645Y329650D01*
X237752Y329629D01*
X237857Y329604D01*
X237962Y329575D01*
X238065Y329543D01*
X238167Y329506D01*
X238268Y329466D01*
X238367Y329423D01*
X238465Y329376D01*
X238561Y329325D01*
X238655Y329271D01*
X238747Y329214D01*
X238837Y329153D01*
X238925Y329089D01*
X239010Y329023D01*
X239093Y328953D01*
X239173Y328880D01*
X239251Y328804D01*
X239326Y328726D01*
X239398Y328645D01*
X239467Y328561D01*
X239533Y328475D01*
X239596Y328387D01*
X239655Y328296D01*
X239712Y328204D01*
X239765Y328109D01*
X239814Y328012D01*
X239860Y327914D01*
X239903Y327815D01*
X239942Y327713D01*
X239977Y327611D01*
X235539Y325522D02*
X235470Y325591D01*
X235404Y325662D01*
X235340Y325735D01*
X235279Y325811D01*
X235221Y325890D01*
X235167Y325970D01*
X235115Y326053D01*
X235067Y326137D01*
X235021Y326223D01*
X234980Y326311D01*
X234941Y326401D01*
X234906Y326492D01*
X234875Y326584D01*
X234847Y326677D01*
X234823Y326771D01*
X234803Y326866D01*
X234786Y326962D01*
X234773Y327059D01*
X234764Y327156D01*
X234758Y327253D01*
X234756Y327350D01*
X235540Y325522D02*
X239978Y320301D01*
X234757Y320301D01*
X230834Y325000D02*
X230832Y325185D01*
X230825Y325370D01*
X230814Y325554D01*
X230799Y325738D01*
X230779Y325922D01*
X230755Y326106D01*
X230726Y326288D01*
X230693Y326470D01*
X230656Y326651D01*
X230614Y326831D01*
X230568Y327011D01*
X230518Y327189D01*
X230464Y327365D01*
X230405Y327541D01*
X230343Y327715D01*
X230276Y327887D01*
X230205Y328058D01*
X230130Y328227D01*
X230051Y328394D01*
X230021Y328474D01*
X229988Y328553D01*
X229951Y328630D01*
X229911Y328706D01*
X229868Y328780D01*
X229822Y328852D01*
X229772Y328921D01*
X229720Y328989D01*
X229664Y329054D01*
X229606Y329117D01*
X229544Y329176D01*
X229481Y329234D01*
X229414Y329288D01*
X229346Y329339D01*
X229275Y329387D01*
X229202Y329432D01*
X229128Y329474D01*
X229051Y329512D01*
X228973Y329547D01*
X228894Y329579D01*
X228813Y329607D01*
X228731Y329631D01*
X228647Y329652D01*
X228564Y329669D01*
X228479Y329682D01*
X228394Y329691D01*
X228309Y329697D01*
X228223Y329699D01*
X228137Y329697D01*
X228052Y329691D01*
X227967Y329682D01*
X227882Y329669D01*
X227799Y329652D01*
X227715Y329631D01*
X227633Y329607D01*
X227553Y329579D01*
X227473Y329547D01*
X227395Y329512D01*
X227318Y329474D01*
X227244Y329432D01*
X227171Y329387D01*
X227100Y329339D01*
X227032Y329288D01*
X226965Y329234D01*
X226902Y329176D01*
X226841Y329117D01*
X226782Y329054D01*
X226727Y328989D01*
X226674Y328921D01*
X226624Y328852D01*
X226578Y328780D01*
X226535Y328706D01*
X226495Y328630D01*
X226458Y328553D01*
X226425Y328474D01*
X226395Y328394D01*
X226316Y328227D01*
X226241Y328058D01*
X226170Y327887D01*
X226103Y327715D01*
X226041Y327541D01*
X225982Y327365D01*
X225928Y327189D01*
X225878Y327011D01*
X225832Y326831D01*
X225790Y326651D01*
X225753Y326470D01*
X225720Y326288D01*
X225691Y326106D01*
X225667Y325922D01*
X225647Y325738D01*
X225632Y325554D01*
X225621Y325370D01*
X225614Y325185D01*
X225612Y325000D01*
X230834Y325000D02*
X230832Y324815D01*
X230825Y324630D01*
X230814Y324446D01*
X230799Y324262D01*
X230779Y324078D01*
X230755Y323894D01*
X230726Y323712D01*
X230693Y323530D01*
X230656Y323349D01*
X230614Y323169D01*
X230568Y322989D01*
X230518Y322811D01*
X230464Y322635D01*
X230405Y322459D01*
X230343Y322285D01*
X230276Y322113D01*
X230205Y321942D01*
X230130Y321773D01*
X230051Y321606D01*
X230021Y321526D01*
X229988Y321447D01*
X229951Y321370D01*
X229911Y321294D01*
X229868Y321220D01*
X229822Y321148D01*
X229772Y321079D01*
X229719Y321011D01*
X229664Y320946D01*
X229605Y320883D01*
X229544Y320824D01*
X229481Y320766D01*
X229414Y320712D01*
X229346Y320661D01*
X229275Y320613D01*
X229202Y320568D01*
X229128Y320526D01*
X229051Y320488D01*
X228973Y320453D01*
X228894Y320421D01*
X228813Y320393D01*
X228731Y320369D01*
X228647Y320348D01*
X228564Y320331D01*
X228479Y320318D01*
X228394Y320309D01*
X228309Y320303D01*
X228223Y320301D01*
X226395Y321606D02*
X226316Y321773D01*
X226241Y321942D01*
X226170Y322113D01*
X226103Y322285D01*
X226041Y322459D01*
X225982Y322635D01*
X225928Y322811D01*
X225878Y322989D01*
X225832Y323169D01*
X225790Y323349D01*
X225753Y323530D01*
X225720Y323712D01*
X225691Y323894D01*
X225667Y324078D01*
X225647Y324262D01*
X225632Y324446D01*
X225621Y324630D01*
X225614Y324815D01*
X225612Y325000D01*
X226395Y321606D02*
X226425Y321526D01*
X226458Y321447D01*
X226495Y321370D01*
X226535Y321294D01*
X226578Y321220D01*
X226624Y321148D01*
X226674Y321079D01*
X226727Y321011D01*
X226782Y320946D01*
X226841Y320883D01*
X226902Y320824D01*
X226965Y320766D01*
X227032Y320712D01*
X227100Y320661D01*
X227171Y320613D01*
X227244Y320568D01*
X227318Y320526D01*
X227395Y320488D01*
X227473Y320453D01*
X227553Y320421D01*
X227633Y320393D01*
X227715Y320369D01*
X227799Y320348D01*
X227882Y320331D01*
X227967Y320318D01*
X228052Y320309D01*
X228137Y320303D01*
X228223Y320301D01*
X230312Y322389D02*
X226135Y327611D01*
X218818Y329700D02*
X218723Y329698D01*
X218629Y329692D01*
X218535Y329683D01*
X218441Y329670D01*
X218348Y329653D01*
X218256Y329632D01*
X218164Y329607D01*
X218074Y329579D01*
X217985Y329547D01*
X217897Y329512D01*
X217811Y329473D01*
X217726Y329431D01*
X217643Y329385D01*
X217562Y329336D01*
X217483Y329284D01*
X217406Y329229D01*
X217332Y329170D01*
X217260Y329109D01*
X217190Y329045D01*
X217123Y328978D01*
X217059Y328908D01*
X216998Y328836D01*
X216939Y328762D01*
X216884Y328685D01*
X216832Y328606D01*
X216783Y328525D01*
X216737Y328442D01*
X216695Y328357D01*
X216656Y328271D01*
X216621Y328183D01*
X216589Y328094D01*
X216561Y328004D01*
X216536Y327912D01*
X216515Y327820D01*
X216498Y327727D01*
X216485Y327633D01*
X216476Y327539D01*
X216470Y327445D01*
X216468Y327350D01*
X218818Y329699D02*
X218926Y329697D01*
X219035Y329691D01*
X219143Y329681D01*
X219250Y329668D01*
X219357Y329650D01*
X219464Y329629D01*
X219569Y329604D01*
X219674Y329575D01*
X219777Y329543D01*
X219879Y329506D01*
X219980Y329466D01*
X220079Y329423D01*
X220177Y329376D01*
X220273Y329325D01*
X220367Y329271D01*
X220459Y329214D01*
X220549Y329153D01*
X220637Y329089D01*
X220722Y329023D01*
X220805Y328953D01*
X220885Y328880D01*
X220963Y328804D01*
X221038Y328726D01*
X221110Y328645D01*
X221179Y328561D01*
X221245Y328475D01*
X221308Y328387D01*
X221367Y328296D01*
X221424Y328204D01*
X221477Y328109D01*
X221526Y328012D01*
X221572Y327914D01*
X221615Y327815D01*
X221654Y327713D01*
X221689Y327611D01*
X217251Y325522D02*
X217182Y325591D01*
X217116Y325662D01*
X217052Y325735D01*
X216991Y325811D01*
X216933Y325890D01*
X216879Y325970D01*
X216827Y326053D01*
X216779Y326137D01*
X216733Y326223D01*
X216692Y326311D01*
X216653Y326401D01*
X216618Y326492D01*
X216587Y326584D01*
X216559Y326677D01*
X216535Y326771D01*
X216515Y326866D01*
X216498Y326962D01*
X216485Y327059D01*
X216476Y327156D01*
X216470Y327253D01*
X216468Y327350D01*
X217252Y325522D02*
X221690Y320301D01*
X216469Y320301D01*
X212546Y320301D02*
X209935Y320301D01*
X209834Y320303D01*
X209733Y320309D01*
X209632Y320319D01*
X209532Y320332D01*
X209432Y320350D01*
X209333Y320371D01*
X209235Y320397D01*
X209138Y320426D01*
X209042Y320458D01*
X208948Y320495D01*
X208855Y320535D01*
X208763Y320579D01*
X208674Y320626D01*
X208586Y320677D01*
X208500Y320731D01*
X208417Y320788D01*
X208335Y320848D01*
X208257Y320912D01*
X208180Y320978D01*
X208107Y321048D01*
X208036Y321120D01*
X207968Y321195D01*
X207903Y321273D01*
X207841Y321353D01*
X207782Y321435D01*
X207726Y321520D01*
X207674Y321607D01*
X207625Y321695D01*
X207579Y321786D01*
X207538Y321878D01*
X207499Y321972D01*
X207465Y322067D01*
X207434Y322163D01*
X207407Y322261D01*
X207383Y322359D01*
X207364Y322459D01*
X207348Y322559D01*
X207336Y322659D01*
X207328Y322760D01*
X207324Y322861D01*
X207324Y322963D01*
X207328Y323064D01*
X207336Y323165D01*
X207348Y323265D01*
X207364Y323365D01*
X207383Y323465D01*
X207407Y323563D01*
X207434Y323661D01*
X207465Y323757D01*
X207499Y323852D01*
X207538Y323946D01*
X207579Y324038D01*
X207625Y324129D01*
X207674Y324218D01*
X207726Y324304D01*
X207782Y324389D01*
X207841Y324471D01*
X207903Y324551D01*
X207968Y324629D01*
X208036Y324704D01*
X208107Y324776D01*
X208180Y324846D01*
X208257Y324912D01*
X208335Y324976D01*
X208417Y325036D01*
X208500Y325093D01*
X208586Y325147D01*
X208674Y325198D01*
X208763Y325245D01*
X208855Y325289D01*
X208948Y325329D01*
X209042Y325366D01*
X209138Y325398D01*
X209235Y325427D01*
X209333Y325453D01*
X209432Y325474D01*
X209532Y325492D01*
X209632Y325505D01*
X209733Y325515D01*
X209834Y325521D01*
X209935Y325523D01*
X209413Y329699D02*
X212546Y329699D01*
X209413Y329699D02*
X209323Y329697D01*
X209234Y329691D01*
X209144Y329682D01*
X209055Y329668D01*
X208967Y329651D01*
X208880Y329630D01*
X208793Y329605D01*
X208708Y329576D01*
X208624Y329544D01*
X208542Y329509D01*
X208461Y329469D01*
X208382Y329427D01*
X208305Y329381D01*
X208230Y329331D01*
X208157Y329279D01*
X208086Y329223D01*
X208018Y329165D01*
X207953Y329103D01*
X207890Y329039D01*
X207830Y328972D01*
X207773Y328903D01*
X207719Y328831D01*
X207668Y328757D01*
X207620Y328681D01*
X207576Y328603D01*
X207535Y328523D01*
X207497Y328441D01*
X207463Y328358D01*
X207433Y328273D01*
X207406Y328187D01*
X207383Y328101D01*
X207364Y328013D01*
X207349Y327924D01*
X207337Y327835D01*
X207329Y327746D01*
X207325Y327656D01*
X207325Y327566D01*
X207329Y327476D01*
X207337Y327387D01*
X207349Y327298D01*
X207364Y327209D01*
X207383Y327121D01*
X207406Y327035D01*
X207433Y326949D01*
X207463Y326864D01*
X207497Y326781D01*
X207535Y326699D01*
X207576Y326619D01*
X207620Y326541D01*
X207668Y326465D01*
X207719Y326391D01*
X207773Y326319D01*
X207830Y326250D01*
X207890Y326183D01*
X207953Y326119D01*
X208018Y326057D01*
X208086Y325999D01*
X208157Y325943D01*
X208230Y325891D01*
X208305Y325841D01*
X208382Y325795D01*
X208461Y325753D01*
X208542Y325713D01*
X208624Y325678D01*
X208708Y325646D01*
X208793Y325617D01*
X208880Y325592D01*
X208967Y325571D01*
X209055Y325554D01*
X209144Y325540D01*
X209234Y325531D01*
X209323Y325525D01*
X209413Y325523D01*
X209413Y325522D02*
X211502Y325522D01*
X203314Y323956D02*
X197049Y323956D01*
X193039Y327611D02*
X190428Y329699D01*
X190428Y320301D01*
X193039Y320301D02*
X187817Y320301D01*
X183895Y327611D02*
X181284Y329699D01*
X181284Y320301D01*
X178674Y320301D02*
X183895Y320301D01*
X174663Y323956D02*
X168398Y323956D01*
X164388Y325000D02*
X164386Y325185D01*
X164379Y325370D01*
X164368Y325554D01*
X164353Y325738D01*
X164333Y325922D01*
X164309Y326106D01*
X164280Y326288D01*
X164247Y326470D01*
X164210Y326651D01*
X164168Y326831D01*
X164122Y327011D01*
X164072Y327189D01*
X164018Y327365D01*
X163959Y327541D01*
X163897Y327715D01*
X163830Y327887D01*
X163759Y328058D01*
X163684Y328227D01*
X163605Y328394D01*
X163575Y328474D01*
X163542Y328553D01*
X163505Y328630D01*
X163465Y328706D01*
X163422Y328780D01*
X163376Y328852D01*
X163326Y328921D01*
X163274Y328989D01*
X163218Y329054D01*
X163160Y329117D01*
X163098Y329176D01*
X163035Y329234D01*
X162968Y329288D01*
X162900Y329339D01*
X162829Y329387D01*
X162756Y329432D01*
X162682Y329474D01*
X162605Y329512D01*
X162527Y329547D01*
X162448Y329579D01*
X162367Y329607D01*
X162285Y329631D01*
X162201Y329652D01*
X162118Y329669D01*
X162033Y329682D01*
X161948Y329691D01*
X161863Y329697D01*
X161777Y329699D01*
X161691Y329697D01*
X161606Y329691D01*
X161521Y329682D01*
X161436Y329669D01*
X161353Y329652D01*
X161269Y329631D01*
X161187Y329607D01*
X161107Y329579D01*
X161027Y329547D01*
X160949Y329512D01*
X160872Y329474D01*
X160798Y329432D01*
X160725Y329387D01*
X160654Y329339D01*
X160586Y329288D01*
X160519Y329234D01*
X160456Y329176D01*
X160395Y329117D01*
X160336Y329054D01*
X160281Y328989D01*
X160228Y328921D01*
X160178Y328852D01*
X160132Y328780D01*
X160089Y328706D01*
X160049Y328630D01*
X160012Y328553D01*
X159979Y328474D01*
X159949Y328394D01*
X159870Y328227D01*
X159795Y328058D01*
X159724Y327887D01*
X159657Y327715D01*
X159595Y327541D01*
X159536Y327365D01*
X159482Y327189D01*
X159432Y327011D01*
X159386Y326831D01*
X159344Y326651D01*
X159307Y326470D01*
X159274Y326288D01*
X159245Y326106D01*
X159221Y325922D01*
X159201Y325738D01*
X159186Y325554D01*
X159175Y325370D01*
X159168Y325185D01*
X159166Y325000D01*
X164388Y325000D02*
X164386Y324815D01*
X164379Y324630D01*
X164368Y324446D01*
X164353Y324262D01*
X164333Y324078D01*
X164309Y323894D01*
X164280Y323712D01*
X164247Y323530D01*
X164210Y323349D01*
X164168Y323169D01*
X164122Y322989D01*
X164072Y322811D01*
X164018Y322635D01*
X163959Y322459D01*
X163897Y322285D01*
X163830Y322113D01*
X163759Y321942D01*
X163684Y321773D01*
X163605Y321606D01*
X163575Y321526D01*
X163542Y321447D01*
X163505Y321370D01*
X163465Y321294D01*
X163422Y321220D01*
X163376Y321148D01*
X163326Y321079D01*
X163273Y321011D01*
X163218Y320946D01*
X163159Y320883D01*
X163098Y320824D01*
X163035Y320766D01*
X162968Y320712D01*
X162900Y320661D01*
X162829Y320613D01*
X162756Y320568D01*
X162682Y320526D01*
X162605Y320488D01*
X162527Y320453D01*
X162448Y320421D01*
X162367Y320393D01*
X162285Y320369D01*
X162201Y320348D01*
X162118Y320331D01*
X162033Y320318D01*
X161948Y320309D01*
X161863Y320303D01*
X161777Y320301D01*
X159949Y321606D02*
X159870Y321773D01*
X159795Y321942D01*
X159724Y322113D01*
X159657Y322285D01*
X159595Y322459D01*
X159536Y322635D01*
X159482Y322811D01*
X159432Y322989D01*
X159386Y323169D01*
X159344Y323349D01*
X159307Y323530D01*
X159274Y323712D01*
X159245Y323894D01*
X159221Y324078D01*
X159201Y324262D01*
X159186Y324446D01*
X159175Y324630D01*
X159168Y324815D01*
X159166Y325000D01*
X159949Y321606D02*
X159979Y321526D01*
X160012Y321447D01*
X160049Y321370D01*
X160089Y321294D01*
X160132Y321220D01*
X160178Y321148D01*
X160228Y321079D01*
X160281Y321011D01*
X160336Y320946D01*
X160395Y320883D01*
X160456Y320824D01*
X160519Y320766D01*
X160586Y320712D01*
X160654Y320661D01*
X160725Y320613D01*
X160798Y320568D01*
X160872Y320526D01*
X160949Y320488D01*
X161027Y320453D01*
X161107Y320421D01*
X161187Y320393D01*
X161269Y320369D01*
X161353Y320348D01*
X161436Y320331D01*
X161521Y320318D01*
X161606Y320309D01*
X161691Y320303D01*
X161777Y320301D01*
X163865Y322389D02*
X159688Y327611D01*
X155243Y320301D02*
X152633Y320301D01*
X152532Y320303D01*
X152431Y320309D01*
X152330Y320319D01*
X152230Y320332D01*
X152130Y320350D01*
X152031Y320371D01*
X151933Y320397D01*
X151836Y320426D01*
X151740Y320458D01*
X151646Y320495D01*
X151553Y320535D01*
X151461Y320579D01*
X151372Y320626D01*
X151284Y320677D01*
X151198Y320731D01*
X151115Y320788D01*
X151033Y320848D01*
X150955Y320912D01*
X150878Y320978D01*
X150805Y321048D01*
X150734Y321120D01*
X150666Y321195D01*
X150601Y321273D01*
X150539Y321353D01*
X150480Y321435D01*
X150424Y321520D01*
X150372Y321607D01*
X150323Y321695D01*
X150277Y321786D01*
X150236Y321878D01*
X150197Y321972D01*
X150163Y322067D01*
X150132Y322163D01*
X150105Y322261D01*
X150081Y322359D01*
X150062Y322459D01*
X150046Y322559D01*
X150034Y322659D01*
X150026Y322760D01*
X150022Y322861D01*
X150022Y322963D01*
X150026Y323064D01*
X150034Y323165D01*
X150046Y323265D01*
X150062Y323365D01*
X150081Y323465D01*
X150105Y323563D01*
X150132Y323661D01*
X150163Y323757D01*
X150197Y323852D01*
X150236Y323946D01*
X150277Y324038D01*
X150323Y324129D01*
X150372Y324218D01*
X150424Y324304D01*
X150480Y324389D01*
X150539Y324471D01*
X150601Y324551D01*
X150666Y324629D01*
X150734Y324704D01*
X150805Y324776D01*
X150878Y324846D01*
X150955Y324912D01*
X151033Y324976D01*
X151115Y325036D01*
X151198Y325093D01*
X151284Y325147D01*
X151372Y325198D01*
X151461Y325245D01*
X151553Y325289D01*
X151646Y325329D01*
X151740Y325366D01*
X151836Y325398D01*
X151933Y325427D01*
X152031Y325453D01*
X152130Y325474D01*
X152230Y325492D01*
X152330Y325505D01*
X152431Y325515D01*
X152532Y325521D01*
X152633Y325523D01*
X152111Y329699D02*
X155243Y329699D01*
X152111Y329699D02*
X152021Y329697D01*
X151932Y329691D01*
X151842Y329682D01*
X151753Y329668D01*
X151665Y329651D01*
X151578Y329630D01*
X151491Y329605D01*
X151406Y329576D01*
X151322Y329544D01*
X151240Y329509D01*
X151159Y329469D01*
X151080Y329427D01*
X151003Y329381D01*
X150928Y329331D01*
X150855Y329279D01*
X150784Y329223D01*
X150716Y329165D01*
X150651Y329103D01*
X150588Y329039D01*
X150528Y328972D01*
X150471Y328903D01*
X150417Y328831D01*
X150366Y328757D01*
X150318Y328681D01*
X150274Y328603D01*
X150233Y328523D01*
X150195Y328441D01*
X150161Y328358D01*
X150131Y328273D01*
X150104Y328187D01*
X150081Y328101D01*
X150062Y328013D01*
X150047Y327924D01*
X150035Y327835D01*
X150027Y327746D01*
X150023Y327656D01*
X150023Y327566D01*
X150027Y327476D01*
X150035Y327387D01*
X150047Y327298D01*
X150062Y327209D01*
X150081Y327121D01*
X150104Y327035D01*
X150131Y326949D01*
X150161Y326864D01*
X150195Y326781D01*
X150233Y326699D01*
X150274Y326619D01*
X150318Y326541D01*
X150366Y326465D01*
X150417Y326391D01*
X150471Y326319D01*
X150528Y326250D01*
X150588Y326183D01*
X150651Y326119D01*
X150716Y326057D01*
X150784Y325999D01*
X150855Y325943D01*
X150928Y325891D01*
X151003Y325841D01*
X151080Y325795D01*
X151159Y325753D01*
X151240Y325713D01*
X151322Y325678D01*
X151406Y325646D01*
X151491Y325617D01*
X151578Y325592D01*
X151665Y325571D01*
X151753Y325554D01*
X151842Y325540D01*
X151932Y325531D01*
X152021Y325525D01*
X152111Y325523D01*
X152111Y325522D02*
X154199Y325522D01*
D11*
X73130Y108250D02*
X73130Y95550D01*
M02*
