G04 EAGLE Gerber RS-274X export*
G75*
%MOMM*%
%FSLAX34Y34*%
%LPD*%
%INSolderpaste Top*%
%IPPOS*%
%AMOC8*
5,1,8,0,0,1.08239X$1,22.5*%
G01*
G04 Define Apertures*
G36*
X112450Y32450D02*
X112363Y31793D01*
X112110Y31180D01*
X111706Y30654D01*
X111180Y30250D01*
X110567Y29997D01*
X109910Y29910D01*
X101020Y29910D01*
X99286Y30081D01*
X97618Y30587D01*
X96081Y31408D01*
X94734Y32514D01*
X93628Y33861D01*
X92807Y35398D01*
X92301Y37066D01*
X92130Y38800D01*
X92301Y40534D01*
X92807Y42202D01*
X93628Y43739D01*
X94734Y45086D01*
X96081Y46192D01*
X97618Y47013D01*
X99286Y47519D01*
X101020Y47690D01*
X109910Y47690D01*
X110567Y47603D01*
X111180Y47350D01*
X111706Y46946D01*
X112110Y46420D01*
X112363Y45807D01*
X112450Y45150D01*
X112450Y32450D01*
G37*
G36*
X112450Y57850D02*
X112363Y57193D01*
X112110Y56580D01*
X111706Y56054D01*
X111180Y55650D01*
X110567Y55397D01*
X109910Y55310D01*
X101020Y55310D01*
X99286Y55481D01*
X97618Y55987D01*
X96081Y56808D01*
X94734Y57914D01*
X93628Y59261D01*
X92807Y60798D01*
X92301Y62466D01*
X92130Y64200D01*
X92301Y65934D01*
X92807Y67602D01*
X93628Y69139D01*
X94734Y70486D01*
X96081Y71592D01*
X97618Y72413D01*
X99286Y72919D01*
X101020Y73090D01*
X109910Y73090D01*
X110567Y73003D01*
X111180Y72750D01*
X111706Y72346D01*
X112110Y71820D01*
X112363Y71207D01*
X112450Y70550D01*
X112450Y57850D01*
G37*
G36*
X112450Y83250D02*
X112363Y82593D01*
X112110Y81980D01*
X111706Y81454D01*
X111180Y81050D01*
X110567Y80797D01*
X109910Y80710D01*
X101020Y80710D01*
X99286Y80881D01*
X97618Y81387D01*
X96081Y82208D01*
X94734Y83314D01*
X93628Y84661D01*
X92807Y86198D01*
X92301Y87866D01*
X92130Y89600D01*
X92301Y91334D01*
X92807Y93002D01*
X93628Y94539D01*
X94734Y95886D01*
X96081Y96992D01*
X97618Y97813D01*
X99286Y98319D01*
X101020Y98490D01*
X109910Y98490D01*
X110567Y98403D01*
X111180Y98150D01*
X111706Y97746D01*
X112110Y97220D01*
X112363Y96607D01*
X112450Y95950D01*
X112450Y83250D01*
G37*
G36*
X112450Y108650D02*
X112363Y107993D01*
X112110Y107380D01*
X111706Y106854D01*
X111180Y106450D01*
X110567Y106197D01*
X109910Y106110D01*
X101020Y106110D01*
X99286Y106281D01*
X97618Y106787D01*
X96081Y107608D01*
X94734Y108714D01*
X93628Y110061D01*
X92807Y111598D01*
X92301Y113266D01*
X92130Y115000D01*
X92301Y116734D01*
X92807Y118402D01*
X93628Y119939D01*
X94734Y121286D01*
X96081Y122392D01*
X97618Y123213D01*
X99286Y123719D01*
X101020Y123890D01*
X109910Y123890D01*
X110567Y123803D01*
X111180Y123550D01*
X111706Y123146D01*
X112110Y122620D01*
X112363Y122007D01*
X112450Y121350D01*
X112450Y108650D01*
G37*
G36*
X112450Y134050D02*
X112363Y133393D01*
X112110Y132780D01*
X111706Y132254D01*
X111180Y131850D01*
X110567Y131597D01*
X109910Y131510D01*
X101020Y131510D01*
X99286Y131681D01*
X97618Y132187D01*
X96081Y133008D01*
X94734Y134114D01*
X93628Y135461D01*
X92807Y136998D01*
X92301Y138666D01*
X92130Y140400D01*
X92301Y142134D01*
X92807Y143802D01*
X93628Y145339D01*
X94734Y146686D01*
X96081Y147792D01*
X97618Y148613D01*
X99286Y149119D01*
X101020Y149290D01*
X109910Y149290D01*
X110567Y149203D01*
X111180Y148950D01*
X111706Y148546D01*
X112110Y148020D01*
X112363Y147407D01*
X112450Y146750D01*
X112450Y134050D01*
G37*
G36*
X112450Y159450D02*
X112363Y158793D01*
X112110Y158180D01*
X111706Y157654D01*
X111180Y157250D01*
X110567Y156997D01*
X109910Y156910D01*
X101020Y156910D01*
X99286Y157081D01*
X97618Y157587D01*
X96081Y158408D01*
X94734Y159514D01*
X93628Y160861D01*
X92807Y162398D01*
X92301Y164066D01*
X92130Y165800D01*
X92301Y167534D01*
X92807Y169202D01*
X93628Y170739D01*
X94734Y172086D01*
X96081Y173192D01*
X97618Y174013D01*
X99286Y174519D01*
X101020Y174690D01*
X109910Y174690D01*
X110567Y174603D01*
X111180Y174350D01*
X111706Y173946D01*
X112110Y173420D01*
X112363Y172807D01*
X112450Y172150D01*
X112450Y159450D01*
G37*
G36*
X112450Y184850D02*
X112363Y184193D01*
X112110Y183580D01*
X111706Y183054D01*
X111180Y182650D01*
X110567Y182397D01*
X109910Y182310D01*
X101020Y182310D01*
X99286Y182481D01*
X97618Y182987D01*
X96081Y183808D01*
X94734Y184914D01*
X93628Y186261D01*
X92807Y187798D01*
X92301Y189466D01*
X92130Y191200D01*
X92301Y192934D01*
X92807Y194602D01*
X93628Y196139D01*
X94734Y197486D01*
X96081Y198592D01*
X97618Y199413D01*
X99286Y199919D01*
X101020Y200090D01*
X109910Y200090D01*
X110567Y200003D01*
X111180Y199750D01*
X111706Y199346D01*
X112110Y198820D01*
X112363Y198207D01*
X112450Y197550D01*
X112450Y184850D01*
G37*
G36*
X277550Y45150D02*
X277637Y45807D01*
X277890Y46420D01*
X278294Y46946D01*
X278820Y47350D01*
X279433Y47603D01*
X280090Y47690D01*
X288980Y47690D01*
X290714Y47519D01*
X292382Y47013D01*
X293919Y46192D01*
X295266Y45086D01*
X296372Y43739D01*
X297193Y42202D01*
X297699Y40534D01*
X297870Y38800D01*
X297699Y37066D01*
X297193Y35398D01*
X296372Y33861D01*
X295266Y32514D01*
X293919Y31408D01*
X292382Y30587D01*
X290714Y30081D01*
X288980Y29910D01*
X280090Y29910D01*
X279433Y29997D01*
X278820Y30250D01*
X278294Y30654D01*
X277890Y31180D01*
X277637Y31793D01*
X277550Y32450D01*
X277550Y45150D01*
G37*
G36*
X277550Y70550D02*
X277637Y71207D01*
X277890Y71820D01*
X278294Y72346D01*
X278820Y72750D01*
X279433Y73003D01*
X280090Y73090D01*
X288980Y73090D01*
X290714Y72919D01*
X292382Y72413D01*
X293919Y71592D01*
X295266Y70486D01*
X296372Y69139D01*
X297193Y67602D01*
X297699Y65934D01*
X297870Y64200D01*
X297699Y62466D01*
X297193Y60798D01*
X296372Y59261D01*
X295266Y57914D01*
X293919Y56808D01*
X292382Y55987D01*
X290714Y55481D01*
X288980Y55310D01*
X280090Y55310D01*
X279433Y55397D01*
X278820Y55650D01*
X278294Y56054D01*
X277890Y56580D01*
X277637Y57193D01*
X277550Y57850D01*
X277550Y70550D01*
G37*
G36*
X277550Y95950D02*
X277637Y96607D01*
X277890Y97220D01*
X278294Y97746D01*
X278820Y98150D01*
X279433Y98403D01*
X280090Y98490D01*
X288980Y98490D01*
X290714Y98319D01*
X292382Y97813D01*
X293919Y96992D01*
X295266Y95886D01*
X296372Y94539D01*
X297193Y93002D01*
X297699Y91334D01*
X297870Y89600D01*
X297699Y87866D01*
X297193Y86198D01*
X296372Y84661D01*
X295266Y83314D01*
X293919Y82208D01*
X292382Y81387D01*
X290714Y80881D01*
X288980Y80710D01*
X280090Y80710D01*
X279433Y80797D01*
X278820Y81050D01*
X278294Y81454D01*
X277890Y81980D01*
X277637Y82593D01*
X277550Y83250D01*
X277550Y95950D01*
G37*
G36*
X277550Y121350D02*
X277637Y122007D01*
X277890Y122620D01*
X278294Y123146D01*
X278820Y123550D01*
X279433Y123803D01*
X280090Y123890D01*
X288980Y123890D01*
X290714Y123719D01*
X292382Y123213D01*
X293919Y122392D01*
X295266Y121286D01*
X296372Y119939D01*
X297193Y118402D01*
X297699Y116734D01*
X297870Y115000D01*
X297699Y113266D01*
X297193Y111598D01*
X296372Y110061D01*
X295266Y108714D01*
X293919Y107608D01*
X292382Y106787D01*
X290714Y106281D01*
X288980Y106110D01*
X280090Y106110D01*
X279433Y106197D01*
X278820Y106450D01*
X278294Y106854D01*
X277890Y107380D01*
X277637Y107993D01*
X277550Y108650D01*
X277550Y121350D01*
G37*
G36*
X277550Y146750D02*
X277637Y147407D01*
X277890Y148020D01*
X278294Y148546D01*
X278820Y148950D01*
X279433Y149203D01*
X280090Y149290D01*
X288980Y149290D01*
X290714Y149119D01*
X292382Y148613D01*
X293919Y147792D01*
X295266Y146686D01*
X296372Y145339D01*
X297193Y143802D01*
X297699Y142134D01*
X297870Y140400D01*
X297699Y138666D01*
X297193Y136998D01*
X296372Y135461D01*
X295266Y134114D01*
X293919Y133008D01*
X292382Y132187D01*
X290714Y131681D01*
X288980Y131510D01*
X280090Y131510D01*
X279433Y131597D01*
X278820Y131850D01*
X278294Y132254D01*
X277890Y132780D01*
X277637Y133393D01*
X277550Y134050D01*
X277550Y146750D01*
G37*
G36*
X277550Y172150D02*
X277637Y172807D01*
X277890Y173420D01*
X278294Y173946D01*
X278820Y174350D01*
X279433Y174603D01*
X280090Y174690D01*
X288980Y174690D01*
X290714Y174519D01*
X292382Y174013D01*
X293919Y173192D01*
X295266Y172086D01*
X296372Y170739D01*
X297193Y169202D01*
X297699Y167534D01*
X297870Y165800D01*
X297699Y164066D01*
X297193Y162398D01*
X296372Y160861D01*
X295266Y159514D01*
X293919Y158408D01*
X292382Y157587D01*
X290714Y157081D01*
X288980Y156910D01*
X280090Y156910D01*
X279433Y156997D01*
X278820Y157250D01*
X278294Y157654D01*
X277890Y158180D01*
X277637Y158793D01*
X277550Y159450D01*
X277550Y172150D01*
G37*
G36*
X277550Y197550D02*
X277637Y198207D01*
X277890Y198820D01*
X278294Y199346D01*
X278820Y199750D01*
X279433Y200003D01*
X280090Y200090D01*
X288980Y200090D01*
X290714Y199919D01*
X292382Y199413D01*
X293919Y198592D01*
X295266Y197486D01*
X296372Y196139D01*
X297193Y194602D01*
X297699Y192934D01*
X297870Y191200D01*
X297699Y189466D01*
X297193Y187798D01*
X296372Y186261D01*
X295266Y184914D01*
X293919Y183808D01*
X292382Y182987D01*
X290714Y182481D01*
X288980Y182310D01*
X280090Y182310D01*
X279433Y182397D01*
X278820Y182650D01*
X278294Y183054D01*
X277890Y183580D01*
X277637Y184193D01*
X277550Y184850D01*
X277550Y197550D01*
G37*
M02*
