G04 EAGLE Gerber RS-274X export*
G75*
%MOMM*%
%FSLAX34Y34*%
%LPD*%
%INBottom Copper*%
%IPPOS*%
%AMOC8*
5,1,8,0,0,1.08239X$1,22.5*%
G01*
G04 Define Apertures*
%ADD10C,1.828800*%
%ADD11C,1.879600*%
%ADD12C,1.524000*%
%ADD13C,0.756400*%
%ADD14C,0.508000*%
%ADD15C,1.270000*%
%ADD16C,0.812800*%
%ADD17C,0.304800*%
G36*
X350119Y13565D02*
X350000Y13556D01*
X40000Y13556D01*
X39881Y13565D01*
X31945Y14822D01*
X31718Y14896D01*
X24559Y18544D01*
X24366Y18684D01*
X18684Y24366D01*
X18544Y24559D01*
X14896Y31718D01*
X14822Y31945D01*
X13565Y39881D01*
X13556Y40000D01*
X13556Y111787D01*
X13603Y112050D01*
X13762Y112308D01*
X14010Y112484D01*
X14306Y112549D01*
X14604Y112493D01*
X14857Y112326D01*
X20627Y106555D01*
X20788Y106319D01*
X20850Y106023D01*
X20792Y105725D01*
X20108Y104073D01*
X20108Y99727D01*
X21771Y95713D01*
X24843Y92641D01*
X28857Y90978D01*
X33203Y90978D01*
X34855Y91662D01*
X35134Y91720D01*
X35433Y91665D01*
X35685Y91497D01*
X92522Y34661D01*
X92687Y34414D01*
X93373Y32757D01*
X96374Y29756D01*
X100295Y28132D01*
X122827Y28132D01*
X126748Y29756D01*
X129749Y32757D01*
X131373Y36678D01*
X131373Y40922D01*
X129749Y44843D01*
X126748Y47844D01*
X122827Y49468D01*
X100295Y49468D01*
X96374Y47844D01*
X94143Y45612D01*
X93912Y45454D01*
X93616Y45389D01*
X93318Y45445D01*
X93065Y45612D01*
X41433Y97245D01*
X41272Y97481D01*
X41210Y97777D01*
X41268Y98075D01*
X41952Y99728D01*
X41952Y104073D01*
X40289Y108087D01*
X37217Y111159D01*
X33203Y112822D01*
X28858Y112822D01*
X27205Y112138D01*
X26926Y112080D01*
X26628Y112135D01*
X26375Y112303D01*
X20383Y118294D01*
X20220Y118536D01*
X20160Y118833D01*
X20160Y171971D01*
X20205Y172229D01*
X20362Y172488D01*
X20608Y172665D01*
X20904Y172733D01*
X21202Y172680D01*
X21457Y172514D01*
X21626Y172263D01*
X21771Y171913D01*
X24843Y168841D01*
X28857Y167178D01*
X33203Y167178D01*
X37217Y168841D01*
X40289Y171913D01*
X41952Y175927D01*
X41952Y180273D01*
X40289Y184287D01*
X37217Y187359D01*
X36538Y187640D01*
X36300Y187797D01*
X36128Y188047D01*
X36068Y188344D01*
X36068Y193184D01*
X36121Y193464D01*
X36287Y193718D01*
X36538Y193888D01*
X36667Y193941D01*
X39739Y197013D01*
X41402Y201027D01*
X41402Y205373D01*
X39739Y209387D01*
X36667Y212459D01*
X32653Y214122D01*
X28307Y214122D01*
X24293Y212459D01*
X21461Y209627D01*
X21241Y209474D01*
X20946Y209404D01*
X20647Y209455D01*
X20392Y209618D01*
X20220Y209868D01*
X20160Y210166D01*
X20160Y237617D01*
X20216Y237903D01*
X20383Y238156D01*
X25825Y243597D01*
X26061Y243758D01*
X26357Y243820D01*
X26655Y243762D01*
X28308Y243078D01*
X32653Y243078D01*
X35447Y244235D01*
X35702Y244292D01*
X36002Y244246D01*
X36260Y244087D01*
X36435Y243840D01*
X36500Y243544D01*
X36445Y243245D01*
X36277Y242993D01*
X33030Y239745D01*
X32788Y239582D01*
X32491Y239522D01*
X30847Y239522D01*
X26833Y237859D01*
X23761Y234787D01*
X22098Y230773D01*
X22098Y226427D01*
X23761Y222413D01*
X26833Y219341D01*
X30847Y217678D01*
X35193Y217678D01*
X39207Y219341D01*
X42279Y222413D01*
X43942Y226427D01*
X43942Y228071D01*
X43998Y228357D01*
X44165Y228610D01*
X56675Y241120D01*
X57874Y244014D01*
X57874Y316423D01*
X57930Y316709D01*
X58097Y316962D01*
X103038Y361903D01*
X103280Y362066D01*
X103577Y362126D01*
X126364Y362126D01*
X126639Y362075D01*
X126894Y361911D01*
X127066Y361661D01*
X127126Y361364D01*
X127126Y313434D01*
X128325Y310540D01*
X130540Y308325D01*
X133434Y307126D01*
X136566Y307126D01*
X139460Y308325D01*
X141675Y310540D01*
X142874Y313434D01*
X142874Y361364D01*
X142925Y361639D01*
X143089Y361894D01*
X143339Y362066D01*
X143636Y362126D01*
X166423Y362126D01*
X166709Y362070D01*
X166962Y361903D01*
X181194Y347671D01*
X184088Y346472D01*
X257077Y346472D01*
X257363Y346416D01*
X257616Y346249D01*
X261903Y341962D01*
X262066Y341720D01*
X262126Y341423D01*
X262126Y313434D01*
X263325Y310540D01*
X265540Y308325D01*
X268434Y307126D01*
X271566Y307126D01*
X274460Y308325D01*
X276675Y310540D01*
X277874Y313434D01*
X277874Y346566D01*
X276675Y349460D01*
X266740Y359395D01*
X266587Y359615D01*
X266518Y359910D01*
X266568Y360209D01*
X266732Y360464D01*
X266982Y360636D01*
X267279Y360696D01*
X269919Y360696D01*
X273280Y362088D01*
X275852Y364660D01*
X277244Y368021D01*
X277244Y386899D01*
X275852Y390260D01*
X273280Y392832D01*
X269919Y394224D01*
X266281Y394224D01*
X262920Y392832D01*
X260348Y390260D01*
X258956Y386899D01*
X258956Y368021D01*
X260348Y364660D01*
X261488Y363521D01*
X261641Y363301D01*
X261710Y363006D01*
X261660Y362707D01*
X261496Y362452D01*
X261246Y362280D01*
X260949Y362220D01*
X245897Y362220D01*
X245639Y362265D01*
X245380Y362422D01*
X245203Y362668D01*
X245135Y362964D01*
X245188Y363262D01*
X245354Y363517D01*
X245605Y363686D01*
X247880Y364628D01*
X250452Y367200D01*
X251844Y370561D01*
X251844Y389439D01*
X250452Y392800D01*
X247880Y395372D01*
X244519Y396764D01*
X240881Y396764D01*
X237520Y395372D01*
X234948Y392800D01*
X233556Y389439D01*
X233556Y370561D01*
X234948Y367200D01*
X237520Y364628D01*
X239795Y363686D01*
X240016Y363546D01*
X240195Y363301D01*
X240265Y363006D01*
X240214Y362707D01*
X240050Y362452D01*
X239800Y362280D01*
X239503Y362220D01*
X224451Y362220D01*
X224188Y362267D01*
X223930Y362426D01*
X223754Y362674D01*
X223689Y362970D01*
X223745Y363268D01*
X223912Y363521D01*
X225052Y364660D01*
X226444Y368021D01*
X226444Y386899D01*
X225052Y390260D01*
X222480Y392832D01*
X219119Y394224D01*
X215481Y394224D01*
X212120Y392832D01*
X209548Y390260D01*
X208156Y386899D01*
X208156Y368021D01*
X209548Y364660D01*
X210688Y363521D01*
X210841Y363301D01*
X210910Y363006D01*
X210860Y362707D01*
X210696Y362452D01*
X210446Y362280D01*
X210149Y362220D01*
X195097Y362220D01*
X194839Y362265D01*
X194580Y362422D01*
X194403Y362668D01*
X194335Y362964D01*
X194388Y363262D01*
X194554Y363517D01*
X194805Y363686D01*
X197080Y364628D01*
X199652Y367200D01*
X201044Y370561D01*
X201044Y389439D01*
X199652Y392800D01*
X197080Y395372D01*
X193719Y396764D01*
X190081Y396764D01*
X186720Y395372D01*
X184148Y392800D01*
X182756Y389439D01*
X182756Y370561D01*
X182833Y370376D01*
X182890Y370121D01*
X182844Y369821D01*
X182684Y369563D01*
X182437Y369388D01*
X182141Y369323D01*
X181843Y369378D01*
X181590Y369546D01*
X174460Y376675D01*
X171566Y377874D01*
X158592Y377874D01*
X158220Y377971D01*
X157990Y378169D01*
X157855Y378440D01*
X157837Y378743D01*
X157939Y379029D01*
X158144Y379252D01*
X165444Y384556D01*
X170761Y391874D01*
X173556Y400477D01*
X173556Y405000D01*
X173582Y405197D01*
X173673Y405538D01*
X173871Y405880D01*
X174120Y406129D01*
X174462Y406327D01*
X174803Y406418D01*
X175000Y406444D01*
X285000Y406444D01*
X285197Y406418D01*
X285538Y406327D01*
X285880Y406129D01*
X286129Y405880D01*
X286327Y405538D01*
X286399Y405267D01*
X286421Y404986D01*
X286008Y401269D01*
X287685Y393143D01*
X291791Y385933D01*
X297924Y380344D01*
X305484Y376924D01*
X308102Y376633D01*
X308304Y376582D01*
X308512Y376444D01*
X309761Y376444D01*
X309845Y376439D01*
X311081Y376302D01*
X311217Y376384D01*
X311515Y376444D01*
X350000Y376444D01*
X350119Y376435D01*
X358055Y375178D01*
X358282Y375104D01*
X365441Y371456D01*
X365634Y371316D01*
X371316Y365634D01*
X371456Y365441D01*
X375104Y358282D01*
X375178Y358055D01*
X376435Y350119D01*
X376444Y350000D01*
X376444Y40000D01*
X376435Y39881D01*
X375178Y31945D01*
X375104Y31718D01*
X371456Y24559D01*
X371316Y24366D01*
X365634Y18684D01*
X365441Y18544D01*
X358282Y14896D01*
X358055Y14822D01*
X350119Y13565D01*
G37*
%LPC*%
G36*
X345812Y328944D02*
X354188Y328944D01*
X361927Y332150D01*
X367850Y338073D01*
X371056Y345812D01*
X371056Y354188D01*
X367850Y361927D01*
X361927Y367850D01*
X354188Y371056D01*
X345812Y371056D01*
X338073Y367850D01*
X332150Y361927D01*
X328944Y354188D01*
X328944Y345812D01*
X332150Y338073D01*
X338073Y332150D01*
X345812Y328944D01*
G37*
G36*
X267173Y180532D02*
X289705Y180532D01*
X293626Y182156D01*
X296627Y185157D01*
X298251Y189078D01*
X298251Y193322D01*
X296627Y197243D01*
X293626Y200244D01*
X289705Y201868D01*
X267173Y201868D01*
X263252Y200244D01*
X260251Y197243D01*
X258627Y193322D01*
X258627Y189078D01*
X260251Y185157D01*
X263252Y182156D01*
X267173Y180532D01*
G37*
G36*
X100295Y180532D02*
X122827Y180532D01*
X126748Y182156D01*
X129749Y185157D01*
X131373Y189078D01*
X131373Y193322D01*
X129749Y197243D01*
X126748Y200244D01*
X122827Y201868D01*
X100295Y201868D01*
X96374Y200244D01*
X93373Y197243D01*
X91749Y193322D01*
X91749Y189078D01*
X93373Y185157D01*
X96374Y182156D01*
X100295Y180532D01*
G37*
G36*
X56797Y167178D02*
X61143Y167178D01*
X65157Y168841D01*
X68229Y171913D01*
X69892Y175927D01*
X69892Y180273D01*
X68229Y184287D01*
X65157Y187359D01*
X61143Y189022D01*
X56797Y189022D01*
X52783Y187359D01*
X49711Y184287D01*
X48048Y180273D01*
X48048Y175927D01*
X49711Y171913D01*
X52783Y168841D01*
X56797Y167178D01*
G37*
G36*
X267173Y155132D02*
X289705Y155132D01*
X293626Y156756D01*
X296627Y159757D01*
X298251Y163678D01*
X298251Y167922D01*
X296627Y171843D01*
X293626Y174844D01*
X289705Y176468D01*
X267173Y176468D01*
X263252Y174844D01*
X260251Y171843D01*
X258627Y167922D01*
X258627Y163678D01*
X260251Y159757D01*
X263252Y156756D01*
X267173Y155132D01*
G37*
G36*
X100295Y155132D02*
X122827Y155132D01*
X126748Y156756D01*
X129749Y159757D01*
X131373Y163678D01*
X131373Y167922D01*
X129749Y171843D01*
X126748Y174844D01*
X122827Y176468D01*
X100295Y176468D01*
X96374Y174844D01*
X93373Y171843D01*
X91749Y167922D01*
X91749Y163678D01*
X93373Y159757D01*
X96374Y156756D01*
X100295Y155132D01*
G37*
G36*
X56797Y141778D02*
X61143Y141778D01*
X65157Y143441D01*
X68229Y146513D01*
X69892Y150527D01*
X69892Y154873D01*
X68229Y158887D01*
X65157Y161959D01*
X61143Y163622D01*
X56797Y163622D01*
X52783Y161959D01*
X49711Y158887D01*
X48048Y154873D01*
X48048Y150527D01*
X49711Y146513D01*
X52783Y143441D01*
X56797Y141778D01*
G37*
G36*
X351557Y139878D02*
X355903Y139878D01*
X359917Y141541D01*
X362989Y144613D01*
X364652Y148627D01*
X364652Y152973D01*
X362989Y156987D01*
X359917Y160059D01*
X355903Y161722D01*
X351557Y161722D01*
X347543Y160059D01*
X344471Y156987D01*
X342808Y152973D01*
X342808Y148627D01*
X344471Y144613D01*
X347543Y141541D01*
X351557Y139878D01*
G37*
G36*
X267173Y129732D02*
X289705Y129732D01*
X293626Y131356D01*
X296627Y134357D01*
X298251Y138278D01*
X298251Y142522D01*
X296627Y146443D01*
X293626Y149444D01*
X289705Y151068D01*
X267173Y151068D01*
X263252Y149444D01*
X260251Y146443D01*
X258627Y142522D01*
X258627Y138278D01*
X260251Y134357D01*
X263252Y131356D01*
X267173Y129732D01*
G37*
G36*
X100295Y129732D02*
X122827Y129732D01*
X126748Y131356D01*
X129749Y134357D01*
X131373Y138278D01*
X131373Y142522D01*
X129749Y146443D01*
X126748Y149444D01*
X122827Y151068D01*
X100295Y151068D01*
X96374Y149444D01*
X93373Y146443D01*
X91749Y142522D01*
X91749Y138278D01*
X93373Y134357D01*
X96374Y131356D01*
X100295Y129732D01*
G37*
G36*
X203802Y122694D02*
X208198Y122694D01*
X211306Y125802D01*
X211306Y128680D01*
X211362Y128966D01*
X211529Y129219D01*
X221781Y139471D01*
X222023Y139634D01*
X222320Y139694D01*
X225198Y139694D01*
X228306Y142802D01*
X228306Y147198D01*
X225198Y150306D01*
X220802Y150306D01*
X217694Y147198D01*
X217694Y144320D01*
X217638Y144034D01*
X217471Y143781D01*
X207219Y133529D01*
X206977Y133366D01*
X206680Y133306D01*
X203802Y133306D01*
X200694Y130198D01*
X200694Y125802D01*
X203802Y122694D01*
G37*
G36*
X56797Y116378D02*
X61143Y116378D01*
X65157Y118041D01*
X68229Y121113D01*
X69892Y125127D01*
X69892Y129473D01*
X68229Y133487D01*
X65157Y136559D01*
X61143Y138222D01*
X56797Y138222D01*
X52783Y136559D01*
X49711Y133487D01*
X48048Y129473D01*
X48048Y125127D01*
X49711Y121113D01*
X52783Y118041D01*
X56797Y116378D01*
G37*
G36*
X267173Y104332D02*
X289705Y104332D01*
X293626Y105956D01*
X296627Y108957D01*
X298251Y112878D01*
X298251Y117122D01*
X296627Y121043D01*
X293626Y124044D01*
X289705Y125668D01*
X267173Y125668D01*
X263252Y124044D01*
X260251Y121043D01*
X258627Y117122D01*
X258627Y112878D01*
X260251Y108957D01*
X263252Y105956D01*
X267173Y104332D01*
G37*
G36*
X100295Y104332D02*
X122827Y104332D01*
X126748Y105956D01*
X129749Y108957D01*
X131373Y112878D01*
X131373Y117122D01*
X129749Y121043D01*
X126748Y124044D01*
X122827Y125668D01*
X100295Y125668D01*
X96374Y124044D01*
X93373Y121043D01*
X91749Y117122D01*
X91749Y112878D01*
X93373Y108957D01*
X96374Y105956D01*
X100295Y104332D01*
G37*
G36*
X56797Y90978D02*
X61143Y90978D01*
X65157Y92641D01*
X68229Y95713D01*
X69892Y99727D01*
X69892Y104073D01*
X68229Y108087D01*
X65157Y111159D01*
X61143Y112822D01*
X56797Y112822D01*
X52783Y111159D01*
X49711Y108087D01*
X48048Y104073D01*
X48048Y99727D01*
X49711Y95713D01*
X52783Y92641D01*
X56797Y90978D01*
G37*
G36*
X351557Y89078D02*
X355903Y89078D01*
X359917Y90741D01*
X362989Y93813D01*
X364652Y97827D01*
X364652Y102173D01*
X362989Y106187D01*
X359917Y109259D01*
X355903Y110922D01*
X351557Y110922D01*
X347543Y109259D01*
X344471Y106187D01*
X342808Y102173D01*
X342808Y97827D01*
X344471Y93813D01*
X347543Y90741D01*
X351557Y89078D01*
G37*
G36*
X267173Y78932D02*
X289705Y78932D01*
X293626Y80556D01*
X296627Y83557D01*
X298251Y87478D01*
X298251Y91722D01*
X296627Y95643D01*
X293626Y98644D01*
X289705Y100268D01*
X267173Y100268D01*
X263252Y98644D01*
X260251Y95643D01*
X258627Y91722D01*
X258627Y87478D01*
X260251Y83557D01*
X263252Y80556D01*
X267173Y78932D01*
G37*
G36*
X100295Y78932D02*
X122827Y78932D01*
X126748Y80556D01*
X129749Y83557D01*
X131373Y87478D01*
X131373Y91722D01*
X129749Y95643D01*
X126748Y98644D01*
X122827Y100268D01*
X100295Y100268D01*
X96374Y98644D01*
X93373Y95643D01*
X91749Y91722D01*
X91749Y87478D01*
X93373Y83557D01*
X96374Y80556D01*
X100295Y78932D01*
G37*
G36*
X267173Y53532D02*
X289705Y53532D01*
X293626Y55156D01*
X296627Y58157D01*
X298251Y62078D01*
X298251Y66322D01*
X296627Y70243D01*
X293626Y73244D01*
X289705Y74868D01*
X267173Y74868D01*
X263252Y73244D01*
X260251Y70243D01*
X258627Y66322D01*
X258627Y62078D01*
X260251Y58157D01*
X263252Y55156D01*
X267173Y53532D01*
G37*
G36*
X345812Y18944D02*
X354188Y18944D01*
X361927Y22150D01*
X367850Y28073D01*
X371056Y35812D01*
X371056Y44188D01*
X367850Y51927D01*
X361927Y57850D01*
X354188Y61056D01*
X345812Y61056D01*
X338073Y57850D01*
X332150Y51927D01*
X328944Y44188D01*
X328944Y35812D01*
X332150Y28073D01*
X338073Y22150D01*
X345812Y18944D01*
G37*
G36*
X35812Y18944D02*
X44188Y18944D01*
X51927Y22150D01*
X57850Y28073D01*
X61056Y35812D01*
X61056Y44188D01*
X57850Y51927D01*
X51927Y57850D01*
X44188Y61056D01*
X35812Y61056D01*
X28073Y57850D01*
X22150Y51927D01*
X18944Y44188D01*
X18944Y35812D01*
X22150Y28073D01*
X28073Y22150D01*
X35812Y18944D01*
G37*
G36*
X267173Y28132D02*
X289705Y28132D01*
X293626Y29756D01*
X296627Y32757D01*
X298251Y36678D01*
X298251Y40922D01*
X296627Y44843D01*
X293626Y47844D01*
X289705Y49468D01*
X267173Y49468D01*
X263252Y47844D01*
X260251Y44843D01*
X258627Y40922D01*
X258627Y36678D01*
X260251Y32757D01*
X263252Y29756D01*
X267173Y28132D01*
G37*
%LPD*%
D10*
X269295Y38800D02*
X287583Y38800D01*
X287583Y64200D02*
X269295Y64200D01*
X269295Y89600D02*
X287583Y89600D01*
X287583Y115000D02*
X269295Y115000D01*
X269295Y140400D02*
X287583Y140400D01*
X287583Y165800D02*
X269295Y165800D01*
X269295Y191200D02*
X287583Y191200D01*
X120705Y191200D02*
X102417Y191200D01*
X102417Y165800D02*
X120705Y165800D01*
X120705Y140400D02*
X102417Y140400D01*
X102417Y115000D02*
X120705Y115000D01*
X120705Y89600D02*
X102417Y89600D01*
X102417Y64200D02*
X120705Y64200D01*
X120705Y38800D02*
X102417Y38800D01*
D11*
X58970Y101900D03*
X31030Y101900D03*
X58970Y127300D03*
X31030Y127300D03*
X58970Y152700D03*
X31030Y152700D03*
X58970Y178100D03*
X31030Y178100D03*
X30480Y203200D03*
X33020Y228600D03*
X30480Y254000D03*
D12*
X191900Y372380D02*
X191900Y387620D01*
X217300Y385080D02*
X217300Y369840D01*
X242700Y372380D02*
X242700Y387620D01*
X268100Y385080D02*
X268100Y369840D01*
D11*
X353730Y100000D03*
X356270Y125400D03*
X353730Y150800D03*
D13*
X165000Y235000D03*
X300000Y235000D03*
X60000Y210000D03*
X105000Y215000D03*
X130000Y230000D03*
X185000Y200000D03*
X275000Y210000D03*
X365000Y210000D03*
X365000Y325000D03*
X320000Y365000D03*
X100000Y280000D03*
X120000Y280000D03*
X110000Y280000D03*
X100000Y270000D03*
X110000Y270000D03*
X120000Y270000D03*
X235000Y280000D03*
X245000Y280000D03*
X255000Y280000D03*
X255000Y270000D03*
X245000Y270000D03*
X235000Y270000D03*
X210000Y290000D03*
X210000Y260000D03*
X210000Y275000D03*
X280000Y275000D03*
X145000Y275000D03*
X75000Y290000D03*
X75000Y275000D03*
X75000Y260000D03*
X170000Y345000D03*
X290000Y360000D03*
X195000Y290000D03*
X205000Y165000D03*
X345000Y185000D03*
X280000Y285000D03*
X145000Y285000D03*
X65000Y310000D03*
X205000Y400000D03*
X284311Y389749D03*
X173000Y388268D03*
X75000Y245000D03*
X295000Y285000D03*
D14*
X94130Y38800D02*
X31030Y101900D01*
X94130Y38800D02*
X120705Y38800D01*
X16096Y116834D02*
X16096Y239616D01*
X16096Y116834D02*
X31030Y101900D01*
X16096Y239616D02*
X30480Y254000D01*
D13*
X270000Y345000D03*
X270000Y335000D03*
X270000Y325000D03*
X270000Y315000D03*
X135000Y345000D03*
X135000Y335000D03*
X135000Y325000D03*
X135000Y315000D03*
D15*
X50000Y245580D02*
X33020Y228600D01*
X50000Y245580D02*
X50000Y320000D01*
X100000Y370000D01*
X135000Y370000D01*
X170000Y370000D01*
X185654Y354346D01*
X260654Y354346D01*
X270000Y345000D01*
X270000Y315000D01*
X135000Y315000D02*
X135000Y370000D01*
D14*
X30480Y178650D02*
X31030Y178100D01*
D16*
X30480Y178650D02*
X30480Y203200D01*
D13*
X223000Y145000D03*
D17*
X206000Y128000D01*
D13*
X206000Y128000D03*
M02*
