G04 EAGLE Gerber RS-274X export*
G75*
%MOMM*%
%FSLAX34Y34*%
%LPD*%
%INTop Copper*%
%IPPOS*%
%AMOC8*
5,1,8,0,0,1.08239X$1,22.5*%
G01*
G04 Define Apertures*
%ADD10C,1.828800*%
%ADD11C,1.879600*%
%ADD12R,0.650000X1.750000*%
%ADD13R,3.300000X2.410000*%
%ADD14R,1.600000X1.800000*%
%ADD15C,1.524000*%
%ADD16C,0.304800*%
%ADD17C,0.756400*%
%ADD18C,0.812800*%
%ADD19C,0.609600*%
%ADD20C,0.254000*%
G36*
X209964Y150036D02*
X209667Y149971D01*
X209369Y150027D01*
X209116Y150194D01*
X196039Y163271D01*
X177271Y182039D01*
X177108Y182281D01*
X177048Y182578D01*
X177048Y204422D01*
X177104Y204708D01*
X177271Y204961D01*
X194048Y221737D01*
X194048Y249263D01*
X188747Y254563D01*
X188584Y254805D01*
X188524Y255102D01*
X188524Y269631D01*
X187631Y270524D01*
X170369Y270524D01*
X169476Y269631D01*
X169476Y250762D01*
X169425Y250487D01*
X169261Y250232D01*
X169011Y250060D01*
X168714Y250000D01*
X161286Y250000D01*
X161011Y250051D01*
X160756Y250215D01*
X160584Y250465D01*
X160524Y250762D01*
X160524Y269631D01*
X159631Y270524D01*
X142369Y270524D01*
X141476Y269631D01*
X141476Y250762D01*
X141425Y250487D01*
X141261Y250232D01*
X141011Y250060D01*
X140714Y250000D01*
X140052Y250000D01*
X140012Y249994D01*
X140009Y249993D01*
X140000Y249938D01*
X140000Y242100D01*
X139953Y241837D01*
X139794Y241579D01*
X139546Y241403D01*
X139250Y241338D01*
X138952Y241394D01*
X138699Y241561D01*
X133947Y246313D01*
X133784Y246555D01*
X133724Y246852D01*
X133724Y256381D01*
X132831Y257274D01*
X125069Y257274D01*
X124176Y256381D01*
X124176Y237619D01*
X125069Y236726D01*
X132831Y236726D01*
X133334Y237228D01*
X133564Y237386D01*
X133860Y237451D01*
X134158Y237396D01*
X134411Y237228D01*
X139777Y231863D01*
X139940Y231621D01*
X140000Y231324D01*
X140000Y213150D01*
X139953Y212887D01*
X139794Y212629D01*
X139546Y212453D01*
X139250Y212388D01*
X138952Y212444D01*
X138699Y212611D01*
X119521Y231789D01*
X119358Y232031D01*
X119298Y232328D01*
X119298Y235964D01*
X119349Y236239D01*
X119513Y236494D01*
X119763Y236666D01*
X120060Y236726D01*
X120131Y236726D01*
X121024Y237619D01*
X121024Y256381D01*
X120131Y257274D01*
X112369Y257274D01*
X111476Y256381D01*
X111476Y237619D01*
X112369Y236726D01*
X112440Y236726D01*
X112715Y236675D01*
X112970Y236511D01*
X113142Y236261D01*
X113202Y235964D01*
X113202Y229487D01*
X136389Y206301D01*
X136542Y206081D01*
X136611Y205786D01*
X136561Y205487D01*
X136397Y205232D01*
X136147Y205060D01*
X135850Y205000D01*
X134626Y205000D01*
X134340Y205056D01*
X134087Y205223D01*
X106821Y232489D01*
X106658Y232731D01*
X106598Y233028D01*
X106598Y235964D01*
X106649Y236239D01*
X106813Y236494D01*
X107063Y236666D01*
X107360Y236726D01*
X107431Y236726D01*
X108324Y237619D01*
X108324Y256381D01*
X107431Y257274D01*
X99669Y257274D01*
X98776Y256381D01*
X98776Y237619D01*
X99669Y236726D01*
X99740Y236726D01*
X100015Y236675D01*
X100270Y236511D01*
X100442Y236261D01*
X100502Y235964D01*
X100502Y230187D01*
X124389Y206301D01*
X124542Y206081D01*
X124611Y205786D01*
X124561Y205487D01*
X124397Y205232D01*
X124147Y205060D01*
X123850Y205000D01*
X42065Y205000D01*
X41785Y205053D01*
X41531Y205219D01*
X41361Y205470D01*
X39739Y209387D01*
X36667Y212459D01*
X32653Y214122D01*
X28307Y214122D01*
X24293Y212459D01*
X21221Y209387D01*
X19599Y205470D01*
X19442Y205232D01*
X19192Y205060D01*
X18895Y205000D01*
X14318Y205000D01*
X14043Y205051D01*
X13788Y205215D01*
X13616Y205465D01*
X13556Y205762D01*
X13556Y350000D01*
X13565Y350119D01*
X14822Y358055D01*
X14896Y358282D01*
X18544Y365441D01*
X18684Y365634D01*
X24366Y371316D01*
X24559Y371456D01*
X31718Y375104D01*
X31945Y375178D01*
X39881Y376435D01*
X40000Y376444D01*
X149523Y376444D01*
X158126Y379239D01*
X165444Y384556D01*
X170761Y391874D01*
X173556Y400477D01*
X173556Y405000D01*
X173582Y405197D01*
X173673Y405538D01*
X173871Y405880D01*
X174120Y406129D01*
X174462Y406327D01*
X174803Y406418D01*
X175000Y406444D01*
X232702Y406444D01*
X232965Y406397D01*
X233223Y406238D01*
X233399Y405990D01*
X233464Y405694D01*
X233408Y405396D01*
X233241Y405143D01*
X225263Y397165D01*
X224412Y395112D01*
X224412Y392739D01*
X224365Y392476D01*
X224206Y392218D01*
X223958Y392042D01*
X223662Y391977D01*
X223364Y392033D01*
X223111Y392200D01*
X222480Y392832D01*
X219119Y394224D01*
X215481Y394224D01*
X212120Y392832D01*
X209548Y390260D01*
X208156Y386899D01*
X208156Y368021D01*
X208536Y367104D01*
X208594Y366824D01*
X208538Y366526D01*
X208371Y366273D01*
X206637Y364539D01*
X206395Y364376D01*
X206098Y364316D01*
X198607Y364316D01*
X198344Y364363D01*
X198086Y364522D01*
X197910Y364770D01*
X197845Y365066D01*
X197901Y365364D01*
X198068Y365617D01*
X199652Y367200D01*
X201044Y370561D01*
X201044Y389439D01*
X199652Y392800D01*
X197080Y395372D01*
X193719Y396764D01*
X190081Y396764D01*
X186720Y395372D01*
X184148Y392800D01*
X182756Y389439D01*
X182756Y379074D01*
X182700Y378788D01*
X182533Y378535D01*
X178189Y374191D01*
X177947Y374028D01*
X177650Y373968D01*
X116366Y373968D01*
X114312Y373117D01*
X85675Y344480D01*
X84824Y342426D01*
X84824Y302426D01*
X85675Y300373D01*
X85953Y300095D01*
X86116Y299853D01*
X86176Y299556D01*
X86176Y293619D01*
X87069Y292726D01*
X94831Y292726D01*
X95724Y293619D01*
X95724Y299772D01*
X95782Y300063D01*
X96596Y302029D01*
X96740Y302254D01*
X96986Y302431D01*
X97282Y302499D01*
X97580Y302445D01*
X97835Y302280D01*
X98004Y302029D01*
X98818Y300063D01*
X98876Y299772D01*
X98876Y293619D01*
X99769Y292726D01*
X107531Y292726D01*
X108424Y293619D01*
X108424Y299772D01*
X108482Y300063D01*
X109296Y302029D01*
X109440Y302254D01*
X109686Y302431D01*
X109982Y302499D01*
X110280Y302445D01*
X110535Y302280D01*
X110704Y302029D01*
X111518Y300063D01*
X111576Y299772D01*
X111576Y293619D01*
X112469Y292726D01*
X120231Y292726D01*
X121124Y293619D01*
X121124Y299772D01*
X121182Y300063D01*
X121938Y301888D01*
X121938Y308720D01*
X121994Y309006D01*
X122161Y309259D01*
X122175Y309273D01*
X122395Y309426D01*
X122690Y309495D01*
X122989Y309445D01*
X123244Y309281D01*
X123416Y309031D01*
X123476Y308734D01*
X123476Y295036D01*
X123506Y294717D01*
X123585Y294444D01*
X123713Y294190D01*
X123886Y293965D01*
X124142Y293736D01*
X124217Y293678D01*
X125169Y292726D01*
X132931Y292726D01*
X133458Y293253D01*
X133700Y293416D01*
X133997Y293476D01*
X159964Y293476D01*
X160283Y293506D01*
X160556Y293585D01*
X160810Y293713D01*
X161035Y293886D01*
X161224Y294098D01*
X161371Y294341D01*
X161464Y294594D01*
X161524Y295050D01*
X161524Y349964D01*
X161494Y350283D01*
X161415Y350556D01*
X161287Y350810D01*
X161114Y351035D01*
X160902Y351224D01*
X160659Y351371D01*
X160406Y351464D01*
X159950Y351524D01*
X132266Y351524D01*
X132003Y351571D01*
X131745Y351730D01*
X131569Y351978D01*
X131504Y352274D01*
X131560Y352572D01*
X131727Y352825D01*
X131819Y352917D01*
X132061Y353080D01*
X132358Y353140D01*
X209840Y353140D01*
X211893Y353991D01*
X218375Y360473D01*
X218617Y360636D01*
X218914Y360696D01*
X219169Y360696D01*
X219438Y360647D01*
X219695Y360486D01*
X219869Y360237D01*
X219931Y359940D01*
X219873Y359642D01*
X219824Y359523D01*
X219824Y317574D01*
X220304Y316415D01*
X220362Y316123D01*
X220362Y301888D01*
X221118Y300063D01*
X221176Y299772D01*
X221176Y293619D01*
X222069Y292726D01*
X229831Y292726D01*
X230724Y293619D01*
X230724Y299772D01*
X230782Y300063D01*
X231596Y302029D01*
X231740Y302254D01*
X231986Y302431D01*
X232282Y302499D01*
X232580Y302445D01*
X232835Y302280D01*
X233004Y302029D01*
X233818Y300063D01*
X233876Y299772D01*
X233876Y293619D01*
X234769Y292726D01*
X242531Y292726D01*
X243424Y293619D01*
X243424Y299772D01*
X243482Y300063D01*
X244296Y302029D01*
X244440Y302254D01*
X244686Y302431D01*
X244982Y302499D01*
X245280Y302445D01*
X245535Y302280D01*
X245704Y302029D01*
X246518Y300063D01*
X246576Y299772D01*
X246576Y293619D01*
X247469Y292726D01*
X255231Y292726D01*
X256124Y293619D01*
X256124Y299772D01*
X256182Y300063D01*
X256938Y301888D01*
X256938Y314817D01*
X256994Y315103D01*
X257161Y315356D01*
X257175Y315370D01*
X257395Y315523D01*
X257690Y315593D01*
X257989Y315542D01*
X258244Y315378D01*
X258416Y315128D01*
X258476Y314831D01*
X258476Y295036D01*
X258506Y294717D01*
X258585Y294444D01*
X258713Y294190D01*
X258886Y293965D01*
X259142Y293736D01*
X259217Y293678D01*
X260169Y292726D01*
X267931Y292726D01*
X268458Y293253D01*
X268700Y293416D01*
X268997Y293476D01*
X294964Y293476D01*
X295283Y293506D01*
X295556Y293585D01*
X295810Y293713D01*
X296035Y293886D01*
X296224Y294098D01*
X296371Y294341D01*
X296464Y294594D01*
X296524Y295050D01*
X296524Y349964D01*
X296494Y350283D01*
X296415Y350556D01*
X296287Y350810D01*
X296114Y351035D01*
X295902Y351224D01*
X295659Y351371D01*
X295406Y351464D01*
X294950Y351524D01*
X260036Y351524D01*
X259717Y351494D01*
X259444Y351415D01*
X259190Y351287D01*
X258965Y351114D01*
X258776Y350902D01*
X258629Y350659D01*
X258536Y350406D01*
X258476Y349950D01*
X258476Y348966D01*
X258429Y348703D01*
X258270Y348445D01*
X258022Y348269D01*
X257726Y348204D01*
X257428Y348260D01*
X257175Y348427D01*
X248511Y357091D01*
X248348Y357333D01*
X248288Y357630D01*
X248288Y364721D01*
X248344Y365007D01*
X248511Y365260D01*
X250452Y367200D01*
X251844Y370561D01*
X251844Y387413D01*
X251891Y387676D01*
X252050Y387934D01*
X252298Y388109D01*
X252594Y388175D01*
X252892Y388119D01*
X253145Y387951D01*
X258733Y382363D01*
X258896Y382122D01*
X258956Y381825D01*
X258956Y368021D01*
X260348Y364660D01*
X262920Y362088D01*
X266281Y360696D01*
X269919Y360696D01*
X273280Y362088D01*
X275852Y364660D01*
X277244Y368021D01*
X277244Y386899D01*
X275852Y390260D01*
X273280Y392832D01*
X269919Y394224D01*
X266281Y394224D01*
X264203Y393363D01*
X263924Y393305D01*
X263626Y393361D01*
X263373Y393529D01*
X251758Y405143D01*
X251605Y405363D01*
X251536Y405658D01*
X251586Y405957D01*
X251750Y406212D01*
X252000Y406384D01*
X252297Y406444D01*
X285000Y406444D01*
X285197Y406418D01*
X285538Y406327D01*
X285880Y406129D01*
X286129Y405880D01*
X286327Y405538D01*
X286399Y405267D01*
X286421Y404986D01*
X286008Y401269D01*
X287685Y393143D01*
X291791Y385933D01*
X297924Y380344D01*
X305484Y376924D01*
X308102Y376633D01*
X308304Y376582D01*
X308512Y376444D01*
X309761Y376444D01*
X309845Y376439D01*
X311081Y376302D01*
X311217Y376384D01*
X311515Y376444D01*
X350000Y376444D01*
X350119Y376435D01*
X358055Y375178D01*
X358282Y375104D01*
X365441Y371456D01*
X365634Y371316D01*
X371316Y365634D01*
X371456Y365441D01*
X375104Y358282D01*
X375178Y358055D01*
X376435Y350119D01*
X376444Y350000D01*
X376444Y170762D01*
X376393Y170487D01*
X376229Y170232D01*
X375979Y170060D01*
X375682Y170000D01*
X333810Y170000D01*
X333535Y170051D01*
X333280Y170215D01*
X333108Y170465D01*
X333048Y170762D01*
X333048Y245263D01*
X330223Y248087D01*
X330060Y248329D01*
X330000Y248626D01*
X330000Y249948D01*
X329994Y249988D01*
X329993Y249991D01*
X329938Y250000D01*
X328626Y250000D01*
X328340Y250056D01*
X328087Y250223D01*
X323747Y254563D01*
X323584Y254805D01*
X323524Y255102D01*
X323524Y269631D01*
X322631Y270524D01*
X305369Y270524D01*
X304476Y269631D01*
X304476Y250762D01*
X304425Y250487D01*
X304261Y250232D01*
X304011Y250060D01*
X303714Y250000D01*
X296286Y250000D01*
X296011Y250051D01*
X295756Y250215D01*
X295584Y250465D01*
X295524Y250762D01*
X295524Y269631D01*
X294631Y270524D01*
X277369Y270524D01*
X276476Y269631D01*
X276476Y250369D01*
X277369Y249476D01*
X279238Y249476D01*
X279513Y249425D01*
X279768Y249261D01*
X279940Y249011D01*
X280000Y248714D01*
X280000Y246286D01*
X279949Y246011D01*
X279785Y245756D01*
X279535Y245584D01*
X279238Y245524D01*
X277369Y245524D01*
X276476Y244631D01*
X276476Y240624D01*
X276429Y240361D01*
X276270Y240103D01*
X276022Y239927D01*
X275726Y239862D01*
X275428Y239918D01*
X275175Y240085D01*
X268947Y246313D01*
X268784Y246555D01*
X268724Y246852D01*
X268724Y256381D01*
X267831Y257274D01*
X260069Y257274D01*
X259176Y256381D01*
X259176Y237619D01*
X260069Y236726D01*
X267831Y236726D01*
X268334Y237228D01*
X268564Y237386D01*
X268860Y237451D01*
X269158Y237396D01*
X269411Y237228D01*
X274687Y231952D01*
X275714Y231952D01*
X275989Y231901D01*
X276244Y231737D01*
X276416Y231487D01*
X276476Y231190D01*
X276476Y225810D01*
X276425Y225535D01*
X276261Y225280D01*
X276011Y225108D01*
X275714Y225048D01*
X265578Y225048D01*
X265292Y225104D01*
X265039Y225271D01*
X254885Y235425D01*
X254732Y235645D01*
X254663Y235940D01*
X254713Y236239D01*
X254877Y236494D01*
X254949Y236544D01*
X256024Y237619D01*
X256024Y256381D01*
X255131Y257274D01*
X247369Y257274D01*
X246476Y256381D01*
X246476Y237619D01*
X247369Y236726D01*
X247440Y236726D01*
X247715Y236675D01*
X247970Y236511D01*
X248142Y236261D01*
X248202Y235964D01*
X248202Y233487D01*
X260341Y221349D01*
X260494Y221129D01*
X260563Y220834D01*
X260513Y220535D01*
X260349Y220280D01*
X260099Y220108D01*
X259802Y220048D01*
X258578Y220048D01*
X258292Y220104D01*
X258039Y220271D01*
X242547Y235764D01*
X242389Y235994D01*
X242324Y236290D01*
X242379Y236589D01*
X242547Y236841D01*
X243324Y237619D01*
X243324Y256381D01*
X242431Y257274D01*
X234669Y257274D01*
X233776Y256381D01*
X233776Y237619D01*
X234669Y236726D01*
X234740Y236726D01*
X235015Y236675D01*
X235270Y236511D01*
X235442Y236261D01*
X235502Y235964D01*
X235502Y234187D01*
X255737Y213952D01*
X279238Y213952D01*
X279513Y213901D01*
X279768Y213737D01*
X279940Y213487D01*
X280000Y213190D01*
X280000Y205762D01*
X279949Y205487D01*
X279785Y205232D01*
X279535Y205060D01*
X279238Y205000D01*
X265088Y205000D01*
X264983Y204975D01*
X264956Y204956D01*
X210194Y150194D01*
X209964Y150036D01*
G37*
%LPC*%
G36*
X345812Y328944D02*
X354188Y328944D01*
X361927Y332150D01*
X367850Y338073D01*
X371056Y345812D01*
X371056Y354188D01*
X367850Y361927D01*
X361927Y367850D01*
X354188Y371056D01*
X345812Y371056D01*
X338073Y367850D01*
X332150Y361927D01*
X328944Y354188D01*
X328944Y345812D01*
X332150Y338073D01*
X338073Y332150D01*
X345812Y328944D01*
G37*
G36*
X35812Y328944D02*
X44188Y328944D01*
X51927Y332150D01*
X57850Y338073D01*
X61056Y345812D01*
X61056Y354188D01*
X57850Y361927D01*
X51927Y367850D01*
X44188Y371056D01*
X35812Y371056D01*
X28073Y367850D01*
X22150Y361927D01*
X18944Y354188D01*
X18944Y345812D01*
X22150Y338073D01*
X28073Y332150D01*
X35812Y328944D01*
G37*
G36*
X28307Y243078D02*
X32653Y243078D01*
X36667Y244741D01*
X39739Y247813D01*
X41402Y251827D01*
X41402Y256173D01*
X39739Y260187D01*
X36667Y263259D01*
X32653Y264922D01*
X28307Y264922D01*
X24293Y263259D01*
X21221Y260187D01*
X19558Y256173D01*
X19558Y251827D01*
X21221Y247813D01*
X24293Y244741D01*
X28307Y243078D01*
G37*
G36*
X30847Y217678D02*
X35193Y217678D01*
X39207Y219341D01*
X42279Y222413D01*
X43942Y226427D01*
X43942Y230773D01*
X42279Y234787D01*
X39207Y237859D01*
X35193Y239522D01*
X30847Y239522D01*
X26833Y237859D01*
X23761Y234787D01*
X22098Y230773D01*
X22098Y226427D01*
X23761Y222413D01*
X26833Y219341D01*
X30847Y217678D01*
G37*
%LPD*%
G36*
X159535Y295060D02*
X159238Y295000D01*
X125762Y295000D01*
X125487Y295051D01*
X125232Y295215D01*
X125060Y295465D01*
X125000Y295762D01*
X125000Y312317D01*
X125058Y312609D01*
X125588Y313888D01*
X125588Y346370D01*
X125644Y346656D01*
X125811Y346909D01*
X128679Y349777D01*
X128921Y349940D01*
X129218Y350000D01*
X159238Y350000D01*
X159513Y349949D01*
X159768Y349785D01*
X159940Y349535D01*
X160000Y349238D01*
X160000Y295762D01*
X159949Y295487D01*
X159785Y295232D01*
X159535Y295060D01*
G37*
G36*
X294535Y295060D02*
X294238Y295000D01*
X260762Y295000D01*
X260487Y295051D01*
X260232Y295215D01*
X260060Y295465D01*
X260000Y295762D01*
X260000Y349238D01*
X260051Y349513D01*
X260215Y349768D01*
X260465Y349940D01*
X260762Y350000D01*
X294238Y350000D01*
X294513Y349949D01*
X294768Y349785D01*
X294940Y349535D01*
X295000Y349238D01*
X295000Y295762D01*
X294949Y295487D01*
X294785Y295232D01*
X294535Y295060D01*
G37*
D10*
X269295Y38800D02*
X287583Y38800D01*
X287583Y64200D02*
X269295Y64200D01*
X269295Y89600D02*
X287583Y89600D01*
X287583Y115000D02*
X269295Y115000D01*
X269295Y140400D02*
X287583Y140400D01*
X287583Y165800D02*
X269295Y165800D01*
X269295Y191200D02*
X287583Y191200D01*
X120705Y191200D02*
X102417Y191200D01*
X102417Y165800D02*
X120705Y165800D01*
X120705Y140400D02*
X102417Y140400D01*
X102417Y115000D02*
X120705Y115000D01*
X120705Y89600D02*
X102417Y89600D01*
X102417Y64200D02*
X120705Y64200D01*
X120705Y38800D02*
X102417Y38800D01*
D11*
X58970Y101900D03*
X31030Y101900D03*
X58970Y127300D03*
X31030Y127300D03*
X58970Y152700D03*
X31030Y152700D03*
X58970Y178100D03*
X31030Y178100D03*
X30480Y203200D03*
X33020Y228600D03*
X30480Y254000D03*
D12*
X90950Y247000D03*
X103550Y247000D03*
X116250Y247000D03*
X128950Y247000D03*
X90950Y303000D03*
X103650Y303000D03*
X116350Y303000D03*
X129050Y303000D03*
D13*
X110000Y275000D03*
D14*
X104000Y330000D03*
X76000Y330000D03*
X179000Y260000D03*
X151000Y260000D03*
X151000Y235000D03*
X179000Y235000D03*
D15*
X191900Y372380D02*
X191900Y387620D01*
X217300Y385080D02*
X217300Y369840D01*
X242700Y372380D02*
X242700Y387620D01*
X268100Y385080D02*
X268100Y369840D01*
D14*
X151000Y330000D03*
X179000Y330000D03*
X151000Y305000D03*
X179000Y305000D03*
D12*
X225950Y247000D03*
X238550Y247000D03*
X251250Y247000D03*
X263950Y247000D03*
X225950Y303000D03*
X238650Y303000D03*
X251350Y303000D03*
X264050Y303000D03*
D13*
X245000Y275000D03*
D14*
X239000Y330000D03*
X211000Y330000D03*
X314000Y260000D03*
X286000Y260000D03*
X286000Y235000D03*
X314000Y235000D03*
X286000Y330000D03*
X314000Y330000D03*
X286000Y305000D03*
X314000Y305000D03*
D11*
X353730Y100000D03*
X356270Y125400D03*
X353730Y150800D03*
D16*
X179000Y235000D02*
X165000Y235000D01*
D17*
X165000Y235000D03*
D16*
X300000Y235000D02*
X314000Y235000D01*
D17*
X300000Y235000D03*
X60000Y210000D03*
X105000Y215000D03*
X130000Y230000D03*
X185000Y200000D03*
X275000Y210000D03*
X365000Y210000D03*
X365000Y325000D03*
X320000Y365000D03*
X100000Y280000D03*
X120000Y280000D03*
X110000Y280000D03*
X100000Y270000D03*
X110000Y270000D03*
X120000Y270000D03*
X235000Y280000D03*
X245000Y280000D03*
X255000Y280000D03*
X255000Y270000D03*
X245000Y270000D03*
X235000Y270000D03*
X210000Y290000D03*
X210000Y260000D03*
X210000Y275000D03*
X280000Y275000D03*
X145000Y275000D03*
X75000Y290000D03*
X75000Y275000D03*
X75000Y260000D03*
X170000Y345000D03*
X290000Y360000D03*
X195000Y290000D03*
X205000Y165000D03*
X345000Y185000D03*
X280000Y285000D03*
X145000Y285000D03*
X65000Y310000D03*
X205000Y400000D03*
X284311Y389749D03*
X173000Y388268D03*
X75000Y245000D03*
X295000Y285000D03*
D16*
X210400Y89600D02*
X120705Y89600D01*
X210400Y89600D02*
X249008Y50992D01*
X300992Y50992D01*
X340000Y90000D01*
X340000Y137070D01*
X353730Y150800D01*
D17*
X270000Y345000D03*
X270000Y335000D03*
X270000Y325000D03*
X270000Y315000D03*
X135000Y345000D03*
X135000Y335000D03*
X135000Y325000D03*
X135000Y315000D03*
D16*
X151000Y260000D02*
X151000Y235000D01*
X140950Y235000D02*
X128950Y247000D01*
X140950Y235000D02*
X151000Y235000D01*
X314000Y260000D02*
X330000Y244000D01*
X330000Y175000D01*
X330000Y94000D01*
X300200Y64200D01*
X269295Y64200D01*
D18*
X252588Y345112D02*
X242700Y355000D01*
X242700Y380000D01*
X251350Y317447D02*
X251350Y303000D01*
X251350Y317447D02*
X252588Y318685D01*
X252588Y345112D01*
X225950Y318147D02*
X225950Y303000D01*
X225950Y318147D02*
X225412Y318685D01*
X225412Y358412D01*
X230000Y363000D01*
D19*
X230000Y394000D01*
D18*
X237380Y401380D01*
X247619Y401380D01*
X268100Y380899D01*
X268100Y377460D01*
X238650Y329650D02*
X238650Y303000D01*
X238650Y329650D02*
X239000Y330000D01*
D16*
X269295Y165800D02*
X296800Y165800D01*
X302000Y171000D01*
X302000Y203000D01*
X288000Y217000D01*
X257000Y217000D01*
X238550Y235450D01*
X238550Y247000D01*
X251250Y247000D02*
X251250Y234750D01*
X264000Y222000D01*
X291000Y222000D01*
X307000Y206000D01*
X307000Y149000D01*
X298400Y140400D02*
X269295Y140400D01*
X298400Y140400D02*
X307000Y149000D01*
X275950Y235000D02*
X263950Y247000D01*
X275950Y235000D02*
X286000Y235000D01*
X286000Y260000D01*
D18*
X90412Y303538D02*
X90412Y341315D01*
X90412Y303538D02*
X90950Y303000D01*
X90412Y341315D02*
X117477Y368380D01*
X180280Y368380D02*
X191900Y380000D01*
X180280Y368380D02*
X117477Y368380D01*
X116350Y311350D02*
X116350Y303000D01*
X116350Y311350D02*
X120000Y315000D01*
X217300Y367300D02*
X217300Y377460D01*
X120000Y349000D02*
X120000Y315000D01*
X120000Y349000D02*
X129728Y358728D01*
X208728Y358728D01*
X217300Y367300D01*
X103650Y329650D02*
X103650Y303000D01*
X103650Y329650D02*
X104000Y330000D01*
D16*
X120705Y140400D02*
X125400Y140400D01*
X135000Y150000D01*
X135000Y200000D01*
X103550Y231450D01*
X103550Y247000D01*
X116250Y247000D02*
X116250Y230750D01*
X257400Y89600D01*
X269295Y89600D01*
X240000Y115000D02*
X195000Y160000D01*
X240000Y115000D02*
X269295Y115000D01*
X191000Y248000D02*
X179000Y260000D01*
X191000Y248000D02*
X191000Y223000D01*
X174000Y206000D01*
X174000Y181000D01*
X195000Y160000D01*
X269295Y38800D02*
X298800Y38800D01*
X353730Y93730D01*
X353730Y100000D01*
X72070Y191200D02*
X58970Y178100D01*
X72070Y191200D02*
X120705Y191200D01*
X120705Y115000D02*
X72070Y115000D01*
X58970Y101900D01*
D20*
X58970Y127300D02*
X59670Y128000D01*
D16*
X223095Y145000D02*
X269295Y191200D01*
D20*
X223095Y145000D02*
X223000Y145000D01*
D17*
X223000Y145000D03*
X206000Y128000D03*
D16*
X59670Y128000D01*
X58970Y152700D02*
X72070Y165800D01*
D20*
X120705Y165800D01*
M02*
