M48
;GenerationSoftware,Autodesk,EAGLE,9.7.0*%
;CreationDate,2023-11-03T23:00:17Z*%
FMAT,2
ICI,OFF
METRIC,TZ,000.000
T3C1.000
T2C1.016
T1C3.500
%
G90
M71
T1
X35000Y4000
X4000Y4000
X4000Y35000
X35000Y35000
T2
X5897Y10190
X3103Y10190
X5897Y12730
X3103Y12730
X5897Y15270
X3103Y15270
X5897Y17810
X3103Y17810
X3048Y20320
X3302Y22860
X3048Y25400
T3
X27056Y3880
X27056Y6420
X27056Y8960
X27056Y11500
X27056Y14040
X27056Y16580
X27056Y19120
X11943Y19120
X11943Y16580
X11943Y14040
X11943Y11500
X11943Y8960
X11943Y6420
X11943Y3880
M30