G04 EAGLE Gerber RS-274X export*
G75*
%MOMM*%
%FSLAX34Y34*%
%LPD*%
%IN*%
%IPPOS*%
%AMOC8*
5,1,8,0,0,1.08239X$1,22.5*%
G01*
G04 Define Apertures*
%ADD10C,0.254000*%
D10*
X10000Y40000D02*
X10114Y37385D01*
X10456Y34791D01*
X11022Y32235D01*
X11809Y29739D01*
X12811Y27321D01*
X14019Y25000D01*
X15425Y22793D01*
X17019Y20716D01*
X18787Y18787D01*
X20716Y17019D01*
X22793Y15425D01*
X25000Y14019D01*
X27321Y12811D01*
X29739Y11809D01*
X32235Y11022D01*
X34791Y10456D01*
X37385Y10114D01*
X40000Y10000D01*
X350000Y10000D01*
X352615Y10114D01*
X355209Y10456D01*
X357765Y11022D01*
X360261Y11809D01*
X362679Y12811D01*
X365000Y14019D01*
X367207Y15425D01*
X369284Y17019D01*
X371213Y18787D01*
X372981Y20716D01*
X374575Y22793D01*
X375981Y25000D01*
X377189Y27321D01*
X378191Y29739D01*
X378978Y32235D01*
X379544Y34791D01*
X379886Y37385D01*
X380000Y40000D01*
X380000Y350000D01*
X379886Y352615D01*
X379544Y355209D01*
X378978Y357765D01*
X378191Y360261D01*
X377189Y362679D01*
X375981Y365000D01*
X374575Y367207D01*
X372981Y369284D01*
X371213Y371213D01*
X369284Y372981D01*
X367207Y374575D01*
X365000Y375981D01*
X362679Y377189D01*
X360261Y378191D01*
X357765Y378978D01*
X355209Y379544D01*
X352615Y379886D01*
X350000Y380000D01*
X310000Y380000D01*
X308049Y380304D01*
X306131Y380776D01*
X304262Y381414D01*
X302455Y382212D01*
X300725Y383165D01*
X299085Y384264D01*
X297547Y385503D01*
X296122Y386871D01*
X294822Y388358D01*
X293657Y389952D01*
X292635Y391642D01*
X291764Y393415D01*
X291052Y395257D01*
X290502Y397154D01*
X290120Y399091D01*
X289908Y401055D01*
X289868Y403029D01*
X290000Y405000D01*
X289981Y405436D01*
X289924Y405868D01*
X289830Y406294D01*
X289698Y406710D01*
X289532Y407113D01*
X289330Y407500D01*
X289096Y407868D01*
X288830Y408214D01*
X288536Y408536D01*
X288214Y408830D01*
X287868Y409096D01*
X287500Y409330D01*
X287113Y409532D01*
X286710Y409698D01*
X286294Y409830D01*
X285868Y409924D01*
X285436Y409981D01*
X285000Y410000D01*
X175000Y410000D01*
X174564Y409981D01*
X174132Y409924D01*
X173706Y409830D01*
X173290Y409698D01*
X172887Y409532D01*
X172500Y409330D01*
X172132Y409096D01*
X171786Y408830D01*
X171464Y408536D01*
X171170Y408214D01*
X170904Y407868D01*
X170670Y407500D01*
X170468Y407113D01*
X170302Y406710D01*
X170170Y406294D01*
X170076Y405868D01*
X170019Y405436D01*
X170000Y405000D01*
X169905Y402821D01*
X169620Y400659D01*
X169148Y398530D01*
X168492Y396450D01*
X167658Y394435D01*
X166651Y392500D01*
X165479Y390661D01*
X164151Y388930D01*
X162678Y387322D01*
X161070Y385849D01*
X159339Y384521D01*
X157500Y383349D01*
X155565Y382342D01*
X153551Y381508D01*
X151470Y380852D01*
X149341Y380380D01*
X147179Y380095D01*
X145000Y380000D01*
X40000Y380000D01*
X37385Y379886D01*
X34791Y379544D01*
X32235Y378978D01*
X29739Y378191D01*
X27321Y377189D01*
X25000Y375981D01*
X22793Y374575D01*
X20716Y372981D01*
X18787Y371213D01*
X17019Y369284D01*
X15425Y367207D01*
X14019Y365000D01*
X12811Y362679D01*
X11809Y360261D01*
X11022Y357765D01*
X10456Y355209D01*
X10114Y352615D01*
X10000Y350000D01*
X10000Y40000D01*
M02*
