G04 EAGLE Gerber RS-274X export*
G75*
%MOMM*%
%FSLAX34Y34*%
%LPD*%
%INSoldermask Bottom*%
%IPPOS*%
%AMOC8*
5,1,8,0,0,1.08239X$1,22.5*%
G01*
G04 Define Apertures*
%ADD10C,3.703200*%
%ADD11C,2.032000*%
%ADD12C,2.082800*%
%ADD13C,1.727200*%
D10*
X350000Y40000D03*
X40000Y40000D03*
X40000Y350000D03*
X350000Y350000D03*
D11*
X287583Y38800D02*
X269295Y38800D01*
X269295Y64200D02*
X287583Y64200D01*
X287583Y89600D02*
X269295Y89600D01*
X269295Y115000D02*
X287583Y115000D01*
X287583Y140400D02*
X269295Y140400D01*
X269295Y165800D02*
X287583Y165800D01*
X287583Y191200D02*
X269295Y191200D01*
X120705Y191200D02*
X102417Y191200D01*
X102417Y165800D02*
X120705Y165800D01*
X120705Y140400D02*
X102417Y140400D01*
X102417Y115000D02*
X120705Y115000D01*
X120705Y89600D02*
X102417Y89600D01*
X102417Y64200D02*
X120705Y64200D01*
X120705Y38800D02*
X102417Y38800D01*
D12*
X58970Y101900D03*
X31030Y101900D03*
X58970Y127300D03*
X31030Y127300D03*
X58970Y152700D03*
X31030Y152700D03*
X58970Y178100D03*
X31030Y178100D03*
X30480Y203200D03*
X33020Y228600D03*
X30480Y254000D03*
D13*
X191900Y372380D02*
X191900Y387620D01*
X217300Y385080D02*
X217300Y369840D01*
X242700Y372380D02*
X242700Y387620D01*
X268100Y385080D02*
X268100Y369840D01*
D12*
X353730Y100000D03*
X356270Y125400D03*
X353730Y150800D03*
M02*
